SplineFontDB: 3.0
FontName: Muli-Light
FullName: Muli Light
FamilyName: Muli
Weight: Light
Copyright: Digitized data Copyright (c) 2011-2014, vernon adams.
Version: 2
ItalicAngle: 0
UnderlinePosition: 0
UnderlineWidth: 0
Ascent: 800
Descent: 200
UFOAscent: 761.719
UFODescent: -271.484
LayerCount: 2
Layer: 0 0 "Back"  1
Layer: 1 0 "Fore"  0
OS2Version: 0
OS2_WeightWidthSlopeOnly: 0
OS2_UseTypoMetrics: 0
CreationTime: 1395087470
ModificationTime: 1395087629
PfmFamily: 0
TTFWeight: 300
TTFWidth: 5
LineGap: 0
VLineGap: 0
OS2TypoAscent: 1178
OS2TypoAOffset: 0
OS2TypoDescent: -296
OS2TypoDOffset: 0
OS2TypoLinegap: 0
OS2WinAscent: 1178
OS2WinAOffset: 0
OS2WinDescent: 296
OS2WinDOffset: 0
HheadAscent: 1178
HheadAOffset: 0
HheadDescent: -296
HheadDOffset: 0
OS2Vendor: 'NeWT'
Lookup: 258 0 0 "'kern' Horizontal Kerning in Latin lookup 0"  {"'kern' Horizontal Kerning in Latin lookup 0 subtable"  } ['kern' ('latn' <'dflt' > ) ]
MarkAttachClasses: 1
DEI: 91125
LangName: 1033 "" "" "" "" "" "Version 2" "" "Muli is a trademark of Vernon Adams and may be registered in certain jurisdictions." "newtypography" "Vernon Adams" "" "newtypography.co.uk" "newtypography.co.uk" "Copyright (c) 2014, vernon adams.+AAoACgAA-This Font Software is licensed under the SIL Open Font License, Version 1.1.+AAoA-This license is available with a FAQ at:+AAoA-http://scripts.sil.org/OFL+AAoA" "http://scripts.sil.org/OFL" "" "Muli" "Light" 
PickledData: "(dp1
S'com.typemytype.robofont.foreground.layerStrokeColor'
p2
(F0.5
F0
F0.5
F0.69999999999999996
tp3
sS'com.schriftgestaltung.fontMasterID'
p4
S'CAA31E91-2985-420A-82BA-6B4D8404D924'
p5
sS'GSDimensionPlugin.Dimensions'
p6
(dp7
S'CAA31E91-2985-420A-82BA-6B4D8404D924'
p8
(dp9
ssS'com.superpolator.editor.generateInfo'
p10
S'Generated with LTR Superpolator version 120823_1018_beta_'
p11
sS'com.typemytype.robofont.b.layerStrokeColor'
p12
(F1
F0.75
F0
F0.69999999999999996
tp13
sS'com.schriftgestaltung.useNiceNames'
p14
I01
sS'com.typemytype.robofont.layerOrder'

StartChar: A
Encoding: 65 65 0
Width: 666
VWidth: 0
Flags: HW
PickledData: "(dp1
S'org.robofab.postScriptHintData'
p2
(dp3
sS'com.typemytype.robofont.layerData'
p4
(dp5
s."
AnchorPoint: "top" 333 711 basechar 0
LayerCount: 2
Fore
SplineSet
195 249 m 257
 471 249 l 257
 425 380 380 510 333 640 c 257
 287 509 241 380 195 249 c 257
24 0 m 257
 292 711 l 257
 374 711 l 257
 642 0 l 257
 563 0 l 257
 492 192 l 257
 175 192 l 257
 104 0 l 257
 24 0 l 257
EndSplineSet
EndChar

StartChar: AE
Encoding: 198 198 1
Width: 957
VWidth: 0
Flags: HW
PickledData: "(dp1
S'org.robofab.postScriptHintData'
p2
(dp3
sS'com.typemytype.robofont.layerData'
p4
(dp5
S'b'
(dp6
S'name'
p7
S'AE'
p8
sS'lib'
p9
(dp10
sS'unicodes'
p11
(tsS'width'
p12
F2073.5500000000002
sS'contours'
p13
(tsS'components'
p14
(tsS'anchors'
p15
(tsss."
AnchorPoint: "top" 638 711 basechar 0
LayerCount: 2
Fore
SplineSet
236 265 m 257
 512 265 l 257
 482 649 l 257
 455 649 l 257
 236 265 l 257
15 0 m 257
 424 711 l 257
 895 711 l 257
 895 649 l 257
 547 649 l 257
 568 396 l 257
 870 396 l 257
 870 339 l 257
 572 339 l 257
 597 60 l 257
 907 60 l 257
 907 0 l 257
 537 0 l 257
 518 210 l 257
 209 210 l 257
 90 0 l 257
 15 0 l 257
EndSplineSet
EndChar

StartChar: B
Encoding: 66 66 18
Width: 661
VWidth: 0
Flags: HW
PickledData: "(dp1
S'org.robofab.postScriptHintData'
p2
(dp3
sS'com.typemytype.robofont.layerData'
p4
(dp5
S'b'
(dp6
S'name'
p7
S'B'
sS'lib'
p8
(dp9
sS'unicodes'
p10
(tsS'width'
p11
F1346.45
sS'contours'
p12
(tsS'components'
p13
(tsS'anchors'
p14
(tsss."
AnchorPoint: "top" 316 711 basechar 0
LayerCount: 2
Fore
SplineSet
178 399 m 257
 325 399 l 258
 434 399 491 439 491 532 c 256
 491 617 426 650 305 650 c 258
 178 650 l 257
 178 399 l 257
177 61 m 257
 345 61 l 258
 463 61 525 108 525 196 c 256
 525 296 472 339 329 339 c 258
 177 339 l 257
 177 61 l 257
104 0 m 257
 104 711 l 257
 299 711 l 258
 451 711 566 669 566 537 c 256
 566 447 522 391 438 375 c 257
 540 362 601 298 601 195 c 256
 601 78 517 0 353 0 c 258
 104 0 l 257
EndSplineSet
EndChar

StartChar: C
Encoding: 67 67 20
Width: 680
VWidth: 0
Flags: HW
PickledData: "(dp1
S'org.robofab.postScriptHintData'
p2
(dp3
sS'com.typemytype.robofont.guides'
p4
(tsS'com.typemytype.robofont.layerData'
p5
(dp6
S'b'
(dp7
S'name'
p8
S'C'
sS'lib'
p9
(dp10
sS'unicodes'
p11
(tsS'width'
p12
F1394.1500000000001
sS'contours'
p13
((dp14
S'points'
p15
((dp16
S'segmentType'
p17
S'curve'
p18
sS'x'
F785
sS'smooth'
p19
I01
sS'y'
F-23
s(dp20
S'y'
F-23
sS'x'
F346
sg19
I00
s(dp21
S'y'
F309
sS'x'
F108
sg19
I00
s(dp22
g17
S'curve'
p23
sS'x'
F108
sg19
I01
sS'y'
F713
s(dp24
S'y'
F1125
sS'x'
F108
sg19
I00
s(dp25
S'y'
F1483
sS'x'
F371
sg19
I00
s(dp26
g17
S'curve'
p27
sS'x'
F814
sg19
I01
sS'y'
F1483
s(dp28
S'y'
F1483
sS'x'
F995
sg19
I00
s(dp29
S'y'
F1437
sS'x'
F1144
sg19
I00
s(dp30
g17
S'curve'
p31
sS'x'
F1265
sg19
I00
sS'y'
F1329
s(dp32
g17
S'line'
p33
sS'x'
F1200
sg19
I00
sS'y'
F1219
s(dp34
S'y'
F1295
sS'x'
F1099
sg19
I00
s(dp35
S'y'
F1334
sS'x'
F969
sg19
I00
s(dp36
g17
S'curve'
p37
sS'x'
F833
sg19
I01
sS'y'
F1334
s(dp38
S'y'
F1334
sS'x'
F464
sg19
I00
s(dp39
S'y'
F1022
sS'x'
F291
sg19
I00
s(dp40
g17
S'curve'
p41
sS'x'
F291
sg19
I01
sS'y'
F712
s(dp42
S'y'
F398
sS'x'
F291
sg19
I00
s(dp43
S'y'
F125
sS'x'
F453
sg19
I00
s(dp44
g17
S'curve'
p45
sS'x'
F811
sg19
I01
sS'y'
F125
s(dp46
S'y'
F125
sS'x'
F974
sg19
I00
s(dp47
S'y'
F172
sS'x'
F1134
sg19
I00
s(dp48
g17
S'curve'
p49
sS'x'
F1243
sg19
I00
sS'y'
F268
s(dp50
g17
S'line'
p51
sS'x'
F1301
sg19
I00
sS'y'
F127
s(dp52
S'y'
F28
sS'x'
F1178
sg19
I00
s(dp53
S'y'
F-23
sS'x'
F996
sg19
I00
stp54
stp55
sS'components'
p56
(tsS'anchors'
p57
(tsss."
AnchorPoint: "top" 396 711 basechar 0
LayerCount: 2
Fore
SplineSet
399 -11 m 256
 201 -11 53 120 53 346 c 256
 53 575 195 723 400 723 c 256
 483 723 557 702 615 653 c 257
 585 604 l 257
 532 644 470 663 404 663 c 256
 236 663 129 533 129 346 c 256
 129 164 238 50 401 50 c 256
 473 50 543 71 606 115 c 257
 630 60 l 257
 561 12 481 -11 399 -11 c 256
EndSplineSet
EndChar

StartChar: D
Encoding: 68 68 27
Width: 747
VWidth: 0
Flags: HW
PickledData: "(dp1
S'org.robofab.postScriptHintData'
p2
(dp3
sS'com.typemytype.robofont.layerData'
p4
(dp5
S'b'
(dp6
S'name'
p7
S'D'
sS'lib'
p8
(dp9
sS'unicodes'
p10
(tsS'width'
p11
F1526.5999999999999
sS'contours'
p12
(tsS'components'
p13
(tsS'anchors'
p14
(tsss."
AnchorPoint: "top" 351 711 basechar 0
LayerCount: 2
Fore
SplineSet
104 0 m 257
 104 711 l 257
 283 711 l 258
 543 711 687 594 687 351 c 256
 687 124 554 0 304 0 c 258
 104 0 l 257
177 61 m 257
 307 61 l 258
 508 61 611 164 611 351 c 256
 611 551 502 650 287 650 c 258
 177 650 l 257
 177 61 l 257
EndSplineSet
EndChar

StartChar: uni007F
Encoding: 127 127 28
Width: 742
VWidth: 0
Flags: HW
PickledData: "(dp1
S'org.robofab.postScriptHintData'
p2
(dp3
s."
LayerCount: 2
Fore
SplineSet
92 0 m 257
 92 711 l 257
 651 711 l 257
 651 0 l 257
 92 0 l 257
176 61 m 257
 567 61 l 257
 567 649 l 257
 176 649 l 257
 176 61 l 257
EndSplineSet
EndChar

StartChar: uni0394
Encoding: 916 916 32
Width: 635
VWidth: 0
Flags: HW
PickledData: "(dp1
S'org.robofab.postScriptHintData'
p2
(dp3
s."
LayerCount: 2
Fore
SplineSet
96 53 m 257
 538 53 l 257
 318 618 l 257
 96 53 l 257
24 0 m 257
 24 32 l 257
 297 709 l 257
 342 709 l 257
 612 32 l 257
 612 0 l 257
 24 0 l 257
EndSplineSet
EndChar

StartChar: E
Encoding: 69 69 35
Width: 591
VWidth: 0
Flags: HW
PickledData: "(dp1
S'org.robofab.postScriptHintData'
p2
(dp3
sS'com.typemytype.robofont.layerData'
p4
(dp5
s."
AnchorPoint: "top" 313 711 basechar 0
LayerCount: 2
Fore
SplineSet
104 0 m 257
 104 711 l 257
 515 711 l 257
 515 650 l 257
 177 650 l 257
 177 396 l 257
 496 396 l 257
 496 336 l 257
 177 336 l 257
 177 61 l 257
 529 61 l 257
 529 0 l 257
 104 0 l 257
EndSplineSet
EndChar

StartChar: Eng
Encoding: 330 330 46
Width: 750
VWidth: 0
Flags: HW
PickledData: "(dp1
S'org.robofab.postScriptHintData'
p2
(dp3
sS'com.typemytype.robofont.layerData'
p4
(dp5
s."
LayerCount: 2
Fore
SplineSet
673 711 m 257
 673 14 l 257
 673 -119 634 -211 462 -211 c 257
 462 -155 l 257
 554 -155 602 -116 602 -27 c 258
 602 14 l 257
 230 533 l 257
 179 611 l 257
 179 0 l 257
 108 0 l 257
 108 711 l 257
 185 711 l 257
 544 201 l 257
 602 114 l 257
 602 711 l 257
 673 711 l 257
EndSplineSet
EndChar

StartChar: Euro
Encoding: 8364 8364 50
Width: 687
VWidth: 0
Flags: HW
PickledData: "(dp1
S'org.robofab.postScriptHintData'
p2
(dp3
sS'com.typemytype.robofont.layerData'
p4
(dp5
S'b'
(dp6
S'name'
p7
S'Euro'
p8
sS'lib'
p9
(dp10
sS'unicodes'
p11
(tsS'width'
p12
I1190
sS'contours'
p13
(tsS'components'
p14
(tsS'anchors'
p15
(tsss."
LayerCount: 2
Fore
SplineSet
421 -11 m 256
 503 -11 584 12 653 60 c 257
 629 115 l 257
 566 71 496 50 424 50 c 256
 289 50 191 129 161 260 c 257
 419 260 l 257
 423 303 l 257
 154 303 l 257
 153 317 151 331 151 346 c 256
 151 368 153 389 156 409 c 257
 437 409 l 257
 440 455 l 257
 165 455 l 257
 199 581 294 663 427 663 c 256
 493 663 555 644 608 604 c 257
 637 653 l 257
 579 702 506 723 423 723 c 256
 253 723 125 621 87 455 c 257
 -6 455 l 257
 -8 409 l 257
 79 409 l 257
 76 389 75 368 75 346 c 256
 75 331 76 317 77 303 c 257
 -5 303 l 257
 -8 260 l 257
 83 260 l 257
 116 88 250 -11 421 -11 c 256
EndSplineSet
EndChar

StartChar: F
Encoding: 70 70 51
Width: 538
VWidth: 0
Flags: HW
PickledData: "(dp1
S'org.robofab.postScriptHintData'
p2
(dp3
sS'com.typemytype.robofont.layerData'
p4
(dp5
s."
AnchorPoint: "top" 310 711 basechar 0
LayerCount: 2
Fore
SplineSet
104 0 m 257
 104 711 l 257
 499 711 l 257
 499 650 l 257
 177 650 l 257
 177 395 l 257
 474 395 l 257
 474 334 l 257
 177 334 l 257
 177 0 l 257
 104 0 l 257
EndSplineSet
EndChar

StartChar: G
Encoding: 71 71 53
Width: 742
VWidth: 0
Flags: HW
PickledData: "(dp1
S'org.robofab.postScriptHintData'
p2
(dp3
sS'com.typemytype.robofont.layerData'
p4
(dp5
S'b'
(dp6
S'name'
p7
S'G'
sS'lib'
p8
(dp9
sS'unicodes'
p10
(tsS'width'
p11
F1528.2
sS'contours'
p12
((dp13
S'points'
p14
((dp15
S'segmentType'
p16
S'curve'
p17
sS'x'
F841
sS'smooth'
p18
I01
sS'y'
F-23
s(dp19
S'y'
F-23
sS'x'
F361
sg18
I00
s(dp20
S'y'
F267
sS'x'
F108
sg18
I00
s(dp21
g16
S'curve'
p22
sS'x'
F108
sg18
I01
sS'y'
F701
s(dp23
S'y'
F1129
sS'x'
F108
sg18
I00
s(dp24
S'y'
F1483
sS'x'
F382
sg18
I00
s(dp25
g16
S'curve'
p26
sS'x'
F852
sg18
I01
sS'y'
F1483
s(dp27
S'y'
F1483
sS'x'
F1059
sg18
I00
s(dp28
S'y'
F1415
sS'x'
F1233
sg18
I00
s(dp29
g16
S'curve'
p30
sS'x'
F1334
sg18
I00
sS'y'
F1308
s(dp31
g16
S'line'
p32
sS'x'
F1262
sg18
I00
sS'y'
F1196
s(dp33
S'y'
F1291
sS'x'
F1164
sg18
I00
s(dp34
S'y'
F1334
sS'x'
F1034
sg18
I00
s(dp35
g16
S'curve'
p36
sS'x'
F848
sg18
I01
sS'y'
F1334
s(dp37
S'y'
F1334
sS'x'
F477
sg18
I00
s(dp38
S'y'
F1033
sS'x'
F286
sg18
I00
s(dp39
g16
S'curve'
p40
sS'x'
F286
sg18
I01
sS'y'
F714
s(dp41
S'y'
F365
sS'x'
F286
sg18
I00
s(dp42
S'y'
F125
sS'x'
F472
sg18
I00
s(dp43
g16
S'curve'
p44
sS'x'
F855
sg18
I01
sS'y'
F125
s(dp45
S'y'
F125
sS'x'
F968
sg18
I00
s(dp46
S'y'
F143
sS'x'
F1088
sg18
I00
s(dp47
g16
S'curve'
p48
sS'x'
F1184
sg18
I00
sS'y'
F182
s(dp49
g16
S'line'
p50
sS'x'
F1184
sg18
I00
sS'y'
F608
s(dp51
g16
S'line'
p52
sS'x'
F811
sg18
I00
sS'y'
F608
s(dp53
g16
S'line'
p54
sS'x'
F811
sg18
I00
sS'y'
F757
s(dp55
g16
S'line'
p56
sS'x'
F1356
sg18
I00
sS'y'
F757
s(dp57
g16
S'line'
p58
sS'x'
F1356
sg18
I00
sS'y'
F81
s(dp59
S'y'
F6
sS'x'
F1195
sg18
I00
s(dp60
S'y'
F-23
sS'x'
F1012
sg18
I00
stp61
stp62
sS'components'
p63
(tsS'anchors'
p64
(tsss."
AnchorPoint: "top" 413 711 basechar 0
LayerCount: 2
Fore
SplineSet
410 -10 m 256
 184 -10 53 129 53 344 c 256
 53 570 198 723 416 723 c 256
 478 723 562 715 647 652 c 257
 617 601 l 257
 543 651 475 663 417 663 c 256
 242 663 128 534 128 346 c 256
 128 168 230 50 412 50 c 256
 471 50 541 59 590 80 c 257
 590 305 l 257
 401 305 l 257
 401 366 l 257
 661 366 l 257
 661 40 l 257
 585 4 494 -10 410 -10 c 256
EndSplineSet
EndChar

StartChar: H
Encoding: 72 72 60
Width: 760
VWidth: 0
Flags: HW
PickledData: "(dp1
S'org.robofab.postScriptHintData'
p2
(dp3
sS'com.typemytype.robofont.layerData'
p4
(dp5
S'b'
(dp6
S'name'
p7
S'H'
sS'lib'
p8
(dp9
sS'unicodes'
p10
(tsS'width'
p11
F1576.45
sS'contours'
p12
(tsS'components'
p13
(tsS'anchors'
p14
(tsss."
AnchorPoint: "top" 383 711 basechar 0
LayerCount: 2
Fore
SplineSet
104 0 m 257
 104 711 l 257
 178 711 l 257
 178 394 l 257
 585 394 l 257
 585 711 l 257
 657 711 l 257
 657 0 l 257
 584 0 l 257
 584 333 l 257
 177 333 l 257
 177 0 l 257
 104 0 l 257
EndSplineSet
EndChar

StartChar: Hbar
Encoding: 294 294 61
Width: 771
VWidth: 0
Flags: HW
PickledData: "(dp1
S'org.robofab.postScriptHintData'
p2
(dp3
sS'com.typemytype.robofont.layerData'
p4
(dp5
S'b'
(dp6
S'name'
p7
S'Hbar'
p8
sS'lib'
p9
(dp10
sS'unicodes'
p11
(tsS'width'
p12
F1532.55
sS'contours'
p13
(tsS'components'
p14
(tsS'anchors'
p15
(tsss."
LayerCount: 2
Fore
SplineSet
57 582 m 1
 57 622 l 1
 104 622 l 1
 104 711 l 1
 178 711 l 1
 178 622 l 1
 585 622 l 1
 585 711 l 1
 657 711 l 1
 657 622 l 1
 711 622 l 1
 711 582 l 1
 657 582 l 1
 657 0 l 1
 584 0 l 1
 584 333 l 1
 177 333 l 1
 177 0 l 1
 104 0 l 1
 104 582 l 1
 57 582 l 1
585 582 m 1
 178 582 l 1
 178 394 l 1
 585 394 l 1
 585 582 l 1
EndSplineSet
EndChar

StartChar: I
Encoding: 73 73 63
Width: 291
VWidth: 0
Flags: HW
PickledData: "(dp1
S'org.robofab.postScriptHintData'
p2
(dp3
sS'com.typemytype.robofont.layerData'
p4
(dp5
s."
AnchorPoint: "top" 151 711 basechar 0
LayerCount: 2
Fore
SplineSet
112 0 m 257
 112 711 l 257
 186 711 l 257
 186 0 l 257
 112 0 l 257
EndSplineSet
EndChar

StartChar: J
Encoding: 74 74 77
Width: 354
VWidth: 0
Flags: HW
PickledData: "(dp1
S'org.robofab.postScriptHintData'
p2
(dp3
sS'com.typemytype.robofont.layerData'
p4
(dp5
S'b'
(dp6
S'name'
p7
S'J'
sS'lib'
p8
(dp9
sS'unicodes'
p10
(tsS'width'
p11
F731.54999999999995
sS'contours'
p12
(tsS'components'
p13
(tsS'anchors'
p14
(tsss."
AnchorPoint: "top" 201 711 basechar 0
LayerCount: 2
Fore
SplineSet
79 -156 m 256
 51 -156 22 -150 -2 -145 c 257
 5 -87 l 257
 26 -91 51 -96 74 -96 c 256
 157 -96 179 -61 179 62 c 258
 179 711 l 257
 251 711 l 257
 251 62 l 258
 251 -108 194 -156 79 -156 c 256
EndSplineSet
EndChar

StartChar: K
Encoding: 75 75 79
Width: 617
VWidth: 0
Flags: HW
PickledData: "(dp1
S'org.robofab.postScriptHintData'
p2
(dp3
sS'com.typemytype.robofont.layerData'
p4
(dp5
S'b'
(dp6
S'name'
p7
S'K'
sS'lib'
p8
(dp9
sS'unicodes'
p10
(tsS'width'
p11
F1289.95
sS'contours'
p12
(tsS'components'
p13
(tsS'anchors'
p14
(tsss."
AnchorPoint: "top" 322 711 basechar 0
LayerCount: 2
Fore
SplineSet
104 0 m 257
 104 711 l 257
 177 711 l 257
 177 384 l 257
 504 711 l 257
 595 711 l 257
 252 369 l 257
 617 0 l 257
 527 0 l 257
 177 351 l 257
 177 0 l 257
 104 0 l 257
EndSplineSet
EndChar

StartChar: L
Encoding: 76 76 82
Width: 525
VWidth: 0
Flags: HW
PickledData: "(dp1
S'org.robofab.postScriptHintData'
p2
(dp3
sS'com.typemytype.robofont.layerData'
p4
(dp5
s."
AnchorPoint: "top" 146 711 basechar 0
AnchorPoint: "caron.alt" 150 501 basechar 0
LayerCount: 2
Fore
SplineSet
104 0 m 257
 104 711 l 257
 177 711 l 257
 177 61 l 257
 508 61 l 257
 508 0 l 257
 104 0 l 257
EndSplineSet
EndChar

StartChar: Lslash
Encoding: 321 321 88
Width: 541
VWidth: 0
Flags: HW
PickledData: "(dp1
S'org.robofab.postScriptHintData'
p2
(dp3
sS'com.typemytype.robofont.layerData'
p4
(dp5
s."
LayerCount: 2
Fore
SplineSet
28 247 m 257
 28 304 l 257
 104 351 l 257
 104 711 l 257
 177 711 l 257
 177 396 l 257
 319 485 l 257
 319 428 l 257
 177 339 l 257
 177 61 l 257
 508 61 l 257
 508 0 l 257
 104 0 l 257
 104 294 l 257
 28 247 l 257
EndSplineSet
EndChar

StartChar: M
Encoding: 77 77 89
Width: 920
VWidth: 0
Flags: HW
PickledData: "(dp1
S'org.robofab.postScriptHintData'
p2
(dp3
sS'com.typemytype.robofont.layerData'
p4
(dp5
S'b'
(dp6
S'name'
p7
S'M'
sS'lib'
p8
(dp9
sS'unicodes'
p10
(tsS'width'
p11
F1905.0999999999999
sS'contours'
p12
(tsS'components'
p13
(tsS'anchors'
p14
(tsss."
AnchorPoint: "top" 464 711 basechar 0
LayerCount: 2
Fore
SplineSet
104 0 m 257
 104 711 l 257
 194 711 l 257
 283 505 373 302 460 95 c 257
 549 303 642 505 733 711 c 257
 817 711 l 257
 817 0 l 257
 747 0 l 257
 747 592 l 257
 717 517 l 257
 484 0 l 257
 436 0 l 257
 209 515 l 257
 174 604 l 257
 174 0 l 257
 104 0 l 257
EndSplineSet
EndChar

StartChar: N
Encoding: 78 78 91
Width: 773
VWidth: 0
Flags: HW
PickledData: "(dp1
S'org.robofab.postScriptHintData'
p2
(dp3
sS'com.typemytype.robofont.layerData'
p4
(dp5
S'b'
(dp6
S'name'
p7
S'N'
sS'lib'
p8
(dp9
sS'unicodes'
p10
(tsS'width'
p11
F1578.1500000000001
sS'contours'
p12
(tsS'components'
p13
(tsS'anchors'
p14
(tsss."
AnchorPoint: "top" 397 711 basechar 0
LayerCount: 2
Fore
SplineSet
104 0 m 257
 104 711 l 257
 180 711 l 257
 542 187 l 257
 600 99 l 257
 600 711 l 257
 670 711 l 257
 670 0 l 257
 595 0 l 257
 231 518 l 257
 174 608 l 257
 174 0 l 257
 104 0 l 257
EndSplineSet
EndChar

StartChar: O
Encoding: 79 79 98
Width: 780
VWidth: 0
Flags: HW
PickledData: "(dp1
S'org.robofab.postScriptHintData'
p2
(dp3
sS'com.typemytype.robofont.guides'
p4
((dp5
S'y'
I727
sS'x'
I231
sS'magnetic'
p6
I5
sS'angle'
p7
I0
sS'isGlobal'
p8
I00
s(dp9
S'y'
I1254
sS'x'
I804
sg6
I5
sg7
F90
sg8
I00
stp10
sS'com.typemytype.robofont.layerData'
p11
(dp12
S'b'
(dp13
S'name'
p14
S'O'
sS'lib'
p15
(dp16
sS'unicodes'
p17
(tsS'width'
p18
F1630.8
sS'contours'
p19
(tsS'components'
p20
(tsS'anchors'
p21
(tsss."
AnchorPoint: "top" 392 711 basechar 0
LayerCount: 2
Fore
SplineSet
392 -10 m 256
 183 -10 53 132 53 354 c 256
 53 576 182 723 392 723 c 256
 597 723 728 576 728 354 c 256
 728 132 600 -10 392 -10 c 256
391 50 m 256
 556 50 650 169 650 354 c 256
 650 539 557 663 392 663 c 256
 227 663 130 539 130 354 c 256
 130 169 226 50 391 50 c 256
EndSplineSet
EndChar

StartChar: OE
Encoding: 338 338 99
Width: 997
VWidth: 0
Flags: HW
PickledData: "(dp1
S'org.robofab.postScriptHintData'
p2
(dp3
sS'com.typemytype.robofont.layerData'
p4
(dp5
S'b'
(dp6
S'name'
p7
S'OE'
p8
sS'lib'
p9
(dp10
sS'unicodes'
p11
(tsS'width'
p12
F2049.1500000000001
sS'contours'
p13
(tsS'components'
p14
(tsS'anchors'
p15
(tsss."
LayerCount: 2
Fore
SplineSet
400 48 m 256
 481 48 537 81 567 120 c 257
 567 598 l 257
 537 631 482 663 404 663 c 256
 214 663 130 508 130 354 c 256
 130 193 204 48 400 48 c 256
567 56 m 257
 538 22 474 -10 391 -10 c 256
 169 -10 53 143 53 355 c 256
 53 566 183 724 399 724 c 256
 464 724 529 702 567 665 c 257
 567 711 l 257
 955 711 l 257
 955 646 l 257
 641 646 l 257
 641 396 l 257
 936 396 l 257
 936 332 l 257
 640 332 l 257
 640 64 l 257
 970 64 l 257
 970 0 l 257
 567 0 l 257
 567 56 l 257
EndSplineSet
EndChar

StartChar: uni03A9
Encoding: 937 937 111
Width: 782
VWidth: 0
Flags: HW
PickledData: "(dp1
S'org.robofab.postScriptHintData'
p2
(dp3
sS'com.typemytype.robofont.layerData'
p4
(dp5
s."
LayerCount: 2
Fore
SplineSet
60 0 m 257
 53 57 l 257
 229 57 l 257
 131 125 60 236 60 377 c 256
 60 577 204 707 398 707 c 256
 599 707 726 564 726 376 c 256
 726 232 640 123 554 57 c 257
 728 57 l 257
 722 0 l 257
 475 0 l 257
 474 54 l 257
 575 121 649 231 649 367 c 256
 649 516 564 644 396 644 c 256
 243 644 136 534 136 369 c 256
 136 234 206 121 310 54 c 257
 310 0 l 257
 60 0 l 257
EndSplineSet
EndChar

StartChar: Oslash
Encoding: 216 216 113
Width: 780
VWidth: 0
Flags: HW
PickledData: "(dp1
S'org.robofab.postScriptHintData'
p2
(dp3
sS'com.typemytype.robofont.layerData'
p4
(dp5
S'b'
(dp6
S'name'
p7
S'Oslash'
p8
sS'lib'
p9
(dp10
sS'unicodes'
p11
(tsS'width'
p12
F1663
sS'contours'
p13
(tsS'components'
p14
(tsS'anchors'
p15
(tsss."
LayerCount: 2
Fore
SplineSet
392 -10 m 256
 600 -10 728 132 728 354 c 256
 728 492 677 602 589 665 c 257
 638 756 l 257
 601 776 l 257
 553 687 l 257
 507 711 452 723 392 723 c 256
 182 723 53 576 53 354 c 256
 53 210 107 100 202 40 c 257
 153 -50 l 257
 191 -70 l 257
 240 20 l 257
 284 0 335 -10 392 -10 c 256
557 605 m 257
 618 551 650 463 650 354 c 256
 650 169 556 50 391 50 c 256
 345 50 305 59 270 76 c 257
 557 605 l 257
522 630 m 257
 234 99 l 257
 167 151 130 240 130 354 c 256
 130 539 227 663 392 663 c 256
 442 663 486 651 522 630 c 257
EndSplineSet
EndChar

StartChar: P
Encoding: 80 80 116
Width: 605
VWidth: 0
Flags: HW
PickledData: "(dp1
S'org.robofab.postScriptHintData'
p2
(dp3
sS'com.typemytype.robofont.layerData'
p4
(dp5
S'b'
(dp6
S'name'
p7
S'P'
sS'lib'
p8
(dp9
sS'unicodes'
p10
(tsS'width'
p11
F1252.6500000000001
sS'contours'
p12
((dp13
S'points'
p14
((dp15
S'segmentType'
p16
S'line'
p17
sS'x'
F360
sS'smooth'
p18
I00
sS'y'
F828
s(dp19
g16
S'line'
p20
sS'x'
F580
sg18
I01
sS'y'
F828
s(dp21
S'y'
F828
sS'x'
F775
sg18
I00
s(dp22
S'y'
F881
sS'x'
F973
sg18
I00
s(dp23
g16
S'curve'
p24
sS'x'
F973
sg18
I01
sS'y'
F1077
s(dp25
S'y'
F1272
sS'x'
F973
sg18
I00
s(dp26
S'y'
F1308
sS'x'
F807
sg18
I00
s(dp27
g16
S'curve'
p28
sS'x'
F592
sg18
I01
sS'y'
F1308
s(dp29
g16
S'line'
p30
sS'x'
F360
sg18
I00
sS'y'
F1308
stp31
s(dp32
g14
((dp33
g16
S'line'
p34
sS'x'
F360
sg18
I00
sS'y'
F148
s(dp35
g16
S'line'
p36
sS'x'
F667
sg18
I01
sS'y'
F148
s(dp37
S'y'
F148
sS'x'
F906
sg18
I00
s(dp38
S'y'
F230
sS'x'
F1041
sg18
I00
s(dp39
g16
S'curve'
p40
sS'x'
F1041
sg18
I01
sS'y'
F406
s(dp41
S'y'
F617
sS'x'
F1041
sg18
I00
s(dp42
S'y'
F680
sS'x'
F889
sg18
I00
s(dp43
g16
S'curve'
p44
sS'x'
F610
sg18
I01
sS'y'
F680
s(dp45
g16
S'line'
p46
sS'x'
F360
sg18
I00
sS'y'
F680
stp47
s(dp48
g14
((dp49
g16
S'line'
p50
sS'x'
F188
sg18
I00
sS'y'
F0
s(dp51
g16
S'line'
p52
sS'x'
F188
sg18
I00
sS'y'
F1456
s(dp53
g16
S'line'
p54
sS'x'
F502
sg18
I01
sS'y'
F1456
s(dp55
S'y'
F1456
sS'x'
F765
sg18
I00
s(dp56
S'y'
F1443
sS'x'
F1154
sg18
I00
s(dp57
g16
S'curve'
p58
sS'x'
F1154
sg18
I01
sS'y'
F1105
s(dp59
S'y'
F944
sS'x'
F1154
sg18
I00
s(dp60
S'y'
F814
sS'x'
F1045
sg18
I00
s(dp61
g16
S'curve'
p62
sS'x'
F889
sg18
I00
sS'y'
F769
s(dp63
S'y'
F734
sS'x'
F1086
sg18
I00
s(dp64
S'y'
F605
sS'x'
F1223
sg18
I00
s(dp65
g16
S'curve'
p66
sS'x'
F1223
sg18
I01
sS'y'
F403
s(dp67
S'y'
F189
sS'x'
F1223
sg18
I00
s(dp68
S'y'
F0
sS'x'
F1059
sg18
I00
s(dp69
g16
S'curve'
p70
sS'x'
F739
sg18
I01
sS'y'
F0
stp71
stp72
sS'components'
p73
(tsS'anchors'
p74
(tsss."
AnchorPoint: "top" 316 711 basechar 0
LayerCount: 2
Fore
SplineSet
177 393 m 257
 321 393 l 258
 446 393 498 427 498 521 c 256
 498 619 442 651 328 651 c 256
 323 651 317 650 312 650 c 258
 177 650 l 257
 177 393 l 257
104 0 m 257
 104 711 l 257
 312 711 l 258
 479 711 571 667 571 521 c 256
 571 383 486 333 321 333 c 258
 177 333 l 257
 177 0 l 257
 104 0 l 257
EndSplineSet
EndChar

StartChar: Q
Encoding: 81 81 118
Width: 780
VWidth: 0
Flags: HW
PickledData: "(dp1
S'org.robofab.postScriptHintData'
p2
(dp3
sS'com.typemytype.robofont.layerData'
p4
(dp5
S'b'
(dp6
S'name'
p7
S'Q'
sS'lib'
p8
(dp9
sS'unicodes'
p10
(tsS'width'
p11
F1628.2
sS'contours'
p12
(tsS'components'
p13
(tsS'anchors'
p14
(tsss."
LayerCount: 2
Fore
SplineSet
584 -204 m 257
 584 -204 474 -89 426 16 c 257
 487 28 l 257
 532 -62 627 -160 627 -160 c 257
 584 -204 l 257
EndSplineSet
Refer: 98 79 N 1 0 0 1 0 0 2
EndChar

StartChar: R
Encoding: 82 82 119
Width: 667
VWidth: 0
Flags: HW
PickledData: "(dp1
S'org.robofab.postScriptHintData'
p2
(dp3
sS'com.typemytype.robofont.guides'
p4
(tsS'com.typemytype.robofont.layerData'
p5
(dp6
S'b'
(dp7
S'name'
p8
S'R'
sS'lib'
p9
(dp10
sS'unicodes'
p11
(tsS'width'
p12
F1341
sS'contours'
p13
((dp14
S'points'
p15
((dp16
S'segmentType'
p17
S'line'
p18
sS'x'
F360
sS'smooth'
p19
I00
sS'y'
F799
s(dp20
g17
S'line'
p21
sS'x'
F615
sg19
I01
sS'y'
F799
s(dp22
S'y'
F799
sS'x'
F795
sg19
I00
s(dp23
S'y'
F854
sS'x'
F932
sg19
I00
s(dp24
g17
S'curve'
p25
sS'x'
F932
sg19
I01
sS'y'
F1058
s(dp26
S'y'
F1259
sS'x'
F932
sg19
I00
s(dp27
S'y'
F1308
sS'x'
F833
sg19
I00
s(dp28
g17
S'curve'
p29
sS'x'
F626
sg19
I01
sS'y'
F1308
s(dp30
g17
S'line'
p31
sS'x'
F360
sg19
I00
sS'y'
F1308
stp32
s(dp33
g15
((dp34
g17
S'line'
p35
sS'x'
F188
sg19
I00
sS'y'
F0
s(dp36
g17
S'line'
p37
sS'x'
F188
sg19
I00
sS'y'
F1456
s(dp38
g17
S'line'
p39
sS'x'
F533
sg19
I01
sS'y'
F1456
s(dp40
S'y'
F1456
sS'x'
F771
sg19
I00
s(dp41
S'y'
F1452
sS'x'
F1114
sg19
I00
s(dp42
g17
S'curve'
p43
sS'x'
F1114
sg19
I01
sS'y'
F1074
s(dp44
S'y'
F890
sS'x'
F1114
sg19
I00
s(dp45
S'y'
F762
sS'x'
F1035
sg19
I00
s(dp46
g17
S'curve'
p47
sS'x'
F847
sg19
I00
sS'y'
F715
s(dp48
g17
S'line'
p49
sS'x'
F848
sg19
I00
sS'y'
F715
s(dp50
S'y'
F662
sS'x'
F1012
sg19
I00
s(dp51
S'y'
F510
sS'x'
F1039
sg19
I00
s(dp52
g17
S'curve'
p53
sS'x'
F1159
sg19
I01
sS'y'
F214
s(dp54
g17
S'line'
p55
sS'x'
F1246
sg19
I00
sS'y'
F0
s(dp56
g17
S'line'
p57
sS'x'
F1061
sg19
I00
sS'y'
F0
s(dp58
g17
S'line'
p59
sS'x'
F896
sg19
I01
sS'y'
F419
s(dp60
S'y'
F600
sS'x'
F825
sg19
I00
s(dp61
S'y'
F652
sS'x'
F797
sg19
I00
s(dp62
g17
S'curve'
p63
sS'x'
F619
sg19
I01
sS'y'
F652
s(dp64
g17
S'line'
p65
sS'x'
F360
sg19
I00
sS'y'
F652
s(dp66
g17
S'line'
p67
sS'x'
F360
sg19
I00
sS'y'
F0
stp68
stp69
sS'components'
p70
(tsS'anchors'
p71
(tsss."
AnchorPoint: "top" 304 711 basechar 0
LayerCount: 2
Fore
SplineSet
177 382 m 257
 330 382 l 258
 433 382 490 424 490 521 c 256
 490 616 442 651 338 651 c 256
 334 651 329 650 325 650 c 258
 177 650 l 257
 177 382 l 257
104 0 m 257
 104 711 l 257
 324 711 l 258
 475 711 564 666 564 524 c 256
 564 433 520 364 422 350 c 257
 492 334 509 295 540 212 c 258
 619 0 l 257
 544 0 l 257
 470 204 l 258
 436 297 419 322 335 322 c 258
 177 322 l 257
 177 0 l 257
 104 0 l 257
EndSplineSet
EndChar

StartChar: S
Encoding: 83 83 125
Width: 572
VWidth: 0
Flags: HW
PickledData: "(dp1
S'org.robofab.postScriptHintData'
p2
(dp3
sS'com.typemytype.robofont.layerData'
p4
(dp5
S'b'
(dp6
S'name'
p7
S'S'
sS'lib'
p8
(dp9
sS'unicodes'
p10
(tsS'width'
p11
F1211
sS'contours'
p12
((dp13
S'points'
p14
((dp15
S'segmentType'
p16
S'curve'
p17
sS'x'
F596
sS'smooth'
p18
I01
sS'y'
F-23
s(dp19
S'y'
F-23
sS'x'
F321
sg18
I00
s(dp20
S'y'
F120
sS'x'
F158
sg18
I00
s(dp21
g16
S'curve'
p22
sS'x'
F140
sg18
I00
sS'y'
F141
s(dp23
g16
S'line'
p24
sS'x'
F219
sg18
I00
sS'y'
F271
s(dp25
S'y'
F243
sS'x'
F256
sg18
I00
s(dp26
S'y'
F125
sS'x'
F393
sg18
I00
s(dp27
g16
S'curve'
p28
sS'x'
F595
sg18
I01
sS'y'
F125
s(dp29
S'y'
F125
sS'x'
F797
sg18
I00
s(dp30
S'y'
F204
sS'x'
F898
sg18
I00
s(dp31
g16
S'curve'
p32
sS'x'
F898
sg18
I01
sS'y'
F360
s(dp33
S'y'
F536
sS'x'
F898
sg18
I00
s(dp34
S'y'
F601
sS'x'
F709
sg18
I00
s(dp35
g16
S'curve'
p36
sS'x'
F521
sg18
I01
sS'y'
F681
s(dp37
S'y'
F761
sS'x'
F333
sg18
I00
s(dp38
S'y'
F857
sS'x'
F145
sg18
I00
s(dp39
g16
S'curve'
p40
sS'x'
F145
sg18
I01
sS'y'
F1095
s(dp41
S'y'
F1350
sS'x'
F145
sg18
I00
s(dp42
S'y'
F1483
sS'x'
F357
sg18
I00
s(dp43
g16
S'curve'
p44
sS'x'
F620
sg18
I01
sS'y'
F1483
s(dp45
S'y'
F1483
sS'x'
F891
sg18
I00
s(dp46
S'y'
F1362
sS'x'
F1009
sg18
I00
s(dp47
g16
S'curve'
p48
sS'x'
F1034
sg18
I00
sS'y'
F1335
s(dp49
g16
S'line'
p50
sS'x'
F951
sg18
I00
sS'y'
F1217
s(dp51
S'y'
F1242
sS'x'
F921
sg18
I00
s(dp52
S'y'
F1334
sS'x'
F819
sg18
I00
s(dp53
g16
S'curve'
p54
sS'x'
F640
sg18
I01
sS'y'
F1334
s(dp55
S'y'
F1334
sS'x'
F478
sg18
I00
s(dp56
S'y'
F1270
sS'x'
F328
sg18
I00
s(dp57
g16
S'curve'
p58
sS'x'
F328
sg18
I01
sS'y'
F1105
s(dp59
S'y'
F934
sS'x'
F328
sg18
I00
s(dp60
S'y'
F868
sS'x'
F515
sg18
I00
s(dp61
g16
S'curve'
p62
sS'x'
F703
sg18
I01
sS'y'
F785
s(dp63
S'y'
F702
sS'x'
F891
sg18
I00
s(dp64
S'y'
F602
sS'x'
F1078
sg18
I00
s(dp65
g16
S'curve'
p66
sS'x'
F1078
sg18
I01
sS'y'
F364
s(dp67
S'y'
F78
sS'x'
F1078
sg18
I00
s(dp68
S'y'
F-23
sS'x'
F868
sg18
I00
stp69
stp70
sS'components'
p71
(tsS'anchors'
p72
(tsss."
AnchorPoint: "top" 300 711 basechar 0
LayerCount: 2
Fore
SplineSet
523 191 m 256
 523 62 431 -10 292 -10 c 256
 164 -10 88 48 66 69 c 257
 99 121 l 257
 126 99 192 50 290 50 c 256
 394 50 450 103 450 189 c 256
 450 264 421 295 304 329 c 256
 300 330 251 344 246 345 c 256
 127 378 64 425 64 540 c 256
 64 658 156 723 292 723 c 256
 423 723 477 675 498 655 c 257
 463 605 l 257
 441 627 386 663 297 663 c 256
 201 663 140 621 140 542 c 256
 140 465 164 437 264 409 c 256
 268 408 316 395 321 394 c 256
 481 350 523 297 523 191 c 256
EndSplineSet
EndChar

StartChar: T
Encoding: 84 84 132
Width: 547
VWidth: 0
Flags: HW
PickledData: "(dp1
S'org.robofab.postScriptHintData'
p2
(dp3
sS'com.typemytype.robofont.layerData'
p4
(dp5
s."
AnchorPoint: "top" 273 711 basechar 0
LayerCount: 2
Fore
SplineSet
236 0 m 257
 236 650 l 257
 4 650 l 257
 4 711 l 257
 542 711 l 257
 542 650 l 257
 310 650 l 257
 310 0 l 257
 236 0 l 257
EndSplineSet
EndChar

StartChar: Thorn
Encoding: 222 222 137
Width: 618
VWidth: 0
Flags: HW
PickledData: "(dp1
S'org.robofab.postScriptHintData'
p2
(dp3
sS'com.typemytype.robofont.layerData'
p4
(dp5
s."
LayerCount: 2
Fore
SplineSet
175 236 m 257
 312 236 l 258
 424 236 504 280 504 379 c 256
 504 498 420 527 291 527 c 258
 175 527 l 257
 175 236 l 257
101 0 m 257
 101 711 l 257
 175 711 l 257
 175 591 l 257
 284 591 l 258
 450 591 583 555 583 381 c 256
 583 234 469 172 314 172 c 258
 175 172 l 257
 175 0 l 257
 101 0 l 257
EndSplineSet
EndChar

StartChar: U
Encoding: 85 85 138
Width: 726
VWidth: 0
Flags: HW
PickledData: "(dp1
S'org.robofab.postScriptHintData'
p2
(dp3
sS'com.typemytype.robofont.layerData'
p4
(dp5
S'b'
(dp6
S'name'
p7
S'U'
sS'lib'
p8
(dp9
sS'unicodes'
p10
(tsS'width'
p11
F1496.9000000000001
sS'contours'
p12
(tsS'components'
p13
(tsS'anchors'
p14
(tsss."
AnchorPoint: "top" 365 711 basechar 0
LayerCount: 2
Fore
SplineSet
360 -10 m 256
 166 -10 84 95 84 262 c 258
 84 711 l 257
 157 711 l 257
 157 259 l 258
 157 118 228 50 361 50 c 256
 492 50 564 117 564 258 c 258
 564 711 l 257
 637 711 l 257
 637 263 l 257
 636 94 551 -10 360 -10 c 256
EndSplineSet
EndChar

StartChar: V
Encoding: 86 86 152
Width: 666
VWidth: 0
Flags: HW
PickledData: "(dp1
S'org.robofab.postScriptHintData'
p2
(dp3
sS'com.typemytype.robofont.layerData'
p4
(dp5
S'b'
(dp6
S'name'
p7
S'V'
sS'lib'
p8
(dp9
sS'unicodes'
p10
(tsS'width'
p11
F1320.1500000000001
sS'contours'
p12
(tsS'components'
p13
(tsS'anchors'
p14
(tsss."
LayerCount: 2
Fore
SplineSet
294 0 m 257
 30 711 l 257
 109 711 l 257
 184 500 260 289 335 78 c 257
 408 291 485 500 560 711 c 257
 636 711 l 257
 375 0 l 257
 294 0 l 257
EndSplineSet
EndChar

StartChar: W
Encoding: 87 87 153
Width: 990
VWidth: 0
Flags: HW
PickledData: "(dp1
S'org.robofab.postScriptHintData'
p2
(dp3
sS'com.typemytype.robofont.layerData'
p4
(dp5
S'b'
(dp6
S'name'
p7
S'W'
sS'lib'
p8
(dp9
sS'unicodes'
p10
(tsS'width'
p11
F1988.8499999999999
sS'contours'
p12
(tsS'components'
p13
(tsS'anchors'
p14
(tsss."
AnchorPoint: "top" 501 711 basechar 0
LayerCount: 2
Fore
SplineSet
233 0 m 257
 44 711 l 257
 122 711 l 257
 260 163 l 257
 278 78 l 257
 336 293 402 500 463 711 c 257
 536 711 l 257
 699 161 l 257
 721 83 l 257
 771 293 822 501 872 711 c 257
 947 711 l 257
 764 0 l 257
 678 0 l 257
 499 615 l 257
 318 0 l 257
 233 0 l 257
EndSplineSet
EndChar

StartChar: X
Encoding: 88 88 158
Width: 639
VWidth: 0
Flags: HW
PickledData: "(dp1
S'org.robofab.postScriptHintData'
p2
(dp3
sS'com.typemytype.robofont.layerData'
p4
(dp5
S'b'
(dp6
S'name'
p7
S'X'
sS'lib'
p8
(dp9
sS'unicodes'
p10
(tsS'width'
p11
F1257.7
sS'contours'
p12
(tsS'components'
p13
(tsS'anchors'
p14
(tsss."
LayerCount: 2
Fore
SplineSet
38 0 m 257
 282 361 l 257
 46 711 l 257
 131 711 l 257
 325 417 l 257
 514 711 l 257
 594 711 l 257
 366 364 l 257
 603 0 l 257
 521 0 l 257
 324 306 l 257
 120 0 l 257
 38 0 l 257
EndSplineSet
EndChar

StartChar: Y
Encoding: 89 89 159
Width: 604
VWidth: 0
Flags: HW
PickledData: "(dp1
S'org.robofab.postScriptHintData'
p2
(dp3
sS'com.typemytype.robofont.layerData'
p4
(dp5
S'b'
(dp6
S'name'
p7
S'Y'
sS'lib'
p8
(dp9
sS'unicodes'
p10
(tsS'width'
p11
F1225.45
sS'contours'
p12
(tsS'components'
p13
(tsS'anchors'
p14
(tsss."
AnchorPoint: "top" 306 711 basechar 0
LayerCount: 2
Fore
SplineSet
264 0 m 257
 264 285 l 257
 24 711 l 257
 103 711 l 257
 302 348 l 257
 504 711 l 257
 582 711 l 257
 337 286 l 257
 337 0 l 257
 264 0 l 257
EndSplineSet
EndChar

StartChar: Z
Encoding: 90 90 166
Width: 577
VWidth: 0
Flags: HW
PickledData: "(dp1
S'org.robofab.postScriptHintData'
p2
(dp3
sS'com.typemytype.robofont.layerData'
p4
(dp5
S'b'
(dp6
S'name'
p7
S'Z'
sS'lib'
p8
(dp9
sS'unicodes'
p10
(tsS'width'
p11
F1179.45
sS'contours'
p12
(tsS'components'
p13
(tsS'anchors'
p14
(tsss."
AnchorPoint: "top" 301 711 basechar 0
LayerCount: 2
Fore
SplineSet
57 0 m 257
 57 40 l 257
 434 650 l 257
 73 650 l 257
 73 711 l 257
 527 711 l 257
 527 673 l 257
 148 61 l 257
 525 61 l 257
 525 0 l 257
 57 0 l 257
EndSplineSet
EndChar

StartChar: a
Encoding: 97 97 170
Width: 616
VWidth: 0
Flags: HW
PickledData: "(dp1
S'org.robofab.postScriptHintData'
p2
(dp3
sS'com.typemytype.robofont.layerData'
p4
(dp5
S'b'
(dp6
S'name'
p7
S'a'
sS'lib'
p8
(dp9
sS'unicodes'
p10
(tsS'width'
p11
I1268
sS'contours'
p12
((dp13
S'points'
p14
((dp15
S'segmentType'
p16
S'curve'
p17
sS'x'
F595
sS'smooth'
p18
I01
sS'y'
F-22
s(dp19
S'y'
F-22
sS'x'
F262
sg18
I00
s(dp20
S'y'
F221
sS'x'
F100
sg18
I00
s(dp21
g16
S'curve'
p22
sS'x'
F100
sg18
I01
sS'y'
F518
s(dp23
S'y'
F824
sS'x'
F100
sg18
I00
s(dp24
S'y'
F1052
sS'x'
F287
sg18
I00
s(dp25
g16
S'curve'
p26
sS'x'
F603
sg18
I01
sS'y'
F1052
s(dp27
S'y'
F1052
sS'x'
F816
sg18
I00
s(dp28
S'y'
F903
sS'x'
F905
sg18
I00
s(dp29
g16
S'curve'
p30
sS'x'
F928
sg18
I00
sS'y'
F847
s(dp31
g16
S'line'
p32
sS'x'
F928
sg18
I00
sS'y'
F1026
s(dp33
g16
S'line'
p34
sS'x'
F1092
sg18
I00
sS'y'
F1026
s(dp35
g16
S'line'
p36
sS'x'
F1092
sg18
I00
sS'y'
F0
s(dp37
g16
S'line'
p38
sS'x'
F928
sg18
I00
sS'y'
F0
s(dp39
g16
S'line'
p40
sS'x'
F928
sg18
I00
sS'y'
F185
s(dp41
S'y'
F82
sS'x'
F881
sg18
I00
s(dp42
S'y'
F-22
sS'x'
F769
sg18
I00
stp43
s(dp44
g14
((dp45
g16
S'curve'
p46
sS'x'
F608
sg18
I01
sS'y'
F918
s(dp47
S'y'
F918
sS'x'
F359
sg18
I00
s(dp48
S'y'
F725
sS'x'
F270
sg18
I00
s(dp49
g16
S'curve'
p50
sS'x'
F270
sg18
I01
sS'y'
F516
s(dp51
S'y'
F308
sS'x'
F270
sg18
I00
s(dp52
S'y'
F112
sS'x'
F364
sg18
I00
s(dp53
g16
S'curve'
p54
sS'x'
F609
sg18
I01
sS'y'
F112
s(dp55
S'y'
F112
sS'x'
F813
sg18
I00
s(dp56
S'y'
F277
sS'x'
F934
sg18
I00
s(dp57
g16
S'curve'
p58
sS'x'
F934
sg18
I01
sS'y'
F526
s(dp59
S'y'
F734
sS'x'
F934
sg18
I00
s(dp60
S'y'
F918
sS'x'
F826
sg18
I00
stp61
stp62
sS'components'
p63
(tsS'anchors'
p64
(tsss."
AnchorPoint: "top" 288 501 basechar 0
LayerCount: 2
Fore
SplineSet
292 46 m 256
 400 46 458 130 458 255 c 256
 458 375 398 457 292 457 c 256
 181 457 118 373 118 254 c 256
 118 132 180 46 292 46 c 256
285 -10 m 256
 137 -10 48 102 48 253 c 256
 48 404 140 514 286 514 c 256
 366 514 429 470 457 412 c 257
 457 501 l 257
 525 501 l 257
 525 0 l 257
 456 0 l 257
 456 95 l 257
 427 32 368 -10 285 -10 c 256
EndSplineSet
EndChar

StartChar: acute
Encoding: 180 180 175
Width: 296
VWidth: 0
Flags: HW
PickledData: "(dp1
S'org.robofab.postScriptHintData'
p2
(dp3
s."
AnchorPoint: "top" 70 501 mark 0
LayerCount: 2
Fore
SplineSet
47 573 m 257
 152 729 l 257
 243 729 l 257
 98 573 l 257
 47 573 l 257
EndSplineSet
EndChar

StartChar: ae
Encoding: 230 230 179
Width: 879
VWidth: 0
Flags: HW
PickledData: "(dp1
S'org.robofab.postScriptHintData'
p2
(dp3
sS'com.typemytype.robofont.layerData'
p4
(dp5
S'b'
(dp6
S'name'
p7
S'ae'
p8
sS'lib'
p9
(dp10
sS'unicodes'
p11
(tsS'width'
p12
F1790.05
sS'contours'
p13
(tsS'components'
p14
((dp15
S'transformation'
p16
(I1
I0
I0
I1
I642
I0
tp17
sS'baseGlyph'
p18
S'e'
stp19
sS'anchors'
p20
(tsss."
AnchorPoint: "top" 445 501 basechar 0
LayerCount: 2
Fore
SplineSet
474 291 m 257
 774 291 l 257
 773 302 l 257
 768 378 723 458 627 458 c 256
 532 458 478 373 474 291 c 257
233 45 m 256
 350 45 400 135 400 242 c 257
 309 242 l 258
 180 242 113 224 113 140 c 256
 113 72 170 45 233 45 c 256
635 -10 m 256
 538 -10 466 43 436 124 c 257
 411 55 342 -11 229 -11 c 256
 121 -11 45 45 45 137 c 256
 45 271 153 291 333 291 c 258
 399 291 l 257
 399 387 350 458 259 458 c 256
 181 458 123 431 95 417 c 257
 73 468 l 257
 88 476 156 514 266 514 c 256
 348 514 420 469 441 392 c 257
 474 464 541 514 626 514 c 256
 755 514 835 416 835 256 c 256
 835 254 834 243 834 243 c 257
 474 243 l 257
 474 228 l 257
 475 130 523 46 637 46 c 256
 731 46 793 102 793 102 c 257
 815 52 l 257
 815 52 749 -10 635 -10 c 256
EndSplineSet
EndChar

StartChar: ampersand
Encoding: 38 38 185
Width: 733
VWidth: 0
Flags: HW
PickledData: "(dp1
S'org.robofab.postScriptHintData'
p2
(dp3
sS'com.typemytype.robofont.layerData'
p4
(dp5
S'b'
(dp6
S'name'
p7
S'ampersand'
p8
sS'lib'
p9
(dp10
sS'unicodes'
p11
(tsS'width'
p12
F1539.95
sS'contours'
p13
(tsS'components'
p14
(tsS'anchors'
p15
(tsss."
LayerCount: 2
Fore
SplineSet
285 437 m 257
 341 470 402 521 402 581 c 256
 402 641 352 666 309 666 c 256
 258 666 216 637 216 581 c 256
 216 528 242 479 285 437 c 257
305 52 m 256
 390 52 440 85 487 136 c 257
 272 366 l 257
 202 327 143 286 143 198 c 256
 143 113 206 52 305 52 c 256
308 -10 m 256
 172 -10 69 66 69 197 c 256
 69 307 150 360 234 410 c 257
 188 461 151 513 151 583 c 256
 151 675 221 723 307 723 c 256
 387 723 467 679 467 586 c 256
 467 507 397 442 324 400 c 257
 519 188 l 257
 561 250 591 347 591 428 c 257
 655 421 l 257
 650 322 618 216 564 140 c 257
 577 128 636 59 718 41 c 257
 670 -2 l 257
 617 6 534 81 525 90 c 257
 473 31 406 -10 308 -10 c 256
EndSplineSet
EndChar

StartChar: approxequal
Encoding: 8776 8776 187
Width: 659
VWidth: 0
Flags: HW
PickledData: "(dp1
S'org.robofab.postScriptHintData'
p2
(dp3
sS'com.typemytype.robofont.layerData'
p4
(dp5
s."
LayerCount: 2
Fore
SplineSet
133 131 m 257
 89 142 l 257
 107 217 156 263 230 263 c 256
 274 263 315 242 353 221 c 256
 390 200 424 180 455 180 c 256
 500 180 525 210 545 261 c 257
 588 250 l 257
 573 178 529 130 452 130 c 256
 413 130 377 145 322 177 c 256
 287 198 258 211 228 211 c 256
 177 211 148 179 133 131 c 257
133 326 m 257
 88 337 l 257
 105 411 156 457 229 457 c 256
 270 457 307 440 351 414 c 256
 395 388 426 375 454 375 c 256
 499 375 525 403 543 456 c 257
 587 444 l 257
 572 372 528 324 451 324 c 256
 411 324 374 341 320 372 c 256
 286 392 256 406 227 406 c 256
 175 406 147 375 133 326 c 257
EndSplineSet
EndChar

StartChar: asciicircum
Encoding: 94 94 190
Width: 817
VWidth: 0
Flags: HW
PickledData: "(dp1
S'org.robofab.postScriptHintData'
p2
(dp3
sS'com.typemytype.robofont.layerData'
p4
(dp5
S'b'
(dp6
S'name'
p7
S'asciicircum'
p8
sS'lib'
p9
(dp10
sS'unicodes'
p11
(tsS'width'
p12
F1623.3499999999999
sS'contours'
p13
(tsS'components'
p14
(tsS'anchors'
p15
(tsss."
LayerCount: 2
Fore
SplineSet
161 285 m 257
 386 711 l 257
 428 711 l 257
 657 285 l 257
 593 285 l 257
 406 639 l 257
 225 285 l 257
 161 285 l 257
EndSplineSet
EndChar

StartChar: asciitilde
Encoding: 126 126 191
Width: 529
VWidth: 0
Flags: HW
PickledData: "(dp1
S'org.robofab.postScriptHintData'
p2
(dp3
sS'com.typemytype.robofont.layerData'
p4
(dp5
s."
LayerCount: 2
Fore
SplineSet
71 193 m 257
 25 216 l 257
 39 282 76 323 156 323 c 256
 192 323 232 309 272 295 c 256
 325 275 356 262 382 262 c 256
 428 262 455 305 466 349 c 257
 517 333 l 257
 499 257 456 204 381 204 c 256
 352 204 312 219 272 234 c 256
 220 255 191 265 157 265 c 256
 103 265 81 239 71 193 c 257
EndSplineSet
EndChar

StartChar: asterisk
Encoding: 42 42 192
Width: 562
VWidth: 0
Flags: HW
PickledData: "(dp1
S'org.robofab.postScriptHintData'
p2
(dp3
sS'com.typemytype.robofont.guides'
p4
((dp5
S'y'
I1149
sS'x'
I567
sS'magnetic'
p6
I5
sS'angle'
p7
I0
sS'isGlobal'
p8
I00
stp9
sS'com.typemytype.robofont.layerData'
p10
(dp11
S'b'
(dp12
S'name'
p13
S'asterisk'
p14
sS'lib'
p15
(dp16
sS'unicodes'
p17
(tsS'width'
p18
F1107.9000000000001
sS'contours'
p19
(tsS'components'
p20
(tsS'anchors'
p21
(tsss."
LayerCount: 2
Fore
SplineSet
365 369 m 257
 288 502 l 257
 214 374 l 257
 161 405 l 257
 248 523 l 257
 119 561 l 257
 135 619 l 257
 263 562 l 257
 248 712 l 257
 310 712 l 257
 308 562 l 257
 419 619 l 257
 448 561 l 257
 325 523 l 257
 419 398 l 257
 365 369 l 257
EndSplineSet
EndChar

StartChar: at
Encoding: 64 64 193
Width: 848
VWidth: 0
Flags: HW
PickledData: "(dp1
S'org.robofab.postScriptHintData'
p2
(dp3
sS'com.typemytype.robofont.layerData'
p4
(dp5
S'b'
(dp6
S'name'
p7
S'at'
p8
sS'lib'
p9
(dp10
sS'unicodes'
p11
(tsS'width'
p12
F1771.2
sS'contours'
p13
(tsS'components'
p14
(tsS'anchors'
p15
(tsss."
LayerCount: 2
Fore
SplineSet
539 402 m 256
 539 469 506 510 450 510 c 256
 357 510 296 410 296 295 c 256
 296 227 332 183 387 183 c 256
 472 183 539 279 539 402 c 256
446 559 m 256
 509 559 553 525 561 467 c 257
 579 542 l 257
 635 542 l 257
 575 283 l 258
 567 247 563 226 563 208 c 256
 563 186 578 168 604 168 c 256
 680 168 743 262 743 393 c 256
 743 565 616 674 445 674 c 256
 252 674 113 540 113 332 c 256
 113 125 255 8 448 8 c 256
 549 8 644 42 697 97 c 257
 729 68 l 257
 678 1 567 -38 445 -38 c 256
 214 -38 53 102 53 332 c 256
 53 567 217 720 444 720 c 256
 651 720 792 589 792 392 c 256
 792 238 704 130 605 130 c 256
 556 130 524 158 524 209 c 256
 524 215 524 221 525 228 c 257
 503 173 449 133 381 133 c 256
 301 133 235 194 235 298 c 256
 235 450 329 559 446 559 c 256
EndSplineSet
EndChar

StartChar: b
Encoding: 98 98 195
Width: 618
VWidth: 0
Flags: HW
PickledData: "(dp1
S'org.robofab.postScriptHintData'
p2
(dp3
sS'com.typemytype.robofont.layerData'
p4
(dp5
S'b'
(dp6
S'name'
p7
S'b'
sS'lib'
p8
(dp9
sS'unicodes'
p10
(tsS'width'
p11
F1270.0999999999999
sS'contours'
p12
(tsS'components'
p13
(tsS'anchors'
p14
(tsss."
AnchorPoint: "top" 337 501 basechar 0
LayerCount: 2
Fore
SplineSet
336 46 m 256
 441 46 499 130 499 255 c 256
 499 376 439 457 335 457 c 256
 226 457 157 375 157 253 c 256
 157 129 225 46 336 46 c 256
342 -10 m 256
 254 -10 184 37 158 101 c 257
 156 0 l 257
 86 0 l 257
 86 25 90 94 90 131 c 258
 90 733 l 257
 159 733 l 257
 159 403 l 257
 185 464 252 514 342 514 c 256
 480 514 569 412 569 255 c 256
 569 93 477 -10 342 -10 c 256
EndSplineSet
EndChar

StartChar: backslash
Encoding: 92 92 196
Width: 396
VWidth: 0
Flags: HW
PickledData: "(dp1
S'org.robofab.postScriptHintData'
p2
(dp3
sS'com.typemytype.robofont.layerData'
p4
(dp5
s."
LayerCount: 2
Fore
SplineSet
290 20 m 257
 47 711 l 257
 111 711 l 257
 355 20 l 257
 290 20 l 257
EndSplineSet
EndChar

StartChar: bar
Encoding: 124 124 197
Width: 643
VWidth: 0
Flags: HW
PickledData: "(dp1
S'org.robofab.postScriptHintData'
p2
(dp3
sS'com.typemytype.robofont.layerData'
p4
(dp5
s."
LayerCount: 2
Fore
SplineSet
288 -244 m 257
 288 759 l 257
 355 759 l 257
 355 -244 l 257
 288 -244 l 257
EndSplineSet
EndChar

StartChar: braceleft
Encoding: 123 123 199
Width: 414
VWidth: 0
Flags: HW
PickledData: "(dp1
S'org.robofab.postScriptHintData'
p2
(dp3
sS'com.typemytype.robofont.layerData'
p4
(dp5
s."
LayerCount: 2
Fore
SplineSet
236 559 m 258
 236 424 l 258
 236 349 203 306 149 288 c 257
 205 269 236 221 236 145 c 258
 236 12 l 258
 236 -47 251 -71 347 -71 c 256
 349 -71 351 -71 353 -71 c 257
 353 -125 l 257
 193 -124 167 -68 167 9 c 258
 167 139 l 258
 167 218 146 259 56 269 c 257
 56 310 l 257
 143 319 167 359 167 435 c 257
 167 565 l 258
 167 640 188 702 353 702 c 257
 353 648 l 257
 351 648 350 648 348 648 c 256
 246 648 236 616 236 559 c 258
EndSplineSet
EndChar

StartChar: braceright
Encoding: 125 125 200
Width: 398
VWidth: 0
Flags: HW
PickledData: "(dp1
S'org.robofab.postScriptHintData'
p2
(dp3
sS'com.typemytype.robofont.layerData'
p4
(dp5
s."
LayerCount: 2
Fore
SplineSet
52 -125 m 257
 52 -71 l 257
 54 -71 54 -71 56 -71 c 256
 159 -71 168 -38 168 19 c 258
 168 153 l 258
 168 228 201 273 255 290 c 257
 199 310 168 357 168 433 c 258
 168 565 l 258
 168 624 154 648 58 648 c 256
 56 648 54 648 52 648 c 257
 52 702 l 257
 212 702 238 646 238 569 c 258
 238 438 l 258
 238 359 259 319 349 309 c 257
 349 268 l 257
 262 259 238 219 238 143 c 258
 238 13 l 258
 238 -62 217 -125 52 -125 c 257
EndSplineSet
EndChar

StartChar: bracketleft
Encoding: 91 91 201
Width: 335
VWidth: 0
Flags: HW
PickledData: "(dp1
S'org.robofab.postScriptHintData'
p2
(dp3
sS'com.typemytype.robofont.layerData'
p4
(dp5
s."
LayerCount: 2
Fore
SplineSet
94 -134 m 257
 94 707 l 257
 291 707 l 257
 291 654 l 257
 162 654 l 257
 162 -82 l 257
 291 -82 l 257
 291 -134 l 257
 94 -134 l 257
EndSplineSet
EndChar

StartChar: bracketright
Encoding: 93 93 202
Width: 335
VWidth: 0
Flags: HW
PickledData: "(dp1
S'org.robofab.postScriptHintData'
p2
(dp3
sS'com.typemytype.robofont.layerData'
p4
(dp5
s."
LayerCount: 2
Fore
SplineSet
73 -134 m 257
 73 -82 l 257
 202 -82 l 257
 202 654 l 257
 72 654 l 257
 72 707 l 257
 270 707 l 257
 270 -134 l 257
 73 -134 l 257
EndSplineSet
EndChar

StartChar: breve
Encoding: 728 728 203
Width: 272
VWidth: 0
Flags: HW
PickledData: "(dp1
S'org.robofab.postScriptHintData'
p2
(dp3
sS'com.typemytype.robofont.layerData'
p4
(dp5
S'b'
(dp6
S'name'
p7
S'breve'
p8
sS'lib'
p9
(dp10
sS'unicodes'
p11
(tsS'width'
p12
F621.60000000000002
sS'contours'
p13
(tsS'components'
p14
(tsS'anchors'
p15
(tsss."
AnchorPoint: "top" 139 501 mark 0
LayerCount: 2
Fore
SplineSet
137 572 m 256
 60 572 22 609 16 688 c 257
 66 688 l 257
 68 642 92 623 137 623 c 256
 182 623 202 646 208 688 c 257
 257 688 l 257
 252 611 210 572 137 572 c 256
EndSplineSet
EndChar

StartChar: brokenbar
Encoding: 166 166 204
Width: 244
VWidth: 0
Flags: HW
PickledData: "(dp1
S'org.robofab.postScriptHintData'
p2
(dp3
sS'com.typemytype.robofont.layerData'
p4
(dp5
s."
LayerCount: 2
Fore
SplineSet
99 343 m 257
 99 759 l 257
 162 759 l 257
 162 343 l 257
 99 343 l 257
99 -244 m 257
 99 189 l 257
 162 189 l 257
 162 -244 l 257
 99 -244 l 257
EndSplineSet
EndChar

StartChar: bullet
Encoding: 8226 8226 205
Width: 483
VWidth: 0
Flags: HW
PickledData: "(dp1
S'org.robofab.postScriptHintData'
p2
(dp3
sS'com.typemytype.robofont.layerData'
p4
(dp5
S'b'
(dp6
S'name'
p7
S'bullet'
p8
sS'lib'
p9
(dp10
sS'unicodes'
p11
(tsS'width'
p12
F989.64999999999998
sS'contours'
p13
(tsS'components'
p14
(tsS'anchors'
p15
(tsss."
LayerCount: 2
Fore
SplineSet
243 191 m 256
 154 191 88 259 88 340 c 256
 88 423 155 493 243 493 c 256
 331 493 399 422 399 340 c 256
 399 257 332 191 243 191 c 256
EndSplineSet
EndChar

StartChar: c
Encoding: 99 99 207
Width: 509
VWidth: 0
Flags: HW
PickledData: "(dp1
S'org.robofab.postScriptHintData'
p2
(dp3
sS'com.typemytype.robofont.layerData'
p4
(dp5
S'b'
(dp6
S'name'
p7
S'c'
sS'lib'
p8
(dp9
sS'unicodes'
p10
(tsS'width'
p11
F1035.55
sS'contours'
p12
((dp13
S'points'
p14
((dp15
S'segmentType'
p16
S'curve'
p17
sS'x'
F605
sS'smooth'
p18
I01
sS'y'
F-22
s(dp19
S'y'
F-22
sS'x'
F302
sg18
I00
s(dp20
S'y'
F180
sS'x'
F98
sg18
I00
s(dp21
g16
S'curve'
p22
sS'x'
F98
sg18
I01
sS'y'
F503
s(dp23
S'y'
F840
sS'x'
F98
sg18
I00
s(dp24
S'y'
F1052
sS'x'
F301
sg18
I00
s(dp25
g16
S'curve'
p26
sS'x'
F624
sg18
I01
sS'y'
F1052
s(dp27
S'y'
F1052
sS'x'
F750
sg18
I00
s(dp28
S'y'
F1001
sS'x'
F871
sg18
I00
s(dp29
g16
S'curve'
p30
sS'x'
F938
sg18
I00
sS'y'
F922
s(dp31
g16
S'line'
p32
sS'x'
F890
sg18
I00
sS'y'
F805
s(dp33
S'y'
F874
sS'x'
F825
sg18
I00
s(dp34
S'y'
F918
sS'x'
F721
sg18
I00
s(dp35
g16
S'curve'
p36
sS'x'
F619
sg18
I01
sS'y'
F918
s(dp37
S'y'
F918
sS'x'
F406
sg18
I00
s(dp38
S'y'
F756
sS'x'
F268
sg18
I00
s(dp39
g16
S'curve'
p40
sS'x'
F268
sg18
I01
sS'y'
F505
s(dp41
S'y'
F260
sS'x'
F268
sg18
I00
s(dp42
S'y'
F112
sS'x'
F407
sg18
I00
s(dp43
g16
S'curve'
p44
sS'x'
F611
sg18
I01
sS'y'
F112
s(dp45
S'y'
F112
sS'x'
F716
sg18
I00
s(dp46
S'y'
F145
sS'x'
F827
sg18
I00
s(dp47
g16
S'curve'
p48
sS'x'
F901
sg18
I00
sS'y'
F202
s(dp49
g16
S'line'
p50
sS'x'
F953
sg18
I00
sS'y'
F87
s(dp51
S'y'
F19
sS'x'
F873
sg18
I00
s(dp52
S'y'
F-22
sS'x'
F747
sg18
I00
stp53
stp54
sS'components'
p55
(tsS'anchors'
p56
(tsss."
AnchorPoint: "top" 289 501 basechar 0
LayerCount: 2
Fore
SplineSet
302 -10 m 256
 147 -10 48 94 48 246 c 256
 48 407 149 514 305 514 c 256
 368 514 427 493 464 459 c 257
 440 412 l 257
 409 439 363 457 309 457 c 256
 196 457 119 379 119 247 c 256
 119 125 191 46 305 46 c 256
 367 46 416 68 451 95 c 257
 474 47 l 257
 432 11 371 -10 302 -10 c 256
EndSplineSet
EndChar

StartChar: caron
Encoding: 711 711 209
Width: 341
VWidth: 0
Flags: HW
PickledData: "(dp1
S'org.robofab.postScriptHintData'
p2
(dp3
s."
AnchorPoint: "top" 169 501 mark 0
LayerCount: 2
Fore
SplineSet
135 579 m 257
 24 729 l 257
 83 729 l 257
 168 619 l 257
 255 729 l 257
 317 729 l 257
 206 579 l 257
 135 579 l 257
EndSplineSet
EndChar

StartChar: caron.alt
Encoding: 65537 -1 210
Width: 292
VWidth: 0
Flags: HW
PickledData: "(dp1
S'org.robofab.postScriptHintData'
p2
(dp3
s."
AnchorPoint: "caron.alt" 31 501 mark 0
LayerCount: 2
Fore
SplineSet
159 507 m 257
 211 728 l 257
 291 728 l 257
 213 507 l 257
 159 507 l 257
EndSplineSet
EndChar

StartChar: cedilla
Encoding: 184 184 215
Width: 258
VWidth: 0
Flags: HW
PickledData: "(dp1
S'org.robofab.postScriptHintData'
p2
(dp3
sS'com.typemytype.robofont.layerData'
p4
(dp5
S'b'
(dp6
S'name'
p7
S'cedilla'
p8
sS'lib'
p9
(dp10
sS'unicodes'
p11
(tsS'width'
p12
I529
sS'contours'
p13
(tsS'components'
p14
(tsS'anchors'
p15
(tsss."
LayerCount: 2
Fore
SplineSet
38 -150 m 257
 51 -156 85 -164 112 -164 c 256
 149 -164 164 -151 164 -129 c 256
 164 -107 135 -92 82 -92 c 258
 75 -92 l 257
 91 3 l 257
 129 3 l 257
 119 -63 l 257
 172 -67 224 -84 224 -132 c 256
 224 -186 172 -204 117 -204 c 256
 81 -204 43 -192 32 -188 c 257
 38 -150 l 257
EndSplineSet
EndChar

StartChar: cent
Encoding: 162 162 216
Width: 487
VWidth: 0
Flags: HW
PickledData: "(dp1
S'org.robofab.postScriptHintData'
p2
(dp3
sS'com.typemytype.robofont.layerData'
p4
(dp5
S'b'
(dp6
S'name'
p7
S'cent'
p8
sS'lib'
p9
(dp10
sS'unicodes'
p11
(tsS'width'
p12
F1033.2
sS'contours'
p13
(tsS'components'
p14
(tsS'anchors'
p15
(tsss."
LayerCount: 2
Fore
SplineSet
318 -10 m 257
 318 -96 l 257
 280 -96 l 257
 280 -10 l 257
 137 -1 48 101 48 246 c 256
 48 398 139 502 280 513 c 257
 280 612 l 257
 318 612 l 257
 318 513 l 257
 376 510 430 491 464 459 c 257
 440 412 l 257
 411 437 368 455 318 457 c 257
 318 47 l 257
 373 50 418 70 451 95 c 257
 474 47 l 257
 436 14 380 -7 318 -10 c 257
280 48 m 257
 280 455 l 257
 183 443 119 368 119 247 c 256
 119 134 181 59 280 48 c 257
EndSplineSet
EndChar

StartChar: circumflex
Encoding: 710 710 217
Width: 341
VWidth: 0
Flags: HW
PickledData: "(dp1
S'org.robofab.postScriptHintData'
p2
(dp3
sS'com.typemytype.robofont.layerData'
p4
(dp5
S'b'
(dp6
S'name'
p7
S'circumflex'
p8
sS'lib'
p9
(dp10
sS'unicodes'
p11
(tsS'width'
p12
I699
sS'contours'
p13
(tsS'components'
p14
(tsS'anchors'
p15
(tsss."
AnchorPoint: "top" 168 501 mark 0
LayerCount: 2
Fore
SplineSet
37 579 m 257
 144 729 l 257
 198 729 l 257
 304 579 l 257
 252 579 l 257
 169 677 l 257
 85 579 l 257
 37 579 l 257
EndSplineSet
EndChar

StartChar: colon
Encoding: 58 58 218
Width: 248
VWidth: 0
Flags: HW
PickledData: "(dp1
S'org.robofab.postScriptHintData'
p2
(dp3
sS'com.typemytype.robofont.layerData'
p4
(dp5
S'b'
(dp6
S'name'
p7
S'colon'
p8
sS'lib'
p9
(dp10
sS'unicodes'
p11
(tsS'width'
p12
F544.60000000000002
sS'contours'
p13
(tsS'components'
p14
(tsS'anchors'
p15
(tsss."
LayerCount: 2
Fore
SplineSet
82 413 m 257
 82 508 l 257
 172 508 l 257
 172 413 l 257
 82 413 l 257
82 2 m 257
 82 98 l 257
 172 98 l 257
 172 2 l 257
 82 2 l 257
EndSplineSet
EndChar

StartChar: comma
Encoding: 44 44 219
Width: 218
VWidth: 0
Flags: HW
PickledData: "(dp1
S'org.robofab.postScriptHintData'
p2
(dp3
sS'com.typemytype.robofont.layerData'
p4
(dp5
S'b'
(dp6
S'name'
p7
S'comma'
p8
sS'lib'
p9
(dp10
sS'unicodes'
p11
(tsS'width'
p12
F491.10000000000002
sS'contours'
p13
(tsS'components'
p14
(tsS'anchors'
p15
(tsss."
LayerCount: 2
Fore
SplineSet
42 -127 m 257
 93 94 l 257
 173 94 l 257
 95 -127 l 257
 42 -127 l 257
EndSplineSet
EndChar

StartChar: copyright
Encoding: 169 169 220
Width: 848
VWidth: 0
Flags: HW
PickledData: "(dp1
S'org.robofab.postScriptHintData'
p2
(dp3
sS'com.typemytype.robofont.layerData'
p4
(dp5
S'b'
(dp6
S'name'
p7
S'copyright'
p8
sS'lib'
p9
(dp10
sS'unicodes'
p11
(tsS'width'
p12
I1733
sS'contours'
p13
(tsS'components'
p14
(tsS'anchors'
p15
(tsss."
LayerCount: 2
Fore
SplineSet
424 -16 m 256
 220 -16 53 150 53 354 c 256
 53 558 220 725 424 725 c 256
 629 725 796 558 796 354 c 256
 796 150 629 -16 424 -16 c 256
425 29 m 256
 601 29 743 177 743 353 c 256
 743 529 601 677 425 677 c 256
 249 677 106 529 106 353 c 256
 106 177 249 29 425 29 c 256
435 135 m 256
 315 135 226 213 226 350 c 256
 226 492 318 576 439 576 c 256
 487 576 534 559 564 530 c 257
 544 490 l 257
 518 512 477 526 439 526 c 256
 369 526 286 483 286 351 c 256
 286 246 345 184 433 184 c 256
 473 184 519 195 553 221 c 257
 573 179 l 257
 541 153 493 135 435 135 c 256
EndSplineSet
EndChar

StartChar: currency
Encoding: 164 164 221
Width: 594
VWidth: 0
Flags: HW
PickledData: "(dp1
S'org.robofab.postScriptHintData'
p2
(dp3
s."
LayerCount: 2
Fore
SplineSet
297 348 m 256
 382 348 445 416 445 501 c 256
 445 586 382 651 297 651 c 256
 212 651 150 586 150 501 c 256
 150 416 212 348 297 348 c 256
83 267 m 257
 59 292 l 257
 150 383 l 257
 123 415 107 456 107 501 c 256
 107 548 124 592 153 625 c 257
 58 720 l 257
 83 745 l 257
 179 649 l 257
 211 674 253 689 298 689 c 256
 343 689 384 674 417 649 c 257
 512 745 l 257
 537 720 l 257
 442 625 l 257
 471 592 489 549 489 501 c 256
 489 456 473 415 446 382 c 257
 537 292 l 257
 512 267 l 257
 421 357 l 257
 388 330 345 313 298 313 c 256
 251 313 208 330 175 358 c 257
 83 267 l 257
EndSplineSet
EndChar

StartChar: d
Encoding: 100 100 222
Width: 615
VWidth: 0
Flags: HW
PickledData: "(dp1
S'org.robofab.postScriptHintData'
p2
(dp3
sS'com.typemytype.robofont.layerData'
p4
(dp5
S'b'
(dp6
S'name'
p7
S'd'
sS'lib'
p8
(dp9
sS'unicodes'
p10
(tsS'width'
p11
F1265.05
sS'contours'
p12
(tsS'components'
p13
(tsS'anchors'
p14
(tsss."
AnchorPoint: "top" 277 501 basechar 0
AnchorPoint: "caron.alt" 442 501 basechar 0
LayerCount: 2
Fore
SplineSet
282 46 m 256
 392 46 458 129 458 254 c 256
 458 375 392 457 283 457 c 256
 178 457 119 375 119 252 c 256
 119 129 176 46 282 46 c 256
276 -10 m 256
 141 -10 48 91 48 251 c 256
 48 407 135 514 278 514 c 256
 363 514 432 468 457 408 c 257
 457 733 l 257
 525 733 l 257
 525 130 l 257
 525 89 528 31 529 0 c 257
 459 0 l 257
 457 101 l 257
 434 39 367 -10 276 -10 c 256
EndSplineSet
EndChar

StartChar: dagger
Encoding: 8224 8224 223
Width: 499
VWidth: 0
Flags: HW
PickledData: "(dp1
S'org.robofab.postScriptHintData'
p2
(dp3
sS'com.typemytype.robofont.layerData'
p4
(dp5
s."
LayerCount: 2
Fore
SplineSet
219 0 m 257
 219 462 l 257
 58 462 l 257
 58 513 l 257
 219 513 l 257
 219 715 l 257
 284 715 l 257
 284 513 l 257
 448 513 l 257
 448 462 l 257
 283 462 l 257
 283 0 l 257
 219 0 l 257
EndSplineSet
EndChar

StartChar: daggerdbl
Encoding: 8225 8225 224
Width: 501
VWidth: 0
Flags: HW
PickledData: "(dp1
S'org.robofab.postScriptHintData'
p2
(dp3
sS'com.typemytype.robofont.layerData'
p4
(dp5
S'b'
(dp6
S'name'
p7
S'daggerdbl'
p8
sS'lib'
p9
(dp10
sS'unicodes'
p11
(tsS'width'
p12
F1092.6500000000001
sS'contours'
p13
(tsS'components'
p14
(tsS'anchors'
p15
(tsss."
LayerCount: 2
Fore
SplineSet
53 513 m 257
 216 513 l 257
 216 716 l 257
 283 716 l 257
 283 513 l 257
 446 513 l 257
 446 466 l 257
 283 466 l 257
 283 243 l 257
 445 243 l 257
 445 196 l 257
 283 196 l 257
 283 0 l 257
 216 0 l 257
 216 196 l 257
 52 196 l 257
 52 243 l 257
 216 243 l 257
 216 466 l 257
 53 466 l 257
 53 513 l 257
EndSplineSet
EndChar

StartChar: degree
Encoding: 176 176 228
Width: 406
VWidth: 0
Flags: HW
PickledData: "(dp1
S'org.robofab.postScriptHintData'
p2
(dp3
sS'com.typemytype.robofont.layerData'
p4
(dp5
S'b'
(dp6
S'name'
p7
S'degree'
p8
sS'lib'
p9
(dp10
sS'unicodes'
p11
(tsS'width'
p12
F856.60000000000002
sS'contours'
p13
(tsS'components'
p14
(tsS'anchors'
p15
(tsss."
LayerCount: 2
Fore
SplineSet
203 418 m 256
 119 418 58 483 58 561 c 256
 58 639 119 703 203 703 c 256
 288 703 349 639 349 561 c 256
 349 483 287 418 203 418 c 256
203 467 m 256
 264 467 295 512 295 562 c 256
 295 612 262 655 203 655 c 256
 144 655 111 612 111 562 c 256
 111 512 142 467 203 467 c 256
EndSplineSet
EndChar

StartChar: dieresis
Encoding: 168 168 229
Width: 362
VWidth: 0
Flags: HW
PickledData: "(dp1
S'org.robofab.postScriptHintData'
p2
(dp3
s."
AnchorPoint: "top" 182 501 mark 0
LayerCount: 2
Fore
SplineSet
237 584 m 257
 237 656 l 257
 307 656 l 257
 307 584 l 257
 237 584 l 257
57 584 m 257
 57 656 l 257
 126 656 l 257
 126 584 l 257
 57 584 l 257
EndSplineSet
EndChar

StartChar: divide
Encoding: 247 247 230
Width: 559
VWidth: 0
Flags: HW
PickledData: "(dp1
S'org.robofab.postScriptHintData'
p2
(dp3
sS'com.typemytype.robofont.layerData'
p4
(dp5
s."
LayerCount: 2
Fore
SplineSet
241 430 m 257
 241 526 l 257
 336 526 l 257
 336 430 l 257
 241 430 l 257
69 241 m 257
 69 301 l 257
 501 301 l 257
 501 241 l 257
 69 241 l 257
240 15 m 257
 240 110 l 257
 335 110 l 257
 335 15 l 257
 240 15 l 257
EndSplineSet
EndChar

StartChar: dollar
Encoding: 36 36 232
Width: 571
VWidth: 0
Flags: HW
PickledData: "(dp1
S'org.robofab.postScriptHintData'
p2
(dp3
sS'com.typemytype.robofont.layerData'
p4
(dp5
S'b'
(dp6
S'name'
p7
S'dollar'
p8
sS'lib'
p9
(dp10
sS'unicodes'
p11
(tsS'width'
p12
F1200.0999999999999
sS'contours'
p13
(tsS'components'
p14
(tsS'anchors'
p15
(tsss."
LayerCount: 2
Fore
SplineSet
280 663 m 257
 280 405 l 257
 272 407 266 408 264 409 c 256
 164 437 140 465 140 542 c 256
 140 616 194 658 280 663 c 257
319 51 m 257
 319 324 l 257
 423 292 450 261 450 189 c 256
 450 112 404 61 319 51 c 257
523 191 m 256
 523 298 480 349 319 394 c 257
 319 662 l 257
 395 657 442 625 463 605 c 257
 498 655 l 257
 478 673 430 716 319 722 c 257
 319 793 l 257
 280 793 l 257
 280 723 l 257
 150 719 64 654 64 540 c 256
 64 425 127 378 246 345 c 256
 249 344 265 340 280 336 c 257
 280 50 l 257
 187 53 125 99 99 121 c 257
 66 69 l 257
 88 49 158 -7 280 -10 c 257
 280 -97 l 257
 319 -97 l 257
 319 -9 l 257
 443 0 523 70 523 191 c 256
EndSplineSet
EndChar

StartChar: dotaccent
Encoding: 729 729 233
Width: 255
VWidth: 0
Flags: HW
PickledData: "(dp1
S'org.robofab.postScriptHintData'
p2
(dp3
sS'com.typemytype.robofont.layerData'
p4
(dp5
S'b'
(dp6
S'name'
p7
S'dotaccent'
p8
sS'lib'
p9
(dp10
sS'unicodes'
p11
(tsS'width'
p12
F524
sS'contours'
p13
(tsS'components'
p14
(tsS'anchors'
p15
(tsss."
AnchorPoint: "top" 129 501 mark 0
LayerCount: 2
Fore
SplineSet
90 609 m 257
 90 684 l 257
 166 684 l 257
 166 609 l 257
 90 609 l 257
EndSplineSet
EndChar

StartChar: dotlessi
Encoding: 305 305 234
Width: 245
VWidth: 0
Flags: HW
PickledData: "(dp1
S'org.robofab.postScriptHintData'
p2
(dp3
sS'com.typemytype.robofont.layerData'
p4
(dp5
s."
AnchorPoint: "top" 124 501 basechar 0
LayerCount: 2
Fore
SplineSet
89 0 m 257
 88 501 l 257
 158 501 l 257
 159 0 l 257
 89 0 l 257
EndSplineSet
EndChar

StartChar: uni0237
Encoding: 567 567 235
Width: 245
VWidth: 0
Flags: HW
PickledData: "(dp1
S'org.robofab.postScriptHintData'
p2
(dp3
s."
AnchorPoint: "top" 129 501 basechar 0
LayerCount: 2
Fore
SplineSet
10 -212 m 256
 -8 -212 -26 -211 -44 -207 c 257
 -45 -145 l 257
 -32 -147 -19 -149 -9 -149 c 256
 61 -149 92 -99 92 11 c 258
 92 501 l 257
 163 501 l 257
 163 53 l 258
 163 -62 151 -212 10 -212 c 256
EndSplineSet
EndChar

StartChar: e
Encoding: 101 101 238
Width: 561
VWidth: 0
Flags: HW
PickledData: "(dp1
S'org.robofab.postScriptHintData'
p2
(dp3
sS'com.fontlab.hintData'
p4
(dp5
S'vhints'
p6
((dp7
S'position'
p8
I106
sS'width'
p9
I195
stp10
sS'hhints'
p11
((dp12
g8
I-22
sg9
I154
s(dp13
g8
I486
sg9
I131
s(dp14
g8
I901
sg9
I151
stp15
ssS'com.typemytype.robofont.layerData'
p16
(dp17
S'b'
(dp18
S'name'
p19
S'e'
sS'lib'
p20
(dp21
sS'unicodes'
p22
(tsg9
F1169.75
sS'contours'
p23
(tsS'components'
p24
(tsS'anchors'
p25
(tsssS'com.typemytype.robofont.guides'
p26
(ts."
HStem: -11 75 237 64 440 74
VStem: 52 95
AnchorPoint: "top" 287 501 basechar 0
LayerCount: 2
Fore
SplineSet
122 291 m 257
 451 291 l 257
 444 395 384 458 294 458 c 256
 200 458 133 394 122 291 c 257
305 -10 m 256
 148 -10 48 92 48 249 c 256
 48 406 143 514 292 514 c 256
 432 514 512 414 512 269 c 256
 512 268 512 248 512 243 c 257
 119 243 l 257
 119 119 195 46 308 46 c 256
 369 46 427 66 472 102 c 257
 494 52 l 257
 444 12 375 -10 305 -10 c 256
EndSplineSet
EndChar

StartChar: eight
Encoding: 56 56 247
Width: 588
VWidth: 0
Flags: HW
PickledData: "(dp1
S'org.robofab.postScriptHintData'
p2
(dp3
sS'com.typemytype.robofont.layerData'
p4
(dp5
S'b'
(dp6
S'name'
p7
S'eight'
p8
sS'lib'
p9
(dp10
sS'unicodes'
p11
(tsS'width'
p12
F1235.45
sS'contours'
p13
(tsS'components'
p14
(tsS'anchors'
p15
(tsss."
LayerCount: 2
Fore
SplineSet
295 406 m 257
 387 423 439 470 439 545 c 256
 439 625 371 667 295 667 c 256
 220 667 152 625 152 546 c 256
 152 470 204 423 295 406 c 257
295 49 m 256
 387 49 453 98 453 185 c 256
 453 270 388 317 294 336 c 257
 203 317 137 268 137 185 c 256
 137 97 205 49 295 49 c 256
294 -11 m 256
 176 -11 65 57 65 181 c 256
 65 274 121 343 223 372 c 257
 135 398 83 459 83 545 c 256
 83 657 178 724 295 724 c 256
 409 724 508 658 508 547 c 256
 508 461 456 400 368 373 c 257
 472 343 525 275 525 182 c 256
 525 58 416 -11 294 -11 c 256
EndSplineSet
EndChar

StartChar: ellipsis
Encoding: 8230 8230 249
Width: 791
VWidth: 0
Flags: HW
PickledData: "(dp1
S'org.robofab.postScriptHintData'
p2
(dp3
s."
LayerCount: 2
Fore
SplineSet
615 -5 m 257
 615 90 l 257
 711 90 l 257
 711 -5 l 257
 615 -5 l 257
349 -5 m 257
 349 90 l 257
 444 90 l 257
 444 -5 l 257
 349 -5 l 257
83 -5 m 257
 83 90 l 257
 179 90 l 257
 178 -5 l 257
 83 -5 l 257
EndSplineSet
EndChar

StartChar: emdash
Encoding: 8212 8212 251
Width: 1060
VWidth: 0
Flags: HW
PickledData: "(dp1
S'org.robofab.postScriptHintData'
p2
(dp3
s."
LayerCount: 2
Fore
SplineSet
-6 243 m 257
 -6 302 l 257
 1058 302 l 257
 1058 243 l 257
 -6 243 l 257
EndSplineSet
EndChar

StartChar: endash
Encoding: 8211 8211 252
Width: 529
VWidth: 0
Flags: HW
PickledData: "(dp1
S'org.robofab.postScriptHintData'
p2
(dp3
sS'com.typemytype.robofont.layerData'
p4
(dp5
s."
LayerCount: 2
Fore
SplineSet
-2 245 m 257
 -2 302 l 257
 528 302 l 257
 528 245 l 257
 -2 245 l 257
EndSplineSet
EndChar

StartChar: eng
Encoding: 331 331 253
Width: 617
VWidth: 0
Flags: HW
PickledData: "(dp1
S'org.robofab.postScriptHintData'
p2
(dp3
sS'com.typemytype.robofont.layerData'
p4
(dp5
s."
LayerCount: 2
Fore
SplineSet
317 -195 m 257
 317 -141 l 257
 450 -141 463 -63 463 64 c 258
 463 251 l 258
 463 371 450 455 333 455 c 256
 223 455 162 359 162 322 c 257
 162 0 l 257
 92 0 l 257
 92 396 l 258
 92 443 91 501 91 501 c 257
 161 501 l 257
 163 432 l 257
 205 486 264 513 345 513 c 256
 500 513 533 402 533 265 c 258
 533 70 l 258
 533 -92 497 -195 317 -195 c 257
EndSplineSet
EndChar

StartChar: equal
Encoding: 61 61 255
Width: 568
VWidth: 0
Flags: HW
PickledData: "(dp1
S'org.robofab.postScriptHintData'
p2
(dp3
sS'com.typemytype.robofont.layerData'
p4
(dp5
S'b'
(dp6
S'name'
p7
S'equal'
p8
sS'lib'
p9
(dp10
sS'unicodes'
p11
(tsS'width'
p12
I1229
sS'contours'
p13
(tsS'components'
p14
(tsS'anchors'
p15
(tsss."
LayerCount: 2
Fore
SplineSet
68 339 m 257
 68 399 l 257
 500 399 l 257
 500 339 l 257
 68 339 l 257
69 153 m 257
 69 212 l 257
 500 212 l 257
 500 153 l 257
 69 153 l 257
EndSplineSet
EndChar

StartChar: estimated
Encoding: 8494 8494 256
Width: 583
VWidth: 0
Flags: HW
PickledData: "(dp1
S'org.robofab.postScriptHintData'
p2
(dp3
s."
LayerCount: 2
Fore
SplineSet
145 348 m 257
 440 348 l 257
 440 506 375 557 297 557 c 256
 225 557 146 506 145 348 c 257
306 56 m 256
 167 56 62 143 62 318 c 256
 62 512 180 585 298 585 c 256
 413 585 510 525 510 342 c 256
 510 337 509 328 507 320 c 257
 145 320 l 257
 145 319 145 318 145 317 c 256
 145 147 227 86 324 86 c 256
 374 86 441 106 502 146 c 257
 516 121 l 257
 450 78 375 56 306 56 c 256
EndSplineSet
EndChar

StartChar: eth
Encoding: 240 240 257
Width: 599
VWidth: 0
Flags: HW
PickledData: "(dp1
S'org.robofab.postScriptHintData'
p2
(dp3
sS'com.typemytype.robofont.layerData'
p4
(dp5
S'b'
(dp6
S'name'
p7
S'eth'
p8
sS'lib'
p9
(dp10
sS'unicodes'
p11
(tsS'width'
p12
F1222.55
sS'contours'
p13
(tsS'components'
p14
(tsS'anchors'
p15
(tsss."
LayerCount: 2
Fore
SplineSet
298 48 m 256
 403 48 463 122 463 234 c 256
 463 321 387 381 292 381 c 256
 191 381 128 318 128 215 c 256
 128 112 195 48 298 48 c 256
297 -11 m 256
 148 -11 57 83 57 216 c 256
 57 349 149 438 292 438 c 256
 386 438 448 388 474 342 c 257
 470 428 428 537 334 610 c 257
 241 545 l 257
 213 586 l 257
 291 641 l 257
 247 668 195 691 135 708 c 257
 163 757 l 257
 227 740 288 713 343 676 c 257
 437 741 l 257
 465 701 l 257
 385 645 l 257
 478 568 538 456 538 299 c 256
 538 102 453 -11 297 -11 c 256
EndSplineSet
EndChar

StartChar: exclam
Encoding: 33 33 259
Width: 250
VWidth: 0
Flags: HW
PickledData: "(dp1
S'org.robofab.postScriptHintData'
p2
(dp3
sS'com.typemytype.robofont.layerData'
p4
(dp5
S'b'
(dp6
S'name'
p7
S'exclam'
p8
sS'lib'
p9
(dp10
sS'unicodes'
p11
(tsS'width'
p12
F590
sS'contours'
p13
(tsS'components'
p14
(tsS'anchors'
p15
(tsss."
LayerCount: 2
Fore
SplineSet
108 181 m 257
 87 711 l 257
 170 711 l 257
 148 181 l 257
 108 181 l 257
86 0 m 257
 86 93 l 257
 170 93 l 257
 170 0 l 257
 86 0 l 257
EndSplineSet
EndChar

StartChar: exclamdown
Encoding: 161 161 260
Width: 234
VWidth: 0
Flags: HW
PickledData: "(dp1
S'org.robofab.postScriptHintData'
p2
(dp3
sS'com.typemytype.robofont.layerData'
p4
(dp5
S'b'
(dp6
S'name'
p7
S'exclamdown'
p8
sS'lib'
p9
(dp10
sS'unicodes'
p11
(tsS'width'
p12
F614.5
sS'contours'
p13
(tsS'components'
p14
(tsS'anchors'
p15
(tsss."
LayerCount: 2
Fore
SplineSet
74 548 m 257
 157 548 l 257
 157 455 l 257
 74 455 l 257
 74 548 l 257
96 367 m 257
 136 367 l 257
 157 -163 l 257
 75 -163 l 257
 96 367 l 257
EndSplineSet
EndChar

StartChar: f
Encoding: 102 102 261
Width: 324
VWidth: 0
Flags: HW
PickledData: "(dp1
S'org.robofab.postScriptHintData'
p2
(dp3
sS'com.typemytype.robofont.layerData'
p4
(dp5
S'b'
(dp6
S'name'
p7
S'f'
sS'lib'
p8
(dp9
sS'unicodes'
p10
(tsS'width'
p11
F733.10000000000002
sS'contours'
p12
(tsS'components'
p13
(tsS'anchors'
p14
(tsss."
AnchorPoint: "top" 156 711 basechar 0
LayerCount: 2
Fore
SplineSet
121 0 m 257
 121 455 l 257
 33 455 l 257
 33 501 l 257
 121 501 l 257
 121 560 l 258
 121 678 144 729 299 729 c 258
 319 729 l 257
 318 673 l 257
 195 673 189 650 189 570 c 258
 189 501 l 257
 313 501 l 257
 313 455 l 257
 189 455 l 257
 189 0 l 257
 121 0 l 257
EndSplineSet
EndChar

StartChar: uniFB00
Encoding: 64256 64256 262
Width: 623
VWidth: 0
Flags: HW
PickledData: "(dp1
S'org.robofab.postScriptHintData'
p2
(dp3
sS'com.typemytype.robofont.layerData'
p4
(dp5
s."
LayerCount: 2
Fore
SplineSet
489 458 m 257
 489 0 l 257
 423 0 l 257
 423 458 l 257
 185 458 l 257
 185 0 l 257
 120 0 l 257
 120 458 l 257
 33 458 l 257
 33 501 l 257
 120 501 l 257
 120 559 l 258
 120 675 143 729 296 729 c 258
 318 729 l 257
 319 676 l 257
 194 676 185 646 185 573 c 258
 185 501 l 257
 423 501 l 257
 423 559 l 258
 423 675 447 729 600 729 c 258
 622 729 l 257
 623 676 l 257
 498 676 489 646 489 573 c 258
 489 501 l 257
 614 501 l 257
 614 458 l 257
 489 458 l 257
EndSplineSet
EndChar

StartChar: uniFB03
Encoding: 64259 64259 263
Width: 860
VWidth: 0
Flags: HW
PickledData: "(dp1
S'org.robofab.postScriptHintData'
p2
(dp3
sS'com.typemytype.robofont.layerData'
p4
(dp5
s."
LayerCount: 2
Fore
SplineSet
769 645 m 257
 704 645 l 257
 704 711 l 257
 769 711 l 257
 769 645 l 257
769 0 m 257
 704 0 l 257
 704 458 l 257
 484 458 l 257
 484 0 l 257
 419 0 l 257
 419 458 l 257
 185 458 l 257
 185 0 l 257
 120 0 l 257
 120 458 l 257
 33 458 l 257
 33 501 l 257
 120 501 l 257
 120 558 l 258
 120 675 143 729 296 729 c 258
 318 729 l 257
 319 675 l 257
 194 675 185 645 185 572 c 258
 185 501 l 257
 419 501 l 257
 419 558 l 258
 419 675 443 729 596 729 c 258
 617 729 l 257
 618 675 l 257
 493 675 484 645 484 572 c 258
 484 501 l 257
 769 501 l 257
 769 0 l 257
EndSplineSet
EndChar

StartChar: uniFB04
Encoding: 64260 64260 264
Width: 881
VWidth: 0
Flags: HW
PickledData: "(dp1
S'org.robofab.postScriptHintData'
p2
(dp3
sS'com.typemytype.robofont.layerData'
p4
(dp5
s."
AnchorPoint: "top" 156 711 basechar 0
LayerCount: 2
Fore
SplineSet
120 0 m 257
 120 458 l 257
 33 458 l 257
 33 501 l 257
 120 501 l 257
 120 557 l 258
 120 675 144 729 299 729 c 258
 320 729 l 257
 322 673 l 257
 198 673 189 644 189 570 c 258
 189 501 l 257
 313 501 l 257
 313 458 l 257
 189 458 l 257
 189 0 l 257
 120 0 l 257
EndSplineSet
Refer: 269 64258 N 1 0 0 1 260 0 2
EndChar

StartChar: uniFB01
Encoding: 64257 64257 266
Width: 585
VWidth: 0
Flags: HW
PickledData: "(dp1
S'org.robofab.postScriptHintData'
p2
(dp3
sS'com.typemytype.robofont.layerData'
p4
(dp5
S'b'
(dp6
S'name'
p7
S'fi'
p8
sS'lib'
p9
(dp10
sS'unicodes'
p11
(tsS'width'
p12
F1237.6500000000001
sS'contours'
p13
((dp14
S'points'
p15
((dp16
S'segmentType'
p17
S'line'
p18
sS'x'
F249
sS'smooth'
p19
I00
sS'y'
F0
s(dp20
g17
S'line'
p21
sS'x'
F249
sg19
I00
sS'y'
F919
s(dp22
g17
S'line'
p23
sS'x'
F68
sg19
I00
sS'y'
F919
s(dp24
g17
S'line'
p25
sS'x'
F68
sg19
I00
sS'y'
F1026
s(dp26
g17
S'line'
p27
sS'x'
F249
sg19
I00
sS'y'
F1026
s(dp28
g17
S'line'
p29
sS'x'
F249
sg19
I01
sS'y'
F1127
s(dp30
S'y'
F1378
sS'x'
F249
sg19
I00
s(dp31
S'y'
F1492
sS'x'
F295
sg19
I00
s(dp32
g17
S'curve'
p33
sS'x'
F630
sg19
I01
sS'y'
F1492
s(dp34
g17
S'line'
p35
sS'x'
F676
sg19
I00
sS'y'
F1492
s(dp36
g17
S'line'
p37
sS'x'
F676
sg19
I00
sS'y'
F1364
s(dp38
S'y'
F1364
sS'x'
F431
sg19
I00
s(dp39
S'y'
F1311
sS'x'
F413
sg19
I00
s(dp40
g17
S'curve'
p41
sS'x'
F413
sg19
I01
sS'y'
F1150
s(dp42
g17
S'line'
p43
sS'x'
F413
sg19
I00
sS'y'
F1026
s(dp44
g17
S'line'
p45
sS'x'
F662
sg19
I00
sS'y'
F1026
s(dp46
g17
S'line'
p47
sS'x'
F662
sg19
I00
sS'y'
F919
s(dp48
g17
S'line'
p49
sS'x'
F413
sg19
I00
sS'y'
F919
s(dp50
g17
S'line'
p51
sS'x'
F413
sg19
I00
sS'y'
F0
stp52
s(dp53
g15
((dp54
g17
S'line'
p55
sS'x'
F869
sg19
I00
sS'y'
F0
s(dp56
g17
S'line'
p57
sS'x'
F869
sg19
I00
sS'y'
F1026
s(dp58
g17
S'line'
p59
sS'x'
F1033
sg19
I00
sS'y'
F1026
s(dp60
g17
S'line'
p61
sS'x'
F1033
sg19
I00
sS'y'
F0
stp62
s(dp63
g15
((dp64
g17
S'line'
p65
sS'x'
F869
sg19
I00
sS'y'
F1307
s(dp66
g17
S'line'
p67
sS'x'
F869
sg19
I00
sS'y'
F1462
s(dp68
g17
S'line'
p69
sS'x'
F1033
sg19
I00
sS'y'
F1462
s(dp70
g17
S'line'
p71
sS'x'
F1033
sg19
I00
sS'y'
F1307
stp72
stp73
sS'components'
p74
(tsS'anchors'
p75
(tsss."
LayerCount: 2
Fore
SplineSet
120 0 m 257
 190 0 l 257
 190 456 l 257
 422 456 l 257
 422 0 l 257
 491 0 l 257
 491 501 l 257
 190 501 l 257
 190 569 l 258
 190 643 198 673 322 673 c 257
 321 728 l 257
 300 728 l 258
 145 728 120 674 120 556 c 258
 120 501 l 257
 33 501 l 257
 33 456 l 257
 120 456 l 257
 120 0 l 257
422 643 m 257
 491 643 l 257
 491 711 l 257
 422 711 l 257
 422 643 l 257
EndSplineSet
EndChar

StartChar: five
Encoding: 53 53 267
Width: 587
VWidth: 0
Flags: HW
PickledData: "(dp1
S'org.robofab.postScriptHintData'
p2
(dp3
sS'com.typemytype.robofont.layerData'
p4
(dp5
s."
LayerCount: 2
Fore
SplineSet
283 -11 m 256
 211 -11 136 12 77 62 c 257
 107 116 l 257
 162 70 226 49 285 49 c 256
 381 49 453 110 453 224 c 256
 453 318 396 386 301 386 c 256
 247 386 194 363 170 324 c 257
 106 333 l 257
 112 711 l 257
 482 711 l 257
 482 649 l 257
 178 649 l 257
 167 393 l 257
 198 428 252 448 306 448 c 256
 439 448 528 356 528 223 c 256
 528 73 416 -11 283 -11 c 256
EndSplineSet
EndChar

StartChar: uniFB02
Encoding: 64258 64258 269
Width: 608
VWidth: 0
Flags: HW
PickledData: "(dp1
S'org.robofab.postScriptHintData'
p2
(dp3
sS'com.typemytype.robofont.layerData'
p4
(dp5
S'b'
(dp6
S'name'
p7
S'fl'
p8
sS'lib'
p9
(dp10
sS'unicodes'
p11
(tsS'width'
p12
F1252.7
sS'contours'
p13
(tsS'components'
p14
((dp15
S'transformation'
p16
(I1
I0
I0
I1
I20
I0
tp17
sS'baseGlyph'
p18
S'f'
s(dp19
g16
(I1
I0
I0
I1
I714
I0
tp20
sg18
S'l'
stp21
sS'anchors'
p22
(tsss."
LayerCount: 2
Fore
SplineSet
133 0 m 257
 133 458 l 257
 33 458 l 257
 33 501 l 257
 133 501 l 257
 133 552 l 258
 133 672 179 716 371 716 c 258
 518 716 l 257
 518 0 l 257
 448 0 l 257
 448 662 l 257
 365 662 l 258
 224 662 202 639 202 560 c 258
 202 501 l 257
 326 501 l 257
 326 458 l 257
 202 458 l 257
 202 0 l 257
 133 0 l 257
EndSplineSet
EndChar

StartChar: florin
Encoding: 402 402 270
Width: 509
VWidth: 0
Flags: HW
PickledData: "(dp1
S'org.robofab.postScriptHintData'
p2
(dp3
sS'com.typemytype.robofont.layerData'
p4
(dp5
S'b'
(dp6
S'name'
p7
S'florin'
p8
sS'lib'
p9
(dp10
sS'unicodes'
p11
(tsS'width'
p12
F1073.0999999999999
sS'contours'
p13
(tsS'components'
p14
(tsS'anchors'
p15
(tsss."
LayerCount: 2
Fore
SplineSet
97 -141 m 256
 80 -141 66 -138 47 -133 c 257
 53 -80 l 257
 58 -81 75 -86 86 -86 c 256
 140 -86 167 -50 176 0 c 258
 257 451 l 257
 178 451 l 257
 184 500 l 257
 266 500 l 257
 275 556 l 257
 289 648 324 723 432 723 c 256
 461 723 500 710 500 710 c 257
 492 658 l 257
 483 660 461 667 439 667 c 256
 373 667 356 633 347 584 c 257
 329 500 l 257
 441 500 l 257
 431 451 l 257
 323 451 l 257
 252 54 l 257
 233 -58 221 -141 97 -141 c 256
EndSplineSet
EndChar

StartChar: foundryicon
Encoding: 65539 -1 271
Width: 657
VWidth: 0
Flags: HW
PickledData: "(dp1
S'org.robofab.postScriptHintData'
p2
(dp3
s."
LayerCount: 2
Fore
SplineSet
237 198 m 257
 289 198 l 257
 289 270 l 257
 372 198 l 257
 423 198 l 257
 423 328 l 257
 372 328 l 257
 372 255 l 257
 289 328 l 257
 237 328 l 257
 237 198 l 257
137 1 m 257
 207 225 l 257
 17 369 l 257
 253 369 l 257
 327 593 l 257
 404 369 l 257
 641 369 l 257
 450 225 l 257
 521 1 l 257
 327 136 l 257
 137 1 l 257
EndSplineSet
EndChar

StartChar: four
Encoding: 52 52 272
Width: 587
VWidth: 0
Flags: HW
PickledData: "(dp1
S'org.robofab.postScriptHintData'
p2
(dp3
sS'com.typemytype.robofont.layerData'
p4
(dp5
S'b'
(dp6
S'name'
p7
S'four'
p8
sS'lib'
p9
(dp10
sS'unicodes'
p11
(tsS'width'
p12
F1234.0999999999999
sS'contours'
p13
(tsS'components'
p14
(tsS'anchors'
p15
(tsss."
LayerCount: 2
Fore
SplineSet
128 247 m 257
 370 247 l 257
 370 649 l 257
 291 513 209 381 128 247 c 257
371 0 m 257
 371 189 l 257
 50 189 l 257
 50 241 l 257
 342 711 l 257
 444 711 l 257
 444 247 l 257
 546 247 l 257
 546 189 l 257
 442 189 l 257
 442 0 l 257
 371 0 l 257
EndSplineSet
EndChar

StartChar: uni2074
Encoding: 8308 8308 273
Width: 503
VWidth: 0
Flags: HW
PickledData: "(dp1
S'org.robofab.postScriptHintData'
p2
(dp3
sS'com.typemytype.robofont.layerData'
p4
(dp5
s."
LayerCount: 2
Fore
SplineSet
159 458 m 257
 292 458 l 257
 292 649 l 257
 159 458 l 257
293 324 m 257
 293 415 l 257
 104 415 l 257
 104 455 l 257
 286 711 l 257
 343 711 l 257
 343 458 l 257
 390 458 l 257
 389 415 l 257
 342 415 l 257
 342 324 l 257
 293 324 l 257
EndSplineSet
EndChar

StartChar: fraction
Encoding: 8260 8260 274
Width: 504
VWidth: 0
Flags: HW
PickledData: "(dp1
S'org.robofab.postScriptHintData'
p2
(dp3
sS'com.typemytype.robofont.layerData'
p4
(dp5
S'b'
(dp6
S'name'
p7
S'fraction'
p8
sS'lib'
p9
(dp10
sS'unicodes'
p11
(tsS'width'
p12
F1077.8
sS'contours'
p13
(tsS'components'
p14
(tsS'anchors'
p15
(tsss."
LayerCount: 2
Fore
SplineSet
6 0 m 257
 450 711 l 257
 511 711 l 257
 67 0 l 257
 6 0 l 257
EndSplineSet
EndChar

StartChar: g
Encoding: 103 103 275
Width: 619
VWidth: 0
Flags: HW
PickledData: "(dp1
S'org.robofab.postScriptHintData'
p2
(dp3
sS'com.typemytype.robofont.layerData'
p4
(dp5
S'b'
(dp6
S'name'
p7
S'g'
sS'lib'
p8
(dp9
sS'unicodes'
p10
(tsS'width'
p11
I1254
sS'contours'
p12
((dp13
S'points'
p14
((dp15
S'segmentType'
p16
S'curve'
p17
sS'x'
F580
sS'smooth'
p18
I01
sS'y'
F134
s(dp19
S'y'
F134
sS'x'
F799
sg18
I00
s(dp20
S'y'
F295
sS'x'
F920
sg18
I00
s(dp21
g16
S'curve'
p22
sS'x'
F920
sg18
I01
sS'y'
F550
s(dp23
S'y'
F775
sS'x'
F920
sg18
I00
s(dp24
S'y'
F918
sS'x'
F796
sg18
I00
s(dp25
g16
S'curve'
p26
sS'x'
F600
sg18
I01
sS'y'
F918
s(dp27
S'y'
F918
sS'x'
F399
sg18
I00
s(dp28
S'y'
F762
sS'x'
F268
sg18
I00
s(dp29
g16
S'curve'
p30
sS'x'
F268
sg18
I01
sS'y'
F515
s(dp31
S'y'
F282
sS'x'
F268
sg18
I00
s(dp32
S'y'
F134
sS'x'
F389
sg18
I00
stp33
s(dp34
g14
((dp35
g16
S'curve'
p36
sS'x'
F534
sg18
I01
sS'y'
F-420
s(dp37
S'y'
F-420
sS'x'
F408
sg18
I00
s(dp38
S'y'
F-381
sS'x'
F289
sg18
I00
s(dp39
g16
S'curve'
p40
sS'x'
F189
sg18
I00
sS'y'
F-331
s(dp41
g16
S'line'
p42
sS'x'
F216
sg18
I00
sS'y'
F-187
s(dp43
S'y'
F-238
sS'x'
F300
sg18
I00
s(dp44
S'y'
F-282
sS'x'
F416
sg18
I00
s(dp45
g16
S'curve'
p46
sS'x'
F528
sg18
I01
sS'y'
F-282
s(dp47
S'y'
F-282
sS'x'
F790
sg18
I00
s(dp48
S'y'
F-183
sS'x'
F920
sg18
I00
s(dp49
g16
S'curve'
p50
sS'x'
F920
sg18
I01
sS'y'
F49
s(dp51
g16
S'line'
p52
sS'x'
F920
sg18
I00
sS'y'
F273
s(dp53
g16
S'line'
p54
sS'x'
F948
sg18
I00
sS'y'
F253
s(dp55
S'y'
F139
sS'x'
F905
sg18
I00
s(dp56
S'y'
F0
sS'x'
F802
sg18
I00
s(dp57
g16
S'curve'
p58
sS'x'
F579
sg18
I01
sS'y'
F0
s(dp59
S'y'
F0
sS'x'
F298
sg18
I00
s(dp60
S'y'
F201
sS'x'
F98
sg18
I00
s(dp61
g16
S'curve'
p62
sS'x'
F98
sg18
I01
sS'y'
F511
s(dp63
S'y'
F843
sS'x'
F98
sg18
I00
s(dp64
S'y'
F1052
sS'x'
F284
sg18
I00
s(dp65
g16
S'curve'
p66
sS'x'
F579
sg18
I01
sS'y'
F1052
s(dp67
S'y'
F1052
sS'x'
F820
sg18
I00
s(dp68
S'y'
F900
sS'x'
F903
sg18
I00
s(dp69
g16
S'curve'
p70
sS'x'
F958
sg18
I00
sS'y'
F798
s(dp71
g16
S'line'
p72
sS'x'
F919
sg18
I00
sS'y'
F787
s(dp73
g16
S'line'
p74
sS'x'
F926
sg18
I00
sS'y'
F1026
s(dp75
g16
S'line'
p76
sS'x'
F1090
sg18
I00
sS'y'
F1026
s(dp77
S'y'
F1026
sS'x'
F1090
sg18
I00
s(dp78
S'y'
F857
sS'x'
F1084
sg18
I00
s(dp79
g16
S'curve'
p80
sS'x'
F1084
sg18
I01
sS'y'
F773
s(dp81
g16
S'line'
p82
sS'x'
F1084
sg18
I01
sS'y'
F143
s(dp83
S'y'
F-255
sS'x'
F1084
sg18
I00
s(dp84
S'y'
F-420
sS'x'
F903
sg18
I00
stp85
stp86
sS'components'
p87
(tsS'anchors'
p88
(tsss."
AnchorPoint: "top" 276 501 basechar 0
LayerCount: 2
Fore
SplineSet
283 55 m 256
 395 55 458 135 458 255 c 256
 458 377 394 457 290 457 c 256
 184 457 119 375 119 252 c 256
 119 130 181 55 283 55 c 256
275 -210 m 256
 214 -210 155 -199 97 -173 c 257
 107 -113 l 257
 164 -141 220 -153 273 -153 c 256
 383 -153 458 -95 458 49 c 258
 458 104 l 257
 430 42 366 0 280 -0 c 256
 142 0 48 96 48 251 c 256
 48 407 136 514 284 514 c 256
 368 514 430 470 458 413 c 257
 461 501 l 257
 530 501 l 257
 530 501 526 414 526 387 c 258
 526 62 l 258
 526 -111 434 -210 275 -210 c 256
EndSplineSet
EndChar

StartChar: germandbls
Encoding: 223 223 282
Width: 608
VWidth: 0
Flags: HW
PickledData: "(dp1
S'org.robofab.postScriptHintData'
p2
(dp3
sS'com.typemytype.robofont.layerData'
p4
(dp5
S'b'
(dp6
S'name'
p7
S'germandbls'
p8
sS'lib'
p9
(dp10
sS'unicodes'
p11
(tsS'width'
p12
F1250.95
sS'contours'
p13
(tsS'components'
p14
(tsS'anchors'
p15
(tsss."
LayerCount: 2
Fore
SplineSet
323 409 m 257
 442 379 568 308 568 164 c 256
 568 56 488 -13 377 -13 c 256
 316 -13 253 6 224 18 c 257
 233 74 l 257
 261 63 320 44 366 44 c 256
 443 44 496 85 496 161 c 256
 496 265 425 323 267 380 c 257
 267 435 l 257
 396 470 419 515 419 582 c 256
 419 645 369 685 292 685 c 256
 203 685 157 620 157 510 c 258
 157 0 l 257
 89 0 l 257
 89 510 l 258
 89 661 163 741 293 741 c 256
 412 741 488 679 488 583 c 256
 488 494 445 449 349 417 c 256
 346 415 327 410 323 409 c 257
EndSplineSet
EndChar

StartChar: grave
Encoding: 96 96 283
Width: 287
VWidth: 0
Flags: HW
PickledData: "(dp1
S'org.robofab.postScriptHintData'
p2
(dp3
sS'com.typemytype.robofont.layerData'
p4
(dp5
s."
AnchorPoint: "top" 229 501 mark 0
LayerCount: 2
Fore
SplineSet
202 573 m 257
 42 729 l 257
 134 729 l 257
 252 573 l 257
 202 573 l 257
EndSplineSet
EndChar

StartChar: greater
Encoding: 62 62 284
Width: 561
VWidth: 0
Flags: HW
PickledData: "(dp1
S'org.robofab.postScriptHintData'
p2
(dp3
sS'com.typemytype.robofont.layerData'
p4
(dp5
S'b'
(dp6
S'name'
p7
S'greater'
p8
sS'lib'
p9
(dp10
sS'unicodes'
p11
(tsS'width'
p12
F1268.05
sS'contours'
p13
(tsS'components'
p14
(tsS'anchors'
p15
(tsss."
LayerCount: 2
Fore
SplineSet
104 42 m 257
 104 109 l 257
 440 269 l 257
 107 443 l 257
 107 510 l 257
 524 287 l 257
 524 247 l 257
 104 42 l 257
EndSplineSet
EndChar

StartChar: greaterequal
Encoding: 8805 8805 285
Width: 659
VWidth: 0
Flags: HW
PickledData: "(dp1
S'org.robofab.postScriptHintData'
p2
(dp3
sS'com.typemytype.robofont.layerData'
p4
(dp5
S'b'
(dp6
S'name'
p7
S'greaterequal'
p8
sS'lib'
p9
(dp10
sS'unicodes'
p11
(tsS'width'
p12
F1350.3499999999999
sS'contours'
p13
(tsS'components'
p14
(tsS'anchors'
p15
(tsss."
LayerCount: 2
Fore
SplineSet
122 0 m 257
 122 50 l 257
 567 50 l 257
 567 0 l 257
 122 0 l 257
128 89 m 257
 128 157 l 257
 466 314 l 257
 130 491 l 257
 130 557 l 257
 548 332 l 257
 548 291 l 257
 128 89 l 257
EndSplineSet
EndChar

StartChar: guillemotleft
Encoding: 171 171 286
Width: 526
VWidth: 0
Flags: HW
PickledData: "(dp1
S'org.robofab.postScriptHintData'
p2
(dp3
sS'com.typemytype.robofont.layerData'
p4
(dp5
S'b'
(dp6
S'name'
p7
S'guillemotright'
p8
sS'lib'
p9
(dp10
sS'unicodes'
p11
(tsS'width'
p12
F1122.45
sS'contours'
p13
(tsS'components'
p14
(tsS'anchors'
p15
(tsss."
LayerCount: 2
Fore
SplineSet
396 87 m 257
 266 266 l 257
 398 447 l 257
 466 447 l 257
 341 266 l 257
 462 87 l 257
 396 87 l 257
189 87 m 257
 59 266 l 257
 192 447 l 257
 259 447 l 257
 136 266 l 257
 255 87 l 257
 189 87 l 257
EndSplineSet
EndChar

StartChar: guillemotright
Encoding: 187 187 287
Width: 526
VWidth: 0
Flags: HW
PickledData: "(dp1
S'org.robofab.postScriptHintData'
p2
(dp3
sS'com.typemytype.robofont.layerData'
p4
(dp5
S'b'
(dp6
S'name'
p7
S'guillemotright'
p8
sS'lib'
p9
(dp10
sS'unicodes'
p11
(tsS'width'
p12
F1122.45
sS'contours'
p13
(tsS'components'
p14
(tsS'anchors'
p15
(tsss."
LayerCount: 2
Fore
SplineSet
267 85 m 257
 391 266 l 257
 271 445 l 257
 336 445 l 257
 467 266 l 257
 334 85 l 257
 267 85 l 257
61 85 m 257
 185 266 l 257
 64 445 l 257
 130 445 l 257
 261 266 l 257
 128 85 l 257
 61 85 l 257
EndSplineSet
EndChar

StartChar: guilsinglleft
Encoding: 8249 8249 288
Width: 322
VWidth: 0
Flags: HW
PickledData: "(dp1
S'org.robofab.postScriptHintData'
p2
(dp3
sS'com.typemytype.robofont.layerData'
p4
(dp5
S'b'
(dp6
S'name'
p7
S'guilsinglleft'
p8
sS'lib'
p9
(dp10
sS'unicodes'
p11
(tsS'width'
p12
F688.39999999999998
sS'contours'
p13
(tsS'components'
p14
(tsS'anchors'
p15
(tsss."
LayerCount: 2
Fore
SplineSet
198 85 m 257
 67 264 l 257
 200 445 l 257
 268 445 l 257
 144 265 l 257
 264 85 l 257
 198 85 l 257
EndSplineSet
EndChar

StartChar: guilsinglright
Encoding: 8250 8250 289
Width: 322
VWidth: 0
Flags: HW
PickledData: "(dp1
S'org.robofab.postScriptHintData'
p2
(dp3
sS'com.typemytype.robofont.layerData'
p4
(dp5
S'b'
(dp6
S'name'
p7
S'guilsinglleft'
p8
sS'lib'
p9
(dp10
sS'unicodes'
p11
(tsS'width'
p12
F688.39999999999998
sS'contours'
p13
(tsS'components'
p14
(tsS'anchors'
p15
(tsss."
LayerCount: 2
Fore
SplineSet
61 85 m 257
 185 266 l 257
 64 445 l 257
 130 445 l 257
 261 266 l 257
 128 85 l 257
 61 85 l 257
EndSplineSet
EndChar

StartChar: h
Encoding: 104 104 290
Width: 608
VWidth: 0
Flags: HW
PickledData: "(dp1
S'org.robofab.postScriptHintData'
p2
(dp3
sS'com.typemytype.robofont.layerData'
p4
(dp5
S'b'
(dp6
S'name'
p7
S'h'
sS'lib'
p8
(dp9
sS'unicodes'
p10
(tsS'width'
p11
F1237.95
sS'contours'
p12
((dp13
S'points'
p14
((dp15
S'segmentType'
p16
S'line'
p17
sS'x'
F178
sS'smooth'
p18
I00
sS'y'
F0
s(dp19
g16
S'line'
p20
sS'x'
F178
sg18
I01
sS'y'
F779
s(dp21
S'y'
F902
sS'x'
F178
sg18
I00
s(dp22
S'y'
F1026
sS'x'
F172
sg18
I00
s(dp23
g16
S'curve'
p24
sS'x'
F172
sg18
I00
sS'y'
F1026
s(dp25
g16
S'line'
p26
sS'x'
F339
sg18
I00
sS'y'
F1026
s(dp27
g16
S'line'
p28
sS'x'
F343
sg18
I00
sS'y'
F864
s(dp29
S'y'
F976
sS'x'
F423
sg18
I00
s(dp30
S'y'
F1051
sS'x'
F548
sg18
I00
s(dp31
g16
S'curve'
p32
sS'x'
F700
sg18
I01
sS'y'
F1051
s(dp33
S'y'
F1051
sS'x'
F999
sg18
I00
s(dp34
S'y'
F844
sS'x'
F1082
sg18
I00
s(dp35
g16
S'curve'
p36
sS'x'
F1082
sg18
I01
sS'y'
F550
s(dp37
g16
S'line'
p38
sS'x'
F1082
sg18
I00
sS'y'
F0
s(dp39
g16
S'line'
p40
sS'x'
F917
sg18
I00
sS'y'
F0
s(dp41
g16
S'line'
p42
sS'x'
F917
sg18
I01
sS'y'
F531
s(dp43
S'y'
F764
sS'x'
F917
sg18
I00
s(dp44
S'y'
F917
sS'x'
F886
sg18
I00
s(dp45
g16
S'curve'
p46
sS'x'
F670
sg18
I01
sS'y'
F917
s(dp47
S'y'
F917
sS'x'
F471
sg18
I00
s(dp48
S'y'
F742
sS'x'
F344
sg18
I00
s(dp49
g16
S'curve'
p50
sS'x'
F343
sg18
I00
sS'y'
F652
s(dp51
g16
S'line'
p52
sS'x'
F343
sg18
I00
sS'y'
F0
stp53
stp54
sS'components'
p55
(tsS'anchors'
p56
(tsss."
AnchorPoint: "top" 342 501 basechar 0
LayerCount: 2
Fore
SplineSet
88 0 m 257
 88 733 l 257
 157 733 l 257
 157 413 l 257
 190 472 258 514 342 514 c 256
 444 514 523 449 523 317 c 258
 523 0 l 257
 455 0 l 257
 455 311 l 258
 455 409 421 457 335 457 c 256
 241 457 157 384 157 305 c 258
 157 0 l 257
 88 0 l 257
EndSplineSet
EndChar

StartChar: hungarumlaut
Encoding: 733 733 293
Width: 473
VWidth: 0
Flags: HW
PickledData: "(dp1
S'org.robofab.postScriptHintData'
p2
(dp3
s."
AnchorPoint: "top" 158 501 mark 0
LayerCount: 2
Fore
SplineSet
201 570 m 257
 306 729 l 257
 385 729 l 257
 251 570 l 257
 201 570 l 257
58 570 m 257
 157 729 l 257
 230 729 l 257
 108 570 l 257
 58 570 l 257
EndSplineSet
EndChar

StartChar: hyphen
Encoding: 45 45 294
Width: 311
VWidth: 0
Flags: HW
PickledData: "(dp1
S'org.robofab.postScriptHintData'
p2
(dp3
sS'com.typemytype.robofont.layerData'
p4
(dp5
S'b'
(dp6
S'name'
p7
S'hyphen'
p8
sS'lib'
p9
(dp10
sS'unicodes'
p11
(tsS'width'
p12
F683.5
sS'contours'
p13
(tsS'components'
p14
(tsS'anchors'
p15
(tsss."
LayerCount: 2
Fore
SplineSet
31 248 m 257
 31 300 l 257
 279 300 l 257
 279 248 l 257
 31 248 l 257
EndSplineSet
EndChar

StartChar: i
Encoding: 105 105 295
Width: 247
VWidth: 0
Flags: HW
PickledData: "(dp1
S'org.robofab.postScriptHintData'
p2
(dp3
sS'com.typemytype.robofont.layerData'
p4
(dp5
S'b'
(dp6
S'name'
p7
S'i'
sS'lib'
p8
(dp9
sS'unicodes'
p10
(tsS'width'
p11
F521.10000000000002
sS'contours'
p12
(tsS'components'
p13
(tsS'anchors'
p14
(tsss."
LayerCount: 2
Fore
SplineSet
89 643 m 257
 89 711 l 257
 157 711 l 257
 157 643 l 257
 89 643 l 257
88 0 m 257
 88 501 l 257
 157 501 l 257
 157 0 l 257
 88 0 l 257
EndSplineSet
EndChar

StartChar: Delta
Encoding: 8710 8710 307
Width: 641
VWidth: 0
Flags: HW
PickledData: "(dp1
S'org.robofab.postScriptHintData'
p2
(dp3
sS'com.typemytype.robofont.layerData'
p4
(dp5
S'b'
(dp6
S'name'
p7
S'uni2206'
p8
sS'lib'
p9
(dp10
sS'unicodes'
p11
(tsS'width'
p12
F1312.25
sS'contours'
p13
(tsS'components'
p14
(tsS'anchors'
p15
(tsss."
LayerCount: 2
Fore
SplineSet
96 53 m 257
 538 53 l 257
 318 618 l 257
 96 53 l 257
24 0 m 257
 24 32 l 257
 297 709 l 257
 342 709 l 257
 612 32 l 257
 612 0 l 257
 24 0 l 257
EndSplineSet
EndChar

StartChar: infinity
Encoding: 8734 8734 308
Width: 839
VWidth: 0
Flags: HW
PickledData: "(dp1
S'org.robofab.postScriptHintData'
p2
(dp3
s."
LayerCount: 2
Fore
SplineSet
615 170 m 256
 688 170 724 227 724 301 c 256
 724 358 676 406 612 406 c 256
 547 406 491 348 450 288 c 257
 509 211 554 170 615 170 c 256
223 170 m 256
 287 170 339 222 385 286 c 257
 339 353 287 406 218 406 c 256
 148 406 105 351 105 288 c 256
 105 227 153 170 223 170 c 256
224 116 m 256
 119 116 47 199 47 297 c 256
 47 386 129 458 221 458 c 256
 301 458 363 408 419 335 c 257
 473 406 532 458 614 458 c 256
 720 458 788 387 788 289 c 256
 788 186 707 116 613 116 c 256
 541 116 482 157 418 239 c 257
 363 168 302 116 224 116 c 256
EndSplineSet
EndChar

StartChar: integral
Encoding: 8747 8747 309
Width: 342
VWidth: 0
Flags: HW
PickledData: "(dp1
S'org.robofab.postScriptHintData'
p2
(dp3
sS'com.typemytype.robofont.layerData'
p4
(dp5
S'b'
(dp6
S'name'
p7
S'integral'
p8
sS'lib'
p9
(dp10
sS'unicodes'
p11
(tsS'width'
p12
F754
sS'contours'
p13
(tsS'components'
p14
(tsS'anchors'
p15
(tsss."
LayerCount: 2
Fore
SplineSet
70 -144 m 256
 31 -144 8 -134 8 -134 c 257
 8 -77 l 257
 8 -77 37 -84 61 -84 c 256
 134 -84 147 -46 147 27 c 258
 147 591 l 258
 147 696 172 773 282 773 c 256
 323 773 339 764 339 764 c 257
 339 708 l 257
 339 708 321 714 294 714 c 256
 222 714 212 676 212 603 c 258
 212 40 l 258
 212 -65 180 -144 70 -144 c 256
EndSplineSet
EndChar

StartChar: j
Encoding: 106 106 312
Width: 245
VWidth: 0
Flags: HW
PickledData: "(dp1
S'org.robofab.postScriptHintData'
p2
(dp3
sS'com.typemytype.robofont.layerData'
p4
(dp5
S'b'
(dp6
S'name'
p7
S'j'
sS'lib'
p8
(dp9
sS'unicodes'
p10
(tsS'width'
p11
F536.89999999999998
sS'contours'
p12
((dp13
S'points'
p14
((dp15
S'segmentType'
p16
S'curve'
p17
sS'x'
F65
sS'smooth'
p18
I01
sS'y'
F-410
s(dp19
S'y'
F-410
sS'x'
F-24
sg18
I00
s(dp20
S'y'
F-390
sS'x'
F-117
sg18
I00
s(dp21
g16
S'curve'
p22
sS'x'
F-117
sg18
I00
sS'y'
F-390
s(dp23
g16
S'line'
p24
sS'x'
F-102
sg18
I00
sS'y'
F-267
s(dp25
S'y'
F-267
sS'x'
F-102
sg18
I00
s(dp26
S'y'
F-280
sS'x'
F-44
sg18
I00
s(dp27
g16
S'curve'
p28
sS'x'
F19
sg18
I01
sS'y'
F-280
s(dp29
S'y'
F-280
sS'x'
F153
sg18
I00
s(dp30
S'y'
F-208
sS'x'
F177
sg18
I00
s(dp31
g16
S'curve'
p32
sS'x'
F177
sg18
I01
sS'y'
F-2
s(dp33
g16
S'line'
p34
sS'x'
F177
sg18
I00
sS'y'
F1026
s(dp35
g16
S'line'
p36
sS'x'
F341
sg18
I00
sS'y'
F1026
s(dp37
g16
S'line'
p38
sS'x'
F341
sg18
I01
sS'y'
F-6
s(dp39
S'y'
F-274
sS'x'
F341
sg18
I00
s(dp40
S'y'
F-410
sS'x'
F246
sg18
I00
stp41
s(dp42
g14
((dp43
g16
S'line'
p44
sS'x'
F177
sg18
I00
sS'y'
F1307
s(dp45
g16
S'line'
p46
sS'x'
F177
sg18
I00
sS'y'
F1462
s(dp47
g16
S'line'
p48
sS'x'
F341
sg18
I00
sS'y'
F1462
s(dp49
g16
S'line'
p50
sS'x'
F341
sg18
I00
sS'y'
F1307
stp51
stp52
sS'components'
p53
(tsS'anchors'
p54
(tsss."
LayerCount: 2
Fore
SplineSet
92 641 m 257
 92 711 l 257
 160 711 l 257
 160 641 l 257
 92 641 l 257
EndSplineSet
Refer: 235 567 N 1 0 0 1 0 0 2
EndChar

StartChar: k
Encoding: 107 107 315
Width: 526
VWidth: 0
Flags: HW
PickledData: "(dp1
S'org.robofab.postScriptHintData'
p2
(dp3
sS'com.typemytype.robofont.layerData'
p4
(dp5
S'b'
(dp6
S'name'
p7
S'k'
sS'lib'
p8
(dp9
sS'unicodes'
p10
(tsS'width'
p11
F1078.6500000000001
sS'contours'
p12
(tsS'components'
p13
(tsS'anchors'
p14
(tsss."
AnchorPoint: "top" 331 501 basechar 0
LayerCount: 2
Fore
SplineSet
90 0 m 257
 90 733 l 257
 159 733 l 257
 159 277 l 257
 401 501 l 257
 495 501 l 257
 231 264 l 257
 514 0 l 257
 423 0 l 257
 159 249 l 257
 159 0 l 257
 90 0 l 257
EndSplineSet
EndChar

StartChar: kgreenlandic
Encoding: 312 312 318
Width: 528
VWidth: 0
Flags: HW
PickledData: "(dp1
S'org.robofab.postScriptHintData'
p2
(dp3
sS'com.typemytype.robofont.layerData'
p4
(dp5
s."
LayerCount: 2
Fore
SplineSet
91 0 m 257
 91 501 l 257
 161 501 l 257
 161 268 l 257
 403 501 l 257
 497 501 l 257
 231 252 l 257
 516 0 l 257
 424 0 l 257
 161 236 l 257
 161 0 l 257
 91 0 l 257
EndSplineSet
EndChar

StartChar: l
Encoding: 108 108 319
Width: 252
VWidth: 0
Flags: HW
PickledData: "(dp1
S'org.robofab.postScriptHintData'
p2
(dp3
sS'com.typemytype.robofont.layerData'
p4
(dp5
S'b'
(dp6
S'name'
p7
S'l'
sS'lib'
p8
(dp9
sS'unicodes'
p10
(tsS'width'
p11
F521.79999999999995
sS'contours'
p12
(tsS'components'
p13
(tsS'anchors'
p14
(tsss."
AnchorPoint: "top" 126 711 basechar 0
AnchorPoint: "caron.alt" 105 501 basechar 0
LayerCount: 2
Fore
SplineSet
93 0 m 257
 93 733 l 257
 162 733 l 257
 162 0 l 257
 93 0 l 257
EndSplineSet
EndChar

StartChar: less
Encoding: 60 60 324
Width: 561
VWidth: 0
Flags: HW
PickledData: "(dp1
S'org.robofab.postScriptHintData'
p2
(dp3
sS'com.typemytype.robofont.layerData'
p4
(dp5
S'b'
(dp6
S'name'
p7
S'less'
p8
sS'lib'
p9
(dp10
sS'unicodes'
p11
(tsS'width'
p12
F1267.3499999999999
sS'contours'
p13
(tsS'components'
p14
(tsS'anchors'
p15
(tsss."
LayerCount: 2
Fore
SplineSet
455 43 m 257
 37 268 l 257
 37 309 l 257
 457 510 l 257
 457 443 l 257
 119 286 l 257
 455 109 l 257
 455 43 l 257
EndSplineSet
EndChar

StartChar: lessequal
Encoding: 8804 8804 325
Width: 659
VWidth: 0
Flags: HW
PickledData: "(dp1
S'org.robofab.postScriptHintData'
p2
(dp3
sS'com.typemytype.robofont.layerData'
p4
(dp5
S'b'
(dp6
S'name'
p7
S'lessequal'
p8
sS'lib'
p9
(dp10
sS'unicodes'
p11
(tsS'width'
p12
F1350.3499999999999
sS'contours'
p13
(tsS'components'
p14
(tsS'anchors'
p15
(tsss."
LayerCount: 2
Fore
SplineSet
104 0 m 257
 104 50 l 257
 549 50 l 257
 549 0 l 257
 104 0 l 257
538 90 m 257
 120 315 l 257
 120 356 l 257
 541 557 l 257
 541 490 l 257
 202 333 l 257
 538 156 l 257
 538 90 l 257
EndSplineSet
EndChar

StartChar: logicalnot
Encoding: 172 172 327
Width: 716
VWidth: 0
Flags: HW
PickledData: "(dp1
S'org.robofab.postScriptHintData'
p2
(dp3
sS'com.typemytype.robofont.layerData'
p4
(dp5
S'b'
(dp6
S'name'
p7
S'logicalnot'
p8
sS'lib'
p9
(dp10
sS'unicodes'
p11
(tsS'width'
p12
F1463.2
sS'contours'
p13
(tsS'components'
p14
(tsS'anchors'
p15
(tsss."
LayerCount: 2
Fore
SplineSet
554 118 m 257
 554 327 l 257
 107 327 l 257
 107 388 l 257
 617 388 l 257
 617 118 l 257
 554 118 l 257
EndSplineSet
EndChar

StartChar: lozenge
Encoding: 9674 9674 329
Width: 609
VWidth: 0
Flags: HW
PickledData: "(dp1
S'org.robofab.postScriptHintData'
p2
(dp3
sS'com.typemytype.robofont.layerData'
p4
(dp5
s."
LayerCount: 2
Fore
SplineSet
303 34 m 257
 491 349 l 257
 309 666 l 257
 121 350 l 257
 303 34 l 257
281 -22 m 257
 60 349 l 257
 285 722 l 257
 330 722 l 257
 553 350 l 257
 326 -22 l 257
 281 -22 l 257
EndSplineSet
EndChar

StartChar: lslash
Encoding: 322 322 330
Width: 245
VWidth: 0
Flags: HW
PickledData: "(dp1
S'org.robofab.postScriptHintData'
p2
(dp3
s."
LayerCount: 2
Fore
SplineSet
88 0 m 257
 88 333 l 257
 -1 284 l 257
 -1 341 l 257
 88 390 l 257
 88 732 l 257
 158 732 l 257
 158 429 l 257
 250 479 l 257
 250 422 l 257
 158 372 l 257
 158 0 l 257
 88 0 l 257
EndSplineSet
EndChar

StartChar: m
Encoding: 109 109 331
Width: 934
VWidth: 0
Flags: HW
PickledData: "(dp1
S'org.robofab.postScriptHintData'
p2
(dp3
sS'com.typemytype.robofont.guides'
p4
(tsS'com.typemytype.robofont.layerData'
p5
(dp6
S'b'
(dp7
S'name'
p8
S'm'
sS'lib'
p9
(dp10
sS'unicodes'
p11
(tsS'width'
p12
F1873.95
sS'contours'
p13
(tsS'components'
p14
(tsS'anchors'
p15
(tsss."
AnchorPoint: "top" 487 501 basechar 0
LayerCount: 2
Fore
SplineSet
93 0 m 257
 93 400 l 258
 93 437 90 486 89 501 c 257
 157 501 l 257
 160 410 l 257
 191 477 256 514 334 514 c 256
 413 514 469 473 491 395 c 257
 527 473 596 514 677 514 c 256
 791 514 849 438 849 305 c 258
 849 0 l 257
 780 0 l 257
 780 302 l 258
 780 400 746 457 673 457 c 256
 581 457 518 394 506 296 c 257
 506 0 l 257
 437 0 l 257
 437 306 l 258
 437 398 403 457 327 457 c 256
 239 457 177 401 162 318 c 257
 162 0 l 257
 93 0 l 257
EndSplineSet
EndChar

StartChar: macron
Encoding: 175 175 332
Width: 340
VWidth: 0
Flags: HW
PickledData: "(dp1
S'org.robofab.postScriptHintData'
p2
(dp3
sS'com.typemytype.robofont.layerData'
p4
(dp5
S'b'
(dp6
S'name'
p7
S'macron'
p8
sS'lib'
p9
(dp10
sS'unicodes'
p11
(tsS'width'
p12
F723
sS'contours'
p13
(tsS'components'
p14
(tsS'anchors'
p15
(tsss."
AnchorPoint: "top" 167 501 mark 0
LayerCount: 2
Fore
SplineSet
34 605 m 257
 34 653 l 257
 306 653 l 257
 306 605 l 257
 34 605 l 257
EndSplineSet
EndChar

StartChar: minus
Encoding: 8722 8722 335
Width: 560
VWidth: 0
Flags: HW
PickledData: "(dp1
S'org.robofab.postScriptHintData'
p2
(dp3
s."
LayerCount: 2
Fore
SplineSet
76 266 m 257
 76 325 l 257
 484 325 l 257
 484 266 l 257
 76 266 l 257
EndSplineSet
EndChar

StartChar: mu
Encoding: 181 181 336
Width: 1260
VWidth: 0
Flags: W
LayerCount: 2
Fore
SplineSet
320 -304 m 257
 179 -302 l 257
 179 1026 l 257
 320 1026 l 257
 320 400 l 258
 320 196 411 92 585 92 c 256
 805 92 922 253 922 379 c 258
 922 1026 l 257
 1064 1026 l 257
 1064 239 l 258
 1064 144 1068 46 1071 0 c 257
 932 0 l 257
 925 178 l 257
 859 65 744 -24 570 -24 c 256
 463 -24 379 3 320 57 c 257
 320 -304 l 257
EndSplineSet
EndChar

StartChar: multiply
Encoding: 215 215 337
Width: 587
VWidth: 0
Flags: HW
PickledData: "(dp1
S'org.robofab.postScriptHintData'
p2
(dp3
sS'com.typemytype.robofont.layerData'
p4
(dp5
s."
LayerCount: 2
Fore
SplineSet
148 79 m 257
 105 123 l 257
 253 271 l 257
 105 419 l 257
 148 463 l 257
 296 315 l 257
 444 463 l 257
 488 418 l 257
 339 271 l 257
 488 124 l 257
 444 79 l 257
 296 227 l 257
 148 79 l 257
EndSplineSet
EndChar

StartChar: n
Encoding: 110 110 338
Width: 610
VWidth: 0
Flags: HW
PickledData: "(dp1
S'org.robofab.postScriptHintData'
p2
(dp3
sS'com.typemytype.robofont.layerData'
p4
(dp5
S'b'
(dp6
S'name'
p7
S'n'
sS'lib'
p8
(dp9
sS'unicodes'
p10
(tsS'width'
p11
F1240.05
sS'contours'
p12
(tsS'components'
p13
(tsS'anchors'
p14
(tsss."
AnchorPoint: "top" 329 501 basechar 0
LayerCount: 2
Fore
SplineSet
93 0 m 257
 93 396 l 258
 93 443 88 501 88 501 c 257
 157 501 l 257
 160 411 l 257
 194 478 265 514 343 514 c 256
 467 514 526 439 526 293 c 258
 526 0 l 257
 457 0 l 257
 457 293 l 258
 457 400 423 457 335 457 c 256
 249 457 177 402 162 322 c 257
 162 0 l 257
 93 0 l 257
EndSplineSet
EndChar

StartChar: nine
Encoding: 57 57 343
Width: 589
VWidth: 0
Flags: HW
PickledData: "(dp1
S'org.robofab.postScriptHintData'
p2
(dp3
sS'com.typemytype.robofont.layerData'
p4
(dp5
S'b'
(dp6
S'name'
p7
S'nine'
p8
sS'lib'
p9
(dp10
sS'unicodes'
p11
(tsS'width'
p12
F1235.4000000000001
sS'contours'
p13
((dp14
S'points'
p15
((dp16
S'segmentType'
p17
S'curve'
p18
sS'x'
F314
sS'smooth'
p19
I01
sS'y'
F1010
s(dp20
S'y'
F827
sS'x'
F314
sg19
I00
s(dp21
S'y'
F687
sS'x'
F393
sg19
I00
s(dp22
g17
S'curve'
p23
sS'x'
F604
sg19
I01
sS'y'
F687
s(dp24
S'y'
F687
sS'x'
F784
sg19
I00
s(dp25
S'y'
F803
sS'x'
F908
sg19
I00
s(dp26
g17
S'curve'
p27
sS'x'
F908
sg19
I01
sS'y'
F991
s(dp28
S'y'
F1166
sS'x'
F908
sg19
I00
s(dp29
S'y'
F1334
sS'x'
F815
sg19
I00
s(dp30
g17
S'curve'
p31
sS'x'
F605
sg19
I01
sS'y'
F1334
s(dp32
S'y'
F1334
sS'x'
F419
sg19
I00
s(dp33
S'y'
F1196
sS'x'
F314
sg19
I00
stp34
s(dp35
g15
((dp36
g17
S'curve'
p37
sS'x'
F555
sg19
I01
sS'y'
F-24
s(dp38
S'y'
F-24
sS'x'
F434
sg19
I00
s(dp39
S'y'
F13
sS'x'
F304
sg19
I00
s(dp40
g17
S'curve'
p41
sS'x'
F175
sg19
I00
sS'y'
F79
s(dp42
g17
S'line'
p43
sS'x'
F232
sg19
I00
sS'y'
F211
s(dp44
S'y'
F152
sS'x'
F346
sg19
I00
s(dp45
S'y'
F124
sS'x'
F450
sg19
I00
s(dp46
g17
S'curve'
p47
sS'x'
F542
sg19
I01
sS'y'
F124
s(dp48
S'y'
F124
sS'x'
F773
sg19
I00
s(dp49
S'y'
F308
sS'x'
F920
sg19
I00
s(dp50
g17
S'curve'
p51
sS'x'
F920
sg19
I01
sS'y'
F657
s(dp52
g17
S'line'
p53
sS'x'
F920
sg19
I00
sS'y'
F722
s(dp54
S'y'
F600
sS'x'
F856
sg19
I00
s(dp55
S'y'
F544
sS'x'
F742
sg19
I00
s(dp56
g17
S'curve'
p57
sS'x'
F577
sg19
I01
sS'y'
F544
s(dp58
S'y'
F544
sS'x'
F298
sg19
I00
s(dp59
S'y'
F735
sS'x'
F138
sg19
I00
s(dp60
g17
S'curve'
p61
sS'x'
F138
sg19
I01
sS'y'
F1004
s(dp62
S'y'
F1275
sS'x'
F138
sg19
I00
s(dp63
S'y'
F1483
sS'x'
F311
sg19
I00
s(dp64
g17
S'curve'
p65
sS'x'
F613
sg19
I01
sS'y'
F1483
s(dp66
S'y'
F1483
sS'x'
F939
sg19
I00
s(dp67
S'y'
F1231
sS'x'
F1095
sg19
I00
s(dp68
g17
S'curve'
p69
sS'x'
F1095
sg19
I01
sS'y'
F774
s(dp70
S'y'
F203
sS'x'
F1095
sg19
I00
s(dp71
S'y'
F-24
sS'x'
F855
sg19
I00
stp72
stp73
sS'components'
p74
(tsS'anchors'
p75
(tsss."
LayerCount: 2
Fore
SplineSet
282 324 m 256
 388 324 451 397 451 462 c 256
 451 562 409 664 290 664 c 256
 191 664 137 589 137 491 c 256
 137 398 179 324 282 324 c 256
266 -11 m 256
 203 -11 148 10 105 36 c 257
 132 92 l 257
 166 69 212 49 263 49 c 256
 410 49 455 202 456 326 c 256
 456 334 457 349 457 354 c 257
 433 309 367 264 277 264 c 256
 152 264 62 353 62 490 c 256
 62 622 149 724 290 724 c 256
 456 724 530 590 530 377 c 256
 530 148 440 -11 266 -11 c 256
EndSplineSet
EndChar

StartChar: notequal
Encoding: 8800 8800 345
Width: 655
VWidth: 0
Flags: HW
PickledData: "(dp1
S'org.robofab.postScriptHintData'
p2
(dp3
sS'com.typemytype.robofont.layerData'
p4
(dp5
S'b'
(dp6
S'name'
p7
S'notequal'
p8
sS'lib'
p9
(dp10
sS'unicodes'
p11
(tsS'width'
p12
F1362.5
sS'contours'
p13
(tsS'components'
p14
(tsS'anchors'
p15
(tsss."
LayerCount: 2
Fore
SplineSet
222 23 m 257
 171 31 l 257
 236 161 l 257
 83 161 l 257
 83 212 l 257
 261 212 l 257
 339 362 l 257
 83 362 l 257
 83 413 l 257
 363 413 l 257
 431 549 l 257
 482 541 l 257
 418 413 l 257
 576 413 l 257
 576 362 l 257
 394 362 l 257
 316 212 l 257
 576 212 l 257
 576 161 l 257
 291 161 l 257
 222 23 l 257
EndSplineSet
EndChar

StartChar: numbersign
Encoding: 35 35 347
Width: 658
VWidth: 0
Flags: HW
PickledData: "(dp1
S'org.robofab.postScriptHintData'
p2
(dp3
sS'com.typemytype.robofont.layerData'
p4
(dp5
s."
LayerCount: 2
Fore
SplineSet
239 295 m 257
 390 295 l 257
 419 446 l 257
 269 446 l 257
 239 295 l 257
135 37 m 257
 176 251 l 257
 51 251 l 257
 55 295 l 257
 185 295 l 257
 213 446 l 257
 86 446 l 257
 91 491 l 257
 221 491 l 257
 259 688 l 257
 315 688 l 257
 278 491 l 257
 428 491 l 257
 465 688 l 257
 520 688 l 257
 481 491 l 257
 603 491 l 257
 597 446 l 257
 474 446 l 257
 445 295 l 257
 569 295 l 257
 563 251 l 257
 437 251 l 257
 396 37 l 257
 342 37 l 257
 382 251 l 257
 231 251 l 257
 189 37 l 257
 135 37 l 257
EndSplineSet
EndChar

StartChar: o
Encoding: 111 111 348
Width: 607
VWidth: 0
Flags: HW
PickledData: "(dp1
S'org.robofab.postScriptHintData'
p2
(dp3
sS'com.typemytype.robofont.layerData'
p4
(dp5
S'b'
(dp6
S'name'
p7
S'o'
sS'lib'
p8
(dp9
sS'unicodes'
p10
(tsS'width'
p11
F1259.2
sS'contours'
p12
(tsS'components'
p13
(tsS'anchors'
p14
(tsss."
AnchorPoint: "top" 305 501 basechar 0
LayerCount: 2
Fore
SplineSet
304 -10 m 256
 144 -10 48 96 48 250 c 256
 48 408 145 514 305 514 c 256
 465 514 560 408 560 250 c 256
 560 96 463 -10 304 -10 c 256
304 46 m 256
 423 46 488 129 488 250 c 256
 488 375 422 457 304 457 c 256
 185 457 120 375 120 250 c 256
 120 129 184 46 304 46 c 256
EndSplineSet
EndChar

StartChar: oe
Encoding: 339 339 355
Width: 958
VWidth: 0
Flags: HW
PickledData: "(dp1
S'org.robofab.postScriptHintData'
p2
(dp3
sS'com.typemytype.robofont.layerData'
p4
(dp5
S'b'
(dp6
S'name'
p7
S'oe'
p8
sS'lib'
p9
(dp10
sS'unicodes'
p11
(tsS'width'
p12
F1979.8
sS'contours'
p13
(tsS'components'
p14
((dp15
S'transformation'
p16
(I1
I0
I0
I1
I-6
I0
tp17
sS'baseGlyph'
p18
S'o'
s(dp19
g16
(I1
I0
I0
I1
I811
I0
tp20
sg18
S'e'
stp21
sS'anchors'
p22
(tsss."
LayerCount: 2
Fore
SplineSet
533 291 m 257
 850 291 l 257
 850 298 849 308 849 312 c 256
 840 398 782 457 696 457 c 256
 602 457 535 388 533 291 c 257
298 46 m 256
 405 46 466 132 466 250 c 256
 466 373 405 457 298 457 c 256
 186 457 118 372 118 247 c 256
 118 129 183 46 298 46 c 256
533 239 m 257
 533 122 598 46 711 46 c 256
 780 46 842 80 870 101 c 257
 893 51 l 257
 863 28 793 -10 704 -10 c 256
 615 -10 531 38 498 113 c 257
 467 38 388 -10 297 -10 c 256
 140 -10 44 95 44 248 c 256
 44 404 140 514 299 514 c 256
 394 514 465 465 498 388 c 257
 526 467 599 514 696 514 c 256
 830 514 912 414 912 264 c 258
 912 239 l 257
 533 239 l 257
EndSplineSet
EndChar

StartChar: ogonek
Encoding: 731 731 356
Width: 248
VWidth: 0
Flags: HW
PickledData: "(dp1
S'org.robofab.postScriptHintData'
p2
(dp3
s."
LayerCount: 2
Fore
SplineSet
149 -213 m 256
 87 -213 35 -176 35 -119 c 256
 35 -72 76 -26 128 5 c 257
 174 3 l 257
 124 -32 99 -79 99 -109 c 256
 99 -140 119 -162 159 -162 c 256
 175 -162 194 -158 210 -153 c 257
 210 -204 l 257
 189 -210 169 -213 149 -213 c 256
EndSplineSet
EndChar

StartChar: one
Encoding: 49 49 361
Width: 587
VWidth: 0
Flags: HW
PickledData: "(dp1
S'org.robofab.postScriptHintData'
p2
(dp3
sS'com.typemytype.robofont.layerData'
p4
(dp5
S'b'
(dp6
S'name'
p7
S'one'
p8
sS'lib'
p9
(dp10
sS'unicodes'
p11
(tsS'width'
p12
F1234.0999999999999
sS'contours'
p13
(tsS'components'
p14
(tsS'anchors'
p15
(tsss."
LayerCount: 2
Fore
SplineSet
134 0 m 257
 134 58 l 257
 274 58 l 257
 274 627 l 257
 228 600 175 581 127 561 c 257
 127 627 l 257
 176 645 256 684 299 711 c 257
 348 711 l 257
 348 58 l 257
 478 58 l 257
 478 0 l 257
 134 0 l 257
EndSplineSet
EndChar

StartChar: onehalf
Encoding: 189 189 362
Width: 900
VWidth: 0
Flags: HW
PickledData: "(dp1
S'org.robofab.postScriptHintData'
p2
(dp3
sS'com.typemytype.robofont.layerData'
p4
(dp5
s."
LayerCount: 2
Fore
SplineSet
82 312 m 257
 82 355 l 257
 160 355 l 257
 160 656 l 257
 80 622 l 257
 80 669 l 257
 86 671 163 709 167 711 c 257
 212 711 l 257
 212 354 l 257
 283 354 l 257
 283 312 l 257
 82 312 l 257
178 0 m 257
 625 711 l 257
 680 711 l 257
 237 0 l 257
 178 0 l 257
673 407 m 256
 753 407 798 361 798 294 c 256
 798 237 772 205 708 145 c 257
 607 47 l 257
 799 47 l 257
 799 0 l 257
 537 0 l 257
 537 48 l 257
 675 184 l 258
 729 237 744 260 744 293 c 256
 744 329 725 360 671 360 c 256
 630 360 592 340 579 290 c 257
 542 314 l 257
 558 373 608 407 673 407 c 256
EndSplineSet
EndChar

StartChar: onequarter
Encoding: 188 188 363
Width: 884
VWidth: 0
Flags: HW
PickledData: "(dp1
S'org.robofab.postScriptHintData'
p2
(dp3
sS'com.typemytype.robofont.layerData'
p4
(dp5
s."
LayerCount: 2
Fore
SplineSet
549 136 m 257
 684 136 l 257
 684 327 l 257
 549 136 l 257
199 0 m 257
 646 711 l 257
 701 711 l 257
 258 0 l 257
 199 0 l 257
685 0 m 257
 685 91 l 257
 497 91 l 257
 497 131 l 257
 678 387 l 257
 737 387 l 257
 737 136 l 257
 785 136 l 257
 784 91 l 257
 736 91 l 257
 736 0 l 257
 685 0 l 257
83 312 m 257
 83 355 l 257
 162 355 l 257
 162 656 l 257
 81 622 l 257
 82 669 l 257
 88 671 165 709 169 711 c 257
 214 711 l 257
 214 354 l 257
 285 354 l 257
 285 312 l 257
 83 312 l 257
EndSplineSet
EndChar

StartChar: uni00B9
Encoding: 185 185 364
Width: 476
VWidth: 0
Flags: HW
PickledData: "(dp1
S'org.robofab.postScriptHintData'
p2
(dp3
sS'com.typemytype.robofont.layerData'
p4
(dp5
s."
LayerCount: 2
Fore
SplineSet
138 309 m 257
 138 353 l 257
 212 353 l 257
 212 650 l 257
 207 647 141 618 135 615 c 257
 135 665 l 257
 144 668 213 702 219 705 c 257
 262 707 l 257
 262 353 l 257
 331 353 l 257
 331 309 l 257
 138 309 l 257
EndSplineSet
EndChar

StartChar: ordfeminine
Encoding: 170 170 366
Width: 361
VWidth: 0
Flags: HW
PickledData: "(dp1
S'org.robofab.postScriptHintData'
p2
(dp3
sS'com.typemytype.robofont.layerData'
p4
(dp5
S'b'
(dp6
S'name'
p7
S'ordfeminine'
p8
sS'lib'
p9
(dp10
sS'unicodes'
p11
(tsS'width'
p12
F797.10000000000002
sS'contours'
p13
(tsS'components'
p14
(tsS'anchors'
p15
(tsss."
LayerCount: 2
Fore
SplineSet
166 427 m 256
 238 427 266 477 266 530 c 258
 266 543 l 257
 258 543 250 543 242 543 c 256
 147 543 97 542 97 485 c 256
 97 446 122 427 166 427 c 256
158 381 m 256
 86 381 39 421 39 481 c 256
 39 542 86 581 181 581 c 258
 265 581 l 257
 265 593 l 258
 265 652 250 677 191 677 c 256
 129 677 74 650 74 650 c 257
 59 690 l 257
 59 690 117 723 192 723 c 256
 261 723 319 691 321 613 c 256
 321 601 319 448 319 448 c 257
 319 448 320 436 323 389 c 257
 266 389 l 257
 265 434 l 257
 244 400 202 381 158 381 c 256
EndSplineSet
EndChar

StartChar: ordmasculine
Encoding: 186 186 367
Width: 423
VWidth: 0
Flags: HW
PickledData: "(dp1
S'org.robofab.postScriptHintData'
p2
(dp3
sS'com.typemytype.robofont.layerData'
p4
(dp5
S'b'
(dp6
S'name'
p7
S'ordmasculine'
p8
sS'lib'
p9
(dp10
sS'unicodes'
p11
(tsS'width'
p12
F887.85000000000002
sS'contours'
p13
(tsS'components'
p14
(tsS'anchors'
p15
(tsss."
LayerCount: 2
Fore
SplineSet
213 380 m 256
 98 380 39 456 39 553 c 256
 39 649 102 724 213 724 c 256
 326 724 385 649 385 552 c 256
 385 458 324 380 213 380 c 256
214 433 m 256
 282 433 324 478 324 550 c 256
 324 625 282 670 212 670 c 256
 145 670 103 625 103 552 c 256
 103 477 142 433 214 433 c 256
EndSplineSet
EndChar

StartChar: oslash
Encoding: 248 248 368
Width: 606
VWidth: 0
Flags: HW
PickledData: "(dp1
S'org.robofab.postScriptHintData'
p2
(dp3
sS'com.typemytype.robofont.layerData'
p4
(dp5
S'b'
(dp6
S'name'
p7
S'oslash'
p8
sS'lib'
p9
(dp10
sS'unicodes'
p11
(tsS'width'
p12
F1255
sS'contours'
p13
(tsS'components'
p14
(tsS'anchors'
p15
(tsss."
LayerCount: 2
Fore
SplineSet
304 -10 m 256
 463 -10 560 96 560 250 c 256
 560 361 513 446 430 487 c 257
 476 590 l 257
 442 604 l 257
 396 500 l 257
 369 509 338 514 305 514 c 256
 145 514 48 408 48 250 c 256
 48 141 96 55 181 15 c 257
 133 -94 l 257
 165 -108 l 257
 214 3 l 257
 241 -5 271 -10 304 -10 c 256
405 431 m 257
 459 397 488 333 488 250 c 256
 488 129 423 46 304 46 c 256
 280 46 258 50 238 56 c 257
 405 431 l 257
372 446 m 257
 206 71 l 257
 150 104 120 168 120 250 c 256
 120 375 185 457 304 457 c 256
 329 457 352 453 372 446 c 257
EndSplineSet
EndChar

StartChar: p
Encoding: 112 112 371
Width: 616
VWidth: 0
Flags: HW
PickledData: "(dp1
S'org.robofab.postScriptHintData'
p2
(dp3
sS'com.typemytype.robofont.layerData'
p4
(dp5
S'b'
(dp6
S'name'
p7
S'p'
sS'lib'
p8
(dp9
sS'unicodes'
p10
(tsS'width'
p11
F1260.25
sS'contours'
p12
(tsS'components'
p13
(tsS'anchors'
p14
(tsss."
AnchorPoint: "top" 337 501 basechar 0
LayerCount: 2
Fore
SplineSet
335 45 m 256
 440 45 498 127 498 250 c 256
 498 373 439 456 335 456 c 256
 226 456 160 368 160 243 c 256
 160 122 226 45 335 45 c 256
93 -224 m 257
 93 363 l 258
 93 410 89 480 88 501 c 257
 160 501 l 257
 161 396 l 257
 184 461 257 512 343 512 c 256
 481 512 569 406 569 251 c 256
 569 96 481 -12 342 -12 c 256
 257 -12 186 31 162 92 c 257
 162 -224 l 257
 93 -224 l 257
EndSplineSet
EndChar

StartChar: paragraph
Encoding: 182 182 372
Width: 586
VWidth: 0
Flags: HW
PickledData: "(dp1
S'org.robofab.postScriptHintData'
p2
(dp3
sS'com.typemytype.robofont.layerData'
p4
(dp5
S'b'
(dp6
S'name'
p7
S'paragraph'
p8
sS'lib'
p9
(dp10
sS'unicodes'
p11
(tsS'width'
p12
F1211.95
sS'contours'
p13
(tsS'components'
p14
(tsS'anchors'
p15
(tsss."
LayerCount: 2
Fore
SplineSet
246 -88 m 257
 246 404 l 257
 245 404 244 404 243 404 c 256
 160 404 70 456 70 555 c 256
 70 677 161 711 296 711 c 258
 501 711 l 257
 501 658 l 257
 454 658 l 257
 454 -88 l 257
 403 -88 l 257
 403 658 l 257
 297 658 l 257
 297 -88 l 257
 246 -88 l 257
EndSplineSet
EndChar

StartChar: parenleft
Encoding: 40 40 373
Width: 292
VWidth: 0
Flags: HW
PickledData: "(dp1
S'org.robofab.postScriptHintData'
p2
(dp3
sS'com.typemytype.robofont.layerData'
p4
(dp5
S'b'
(dp6
S'name'
p7
S'parenleft'
p8
sS'lib'
p9
(dp10
sS'unicodes'
p11
(tsS'width'
p12
F639.35000000000002
sS'contours'
p13
(tsS'components'
p14
(tsS'anchors'
p15
(tsss."
LayerCount: 2
Fore
SplineSet
203 -85 m 257
 128 30 74 171 74 323 c 256
 74 480 121 611 203 740 c 257
 269 740 l 257
 188 611 143 475 143 325 c 256
 143 186 192 36 270 -85 c 257
 203 -85 l 257
EndSplineSet
EndChar

StartChar: parenright
Encoding: 41 41 374
Width: 292
VWidth: 0
Flags: HW
PickledData: "(dp1
S'org.robofab.postScriptHintData'
p2
(dp3
sS'com.typemytype.robofont.layerData'
p4
(dp5
S'b'
(dp6
S'name'
p7
S'parenright'
p8
sS'lib'
p9
(dp10
sS'unicodes'
p11
(tsS'width'
p12
F639.35000000000002
sS'contours'
p13
(tsS'components'
p14
(tsS'anchors'
p15
(tsss."
LayerCount: 2
Fore
SplineSet
23 -95 m 257
 104 34 150 170 150 320 c 256
 150 459 101 608 23 730 c 257
 89 730 l 257
 164 615 219 473 219 322 c 256
 219 164 172 33 90 -95 c 257
 23 -95 l 257
EndSplineSet
EndChar

StartChar: partialdiff
Encoding: 8706 8706 375
Width: 569
VWidth: 0
Flags: HW
PickledData: "(dp1
S'org.robofab.postScriptHintData'
p2
(dp3
sS'com.typemytype.robofont.layerData'
p4
(dp5
S'b'
(dp6
S'name'
p7
S'partialdiff'
p8
sS'lib'
p9
(dp10
sS'unicodes'
p11
(tsS'width'
p12
F1163.95
sS'contours'
p13
(tsS'components'
p14
(tsS'anchors'
p15
(tsss."
LayerCount: 2
Fore
SplineSet
243 46 m 256
 368 46 428 182 443 321 c 257
 423 380 373 432 300 432 c 256
 197 432 116 326 116 203 c 256
 116 109 165 46 243 46 c 256
452 391 m 257
 452 403 453 428 453 443 c 256
 453 600 387 694 278 694 c 256
 237 694 188 680 147 652 c 257
 143 710 l 257
 181 734 233 752 290 752 c 256
 435 752 525 648 525 419 c 256
 525 206 430 -12 242 -12 c 256
 112 -12 44 83 44 204 c 256
 44 365 153 489 288 489 c 256
 384 489 432 428 452 391 c 257
EndSplineSet
EndChar

StartChar: percent
Encoding: 37 37 377
Width: 974
VWidth: 0
Flags: HW
PickledData: "(dp1
S'org.robofab.postScriptHintData'
p2
(dp3
sS'com.typemytype.robofont.layerData'
p4
(dp5
S'b'
(dp6
S'name'
p7
S'percent'
p8
sS'lib'
p9
(dp10
sS'unicodes'
p11
(tsS'width'
p12
F1769.3
sS'contours'
p13
(tsS'components'
p14
(tsS'anchors'
p15
(tsss."
LayerCount: 2
Fore
SplineSet
744 -5 m 256
 637 -5 578 73 578 201 c 256
 578 330 637 411 744 411 c 256
 849 411 906 332 906 202 c 256
 906 74 848 -5 744 -5 c 256
744 44 m 256
 812 44 845 100 845 202 c 256
 845 305 812 362 744 362 c 256
 672 362 639 304 639 201 c 256
 639 99 674 44 744 44 c 256
292 0 m 257
 630 711 l 257
 688 711 l 257
 349 0 l 257
 292 0 l 257
234 300 m 256
 127 300 68 376 68 506 c 256
 68 638 128 716 235 716 c 256
 340 716 397 638 397 506 c 256
 397 376 338 300 234 300 c 256
235 349 m 256
 303 349 335 405 335 507 c 256
 335 610 303 667 235 667 c 256
 164 667 130 609 130 506 c 256
 130 404 164 349 235 349 c 256
EndSplineSet
EndChar

StartChar: period
Encoding: 46 46 378
Width: 266
VWidth: 0
Flags: HW
PickledData: "(dp1
S'org.robofab.postScriptHintData'
p2
(dp3
sS'com.typemytype.robofont.layerData'
p4
(dp5
s."
LayerCount: 2
Fore
SplineSet
87 0 m 257
 87 96 l 257
 184 96 l 257
 184 0 l 257
 87 0 l 257
EndSplineSet
EndChar

StartChar: periodcentered
Encoding: 183 183 379
Width: 248
VWidth: 0
Flags: HW
PickledData: "(dp1
S'org.robofab.postScriptHintData'
p2
(dp3
sS'com.typemytype.robofont.layerData'
p4
(dp5
S'b'
(dp6
S'name'
p7
S'middot'
p8
sS'lib'
p9
(dp10
sS'unicodes'
p11
(tsS'width'
p12
I509
sS'contours'
p13
(tsS'components'
p14
(tsS'anchors'
p15
(tsss."
LayerCount: 2
Fore
SplineSet
128 256 m 257
 128 344 l 257
 208 344 l 257
 208 256 l 257
 128 256 l 257
EndSplineSet
EndChar

StartChar: perthousand
Encoding: 8240 8240 380
Width: 1389
VWidth: 0
Flags: HW
PickledData: "(dp1
S'org.robofab.postScriptHintData'
p2
(dp3
sS'com.typemytype.robofont.layerData'
p4
(dp5
S'b'
(dp6
S'name'
p7
S'perthousand'
p8
sS'lib'
p9
(dp10
sS'unicodes'
p11
(tsS'width'
p12
F2581.1999999999998
sS'contours'
p13
(tsS'components'
p14
(tsS'anchors'
p15
(tsss."
LayerCount: 2
Fore
SplineSet
1158 -5 m 256
 1051 -5 992 73 992 201 c 256
 992 330 1051 411 1158 411 c 256
 1263 411 1320 332 1320 202 c 256
 1320 74 1262 -5 1158 -5 c 256
1158 44 m 256
 1226 44 1259 100 1259 202 c 256
 1259 305 1227 362 1158 362 c 256
 1087 362 1054 304 1054 201 c 256
 1054 99 1088 44 1158 44 c 256
EndSplineSet
Refer: 377 37 N 1 0 0 1 0 0 2
EndChar

StartChar: pi
Encoding: 960 960 381
Width: 687
VWidth: 0
Flags: HW
PickledData: "(dp1
S'org.robofab.postScriptHintData'
p2
(dp3
sS'com.typemytype.robofont.layerData'
p4
(dp5
S'b'
(dp6
S'name'
p7
S'pi'
p8
sS'lib'
p9
(dp10
sS'unicodes'
p11
(tsS'width'
p12
F1288
sS'contours'
p13
(tsS'components'
p14
(tsS'anchors'
p15
(tsss."
LayerCount: 2
Fore
SplineSet
547 -6 m 256
 583 -6 615 5 633 22 c 257
 633 78 l 257
 619 73 592 62 571 62 c 256
 528 62 507 110 507 214 c 256
 507 274 514 355 528 455 c 257
 646 455 l 257
 646 528 l 257
 209 528 l 258
 92 528 59 488 59 380 c 257
 102 380 l 257
 108 427 128 455 170 455 c 258
 232 455 l 257
 197 189 l 258
 183 81 120 51 60 51 c 257
 60 2 l 257
 225 2 258 54 264 163 c 257
 282 455 l 257
 473 455 l 257
 456 331 436 221 436 141 c 256
 436 49 462 -6 547 -6 c 256
EndSplineSet
EndChar

StartChar: plus
Encoding: 43 43 382
Width: 565
VWidth: 0
Flags: HW
PickledData: "(dp1
S'org.robofab.postScriptHintData'
p2
(dp3
sS'com.typemytype.robofont.layerData'
p4
(dp5
S'b'
(dp6
S'name'
p7
S'plus'
p8
sS'lib'
p9
(dp10
sS'unicodes'
p11
(tsS'width'
p12
F1206.9000000000001
sS'contours'
p13
(tsS'components'
p14
(tsS'anchors'
p15
(tsss."
LayerCount: 2
Fore
SplineSet
250 59 m 257
 250 268 l 257
 62 268 l 257
 62 329 l 257
 250 329 l 257
 250 526 l 257
 314 526 l 257
 314 329 l 257
 504 329 l 257
 504 268 l 257
 315 268 l 257
 315 59 l 257
 250 59 l 257
EndSplineSet
EndChar

StartChar: plusminus
Encoding: 177 177 383
Width: 588
VWidth: 0
Flags: HW
PickledData: "(dp1
S'org.robofab.postScriptHintData'
p2
(dp3
sS'com.typemytype.robofont.layerData'
p4
(dp5
S'b'
(dp6
S'name'
p7
S'plusminus'
p8
sS'lib'
p9
(dp10
sS'unicodes'
p11
(tsS'width'
p12
F1234.75
sS'contours'
p13
(tsS'components'
p14
(tsS'anchors'
p15
(tsss."
LayerCount: 2
Fore
SplineSet
87 0 m 257
 87 55 l 257
 509 55 l 257
 509 0 l 257
 87 0 l 257
266 113 m 257
 266 291 l 257
 96 291 l 257
 96 352 l 257
 265 352 l 257
 265 529 l 257
 327 529 l 257
 327 352 l 257
 491 352 l 257
 491 291 l 257
 328 291 l 257
 328 113 l 257
 266 113 l 257
EndSplineSet
EndChar

StartChar: product
Encoding: 8719 8719 384
Width: 751
VWidth: 0
Flags: HW
PickledData: "(dp1
S'org.robofab.postScriptHintData'
p2
(dp3
sS'com.typemytype.robofont.guides'
p4
(tsS'com.typemytype.robofont.layerData'
p5
(dp6
S'b'
(dp7
S'name'
p8
S'product'
p9
sS'lib'
p10
(dp11
sS'unicodes'
p12
(tsS'width'
p13
F1568
sS'contours'
p14
(tsS'components'
p15
(tsS'anchors'
p16
(tsss."
LayerCount: 2
Fore
SplineSet
139 -32 m 257
 139 652 l 257
 54 652 l 257
 54 711 l 257
 693 711 l 257
 693 652 l 257
 612 652 l 257
 612 -32 l 257
 540 -32 l 257
 540 652 l 257
 210 652 l 257
 210 -32 l 257
 139 -32 l 257
EndSplineSet
EndChar

StartChar: q
Encoding: 113 113 385
Width: 614
VWidth: 0
Flags: HW
PickledData: "(dp1
S'org.robofab.postScriptHintData'
p2
(dp3
sS'com.typemytype.robofont.layerData'
p4
(dp5
S'b'
(dp6
S'name'
p7
S'q'
sS'lib'
p8
(dp9
sS'unicodes'
p10
(tsS'width'
p11
F1254.3
sS'contours'
p12
(tsS'components'
p13
(tsS'anchors'
p14
(tsss."
LayerCount: 2
Fore
SplineSet
282 48 m 256
 383 48 447 125 447 266 c 256
 447 383 383 456 289 456 c 256
 189 456 122 378 122 247 c 256
 122 121 187 48 282 48 c 256
448 -212 m 257
 448 94 l 257
 431 50 376 -10 275 -10 c 256
 147 -10 47 81 47 245 c 256
 47 415 142 514 281 514 c 256
 364 514 423 473 448 421 c 257
 448 501 l 257
 521 501 l 257
 521 502 521 502 521 502 c 256
 521 502 521 501 521 498 c 256
 521 481 519 414 519 406 c 258
 519 -212 l 257
 448 -212 l 257
EndSplineSet
EndChar

StartChar: question
Encoding: 63 63 386
Width: 530
VWidth: 0
Flags: HW
PickledData: "(dp1
S'org.robofab.postScriptHintData'
p2
(dp3
sS'com.typemytype.robofont.layerData'
p4
(dp5
S'b'
(dp6
S'name'
p7
S'question'
p8
sS'lib'
p9
(dp10
sS'unicodes'
p11
(tsS'width'
p12
F1055.9000000000001
sS'contours'
p13
(tsS'components'
p14
(tsS'anchors'
p15
(tsss."
LayerCount: 2
Fore
SplineSet
170 -6 m 257
 170 89 l 257
 255 89 l 257
 255 -6 l 257
 170 -6 l 257
184 175 m 257
 184 246 l 258
 184 363 375 428 375 550 c 256
 375 628 313 660 237 660 c 256
 176 660 123 636 100 622 c 257
 100 688 l 257
 157 715 220 721 247 721 c 256
 369 721 447 666 447 554 c 256
 447 408 239 339 239 234 c 258
 239 175 l 257
 184 175 l 257
EndSplineSet
EndChar

StartChar: quotedbl
Encoding: 34 34 388
Width: 390
VWidth: 0
Flags: HW
PickledData: "(dp1
S'org.robofab.postScriptHintData'
p2
(dp3
sS'com.typemytype.robofont.layerData'
p4
(dp5
S'b'
(dp6
S'name'
p7
S'quotedbl'
p8
sS'lib'
p9
(dp10
sS'unicodes'
p11
(tsS'width'
p12
F785.64999999999998
sS'contours'
p13
(tsS'components'
p14
(tsS'anchors'
p15
(tsss."
LayerCount: 2
Fore
SplineSet
257 456 m 257
 241 711 l 257
 315 711 l 257
 305 456 l 257
 257 456 l 257
106 456 m 257
 90 711 l 257
 165 711 l 257
 154 456 l 257
 106 456 l 257
EndSplineSet
EndChar

StartChar: quotedblbase
Encoding: 8222 8222 389
Width: 500
VWidth: 0
Flags: HW
PickledData: "(dp1
S'org.robofab.postScriptHintData'
p2
(dp3
s."
LayerCount: 2
Fore
SplineSet
204 91 m 257
 295 91 l 257
 259 -153 l 257
 192 -153 l 257
 204 91 l 257
EndSplineSet
EndChar

StartChar: quotedblleft
Encoding: 8220 8220 390
Width: 500
VWidth: 0
Flags: HW
PickledData: "(dp1
S'org.robofab.postScriptHintData'
p2
(dp3
sS'com.typemytype.robofont.layerData'
p4
(dp5
S'b'
(dp6
S'name'
p7
S'quotedblleft'
p8
sS'lib'
p9
(dp10
sS'unicodes'
p11
(tsS'width'
p12
F1024
sS'contours'
p13
(tsS'components'
p14
(tsS'anchors'
p15
(tsss."
LayerCount: 2
Fore
SplineSet
271 436 m 257
 327 711 l 257
 380 711 l 257
 350 436 l 257
 271 436 l 257
92 436 m 257
 149 711 l 257
 203 711 l 257
 173 436 l 257
 92 436 l 257
EndSplineSet
EndChar

StartChar: quotedblright
Encoding: 8221 8221 391
Width: 500
VWidth: 0
Flags: HW
PickledData: "(dp1
S'org.robofab.postScriptHintData'
p2
(dp3
sS'com.typemytype.robofont.layerData'
p4
(dp5
S'b'
(dp6
S'name'
p7
S'quotedblright'
p8
sS'lib'
p9
(dp10
sS'unicodes'
p11
(tsS'width'
p12
F1024
sS'contours'
p13
(tsS'components'
p14
(tsS'anchors'
p15
(tsss."
LayerCount: 2
Fore
SplineSet
271 436 m 257
 301 711 l 257
 380 711 l 257
 325 436 l 257
 271 436 l 257
100 436 m 257
 129 711 l 257
 208 711 l 257
 153 436 l 257
 100 436 l 257
EndSplineSet
EndChar

StartChar: quoteleft
Encoding: 8216 8216 392
Width: 226
VWidth: 0
Flags: HW
PickledData: "(dp1
S'org.robofab.postScriptHintData'
p2
(dp3
sS'com.typemytype.robofont.layerData'
p4
(dp5
S'b'
(dp6
S'name'
p7
S'quoteleft'
p8
sS'lib'
p9
(dp10
sS'unicodes'
p11
(tsS'width'
p12
F518.5
sS'contours'
p13
(tsS'components'
p14
(tsS'anchors'
p15
(tsss."
LayerCount: 2
Fore
SplineSet
171 711 m 257
 147 436 l 257
 65 436 l 257
 122 711 l 257
 171 711 l 257
EndSplineSet
EndChar

StartChar: quoteright
Encoding: 8217 8217 393
Width: 226
VWidth: 0
Flags: HW
PickledData: "(dp1
S'org.robofab.postScriptHintData'
p2
(dp3
sS'com.typemytype.robofont.layerData'
p4
(dp5
S'b'
(dp6
S'name'
p7
S'quoteright'
p8
sS'lib'
p9
(dp10
g4
(dp11
S'b'
(dp12
g7
S'quoteleft'
p13
sg9
(dp14
sS'unicodes'
p15
(tsS'width'
p16
I494
sS'contours'
p17
(tsS'components'
p18
(tsS'anchors'
p19
(tssssg15
(tsg16
F537.25
sg17
((dp20
S'points'
p21
((dp22
S'segmentType'
p23
S'line'
p24
sS'x'
F416
sS'smooth'
p25
I00
sS'y'
F888
s(dp26
g23
S'line'
p27
sS'x'
F300
sg25
I00
sS'y'
F888
s(dp28
g23
S'line'
p29
sS'x'
F150
sg25
I00
sS'y'
F1456
s(dp30
g23
S'line'
p31
sS'x'
F360
sg25
I00
sS'y'
F1456
stp32
stp33
sg18
(tsg19
(tsss."
LayerCount: 2
Fore
SplineSet
65 436 m 257
 88 711 l 257
 171 711 l 257
 114 436 l 257
 65 436 l 257
EndSplineSet
EndChar

StartChar: quotesinglbase
Encoding: 8218 8218 394
Width: 251
VWidth: 0
Flags: HW
PickledData: "(dp1
S'org.robofab.postScriptHintData'
p2
(dp3
sS'com.typemytype.robofont.layerData'
p4
(dp5
S'b'
(dp6
S'name'
p7
S'quotesinglbase'
p8
sS'lib'
p9
(dp10
sS'unicodes'
p11
(tsS'width'
p12
F595.70000000000005
sS'contours'
p13
(tsS'components'
p14
(tsS'anchors'
p15
(tsss."
LayerCount: 2
Fore
SplineSet
88 -170 m 257
 101 91 l 257
 176 91 l 257
 141 -170 l 257
 88 -170 l 257
EndSplineSet
EndChar

StartChar: quotesingle
Encoding: 39 39 395
Width: 257
VWidth: 0
Flags: HW
PickledData: "(dp1
S'org.robofab.postScriptHintData'
p2
(dp3
sS'com.typemytype.robofont.layerData'
p4
(dp5
S'b'
(dp6
S'name'
p7
S'quotesingle'
p8
sS'lib'
p9
(dp10
sS'unicodes'
p11
(tsS'width'
p12
F507.85000000000002
sS'contours'
p13
(tsS'components'
p14
(tsS'anchors'
p15
(tsss."
LayerCount: 2
Fore
SplineSet
106 456 m 257
 90 711 l 257
 165 711 l 257
 154 456 l 257
 106 456 l 257
EndSplineSet
EndChar

StartChar: r
Encoding: 114 114 396
Width: 383
VWidth: 0
Flags: HW
PickledData: "(dp1
S'org.robofab.postScriptHintData'
p2
(dp3
sS'com.typemytype.robofont.layerData'
p4
(dp5
S'b'
(dp6
S'name'
p7
S'r'
sS'lib'
p8
(dp9
sS'unicodes'
p10
(tsS'width'
p11
F818.89999999999998
sS'contours'
p12
(tsS'components'
p13
(tsS'anchors'
p14
(tsss."
AnchorPoint: "top" 244 501 basechar 0
LayerCount: 2
Fore
SplineSet
94 0 m 257
 94 378 l 258
 94 428 88 501 88 501 c 257
 160 501 l 257
 163 416 l 257
 189 484 243 512 304 512 c 256
 321 512 337 510 354 507 c 257
 353 445 l 257
 337 448 320 451 302 451 c 256
 222 451 163 399 163 276 c 258
 163 0 l 257
 94 0 l 257
EndSplineSet
EndChar

StartChar: radical
Encoding: 8730 8730 398
Width: 641
VWidth: 0
Flags: HW
PickledData: "(dp1
S'org.robofab.postScriptHintData'
p2
(dp3
sS'com.typemytype.robofont.layerData'
p4
(dp5
s."
LayerCount: 2
Fore
SplineSet
324 -76 m 257
 159 343 l 258
 73 330 l 257
 66 377 l 257
 201 401 l 257
 350 -4 l 257
 559 784 l 257
 610 784 l 257
 381 -76 l 257
 324 -76 l 257
EndSplineSet
EndChar

StartChar: registered
Encoding: 174 174 402
Width: 848
VWidth: 0
Flags: HW
PickledData: "(dp1
S'org.robofab.postScriptHintData'
p2
(dp3
sS'com.typemytype.robofont.layerData'
p4
(dp5
S'b'
(dp6
S'name'
p7
S'registered'
p8
sS'lib'
p9
(dp10
sS'unicodes'
p11
(tsS'width'
p12
F1727.05
sS'contours'
p13
(tsS'components'
p14
(tsS'anchors'
p15
(tsss."
LayerCount: 2
Fore
SplineSet
424 -16 m 256
 220 -16 53 150 53 354 c 256
 53 558 220 725 424 725 c 256
 629 725 796 558 796 354 c 256
 796 150 629 -16 424 -16 c 256
425 29 m 256
 601 29 743 177 743 353 c 256
 743 529 601 677 425 677 c 256
 249 677 106 529 106 353 c 256
 106 177 249 29 425 29 c 256
335 376 m 257
 401 376 l 258
 492 376 534 389 534 452 c 256
 534 521 505 531 395 531 c 258
 335 531 l 257
 335 376 l 257
273 131 m 257
 273 584 l 257
 401 584 l 258
 546 584 602 539 602 459 c 256
 602 397 580 354 490 338 c 257
 600 131 l 257
 526 131 l 257
 426 332 l 257
 337 332 l 257
 337 131 l 257
 273 131 l 257
EndSplineSet
EndChar

StartChar: ring
Encoding: 730 730 403
Width: 283
VWidth: 0
Flags: HW
PickledData: "(dp1
S'org.robofab.postScriptHintData'
p2
(dp3
sS'com.typemytype.robofont.layerData'
p4
(dp5
S'b'
(dp6
S'name'
p7
S'ring'
p8
sS'lib'
p9
(dp10
sS'unicodes'
p11
(tsS'width'
p12
F633.35000000000002
sS'contours'
p13
(tsS'components'
p14
(tsS'anchors'
p15
(tsss."
AnchorPoint: "top" 143 501 mark 0
AnchorPoint: "top" 142 716 basechar 0
LayerCount: 2
Fore
SplineSet
143 555 m 256
 91 555 50 593 50 644 c 256
 50 695 91 732 143 732 c 256
 195 732 234 695 234 644 c 256
 234 593 195 555 143 555 c 256
142 589 m 256
 171 589 194 613 194 644 c 256
 194 675 171 698 142 698 c 256
 113 698 90 675 90 644 c 256
 90 613 113 589 142 589 c 256
EndSplineSet
EndChar

StartChar: s
Encoding: 115 115 405
Width: 467
VWidth: 0
Flags: HW
PickledData: "(dp1
S'org.robofab.postScriptHintData'
p2
(dp3
sS'com.typemytype.robofont.layerData'
p4
(dp5
S'b'
(dp6
S'name'
p7
S's'
sS'lib'
p8
(dp9
sS'unicodes'
p10
(tsS'width'
p11
F981.89999999999998
sS'contours'
p12
((dp13
S'points'
p14
((dp15
S'segmentType'
p16
S'curve'
p17
sS'x'
F498
sS'smooth'
p18
I01
sS'y'
F-23
s(dp19
S'y'
F-23
sS'x'
F282
sg18
I00
s(dp20
S'y'
F70
sS'x'
F145
sg18
I00
s(dp21
g16
S'curve'
p22
sS'x'
F116
sg18
I00
sS'y'
F94
s(dp23
g16
S'line'
p24
sS'x'
F160
sg18
I00
sS'y'
F222
s(dp25
S'y'
F189
sS'x'
F208
sg18
I00
s(dp26
S'y'
F109
sS'x'
F348
sg18
I00
s(dp27
g16
S'curve'
p28
sS'x'
F484
sg18
I01
sS'y'
F109
s(dp29
S'y'
F109
sS'x'
F589
sg18
I00
s(dp30
S'y'
F141
sS'x'
F711
sg18
I00
s(dp31
g16
S'curve'
p32
sS'x'
F711
sg18
I01
sS'y'
F272
s(dp33
S'y'
F395
sS'x'
F711
sg18
I00
s(dp34
S'y'
F426
sS'x'
F561
sg18
I00
s(dp35
g16
S'curve'
p36
sS'x'
F412
sg18
I00
sS'y'
F474
s(dp37
S'y'
F521
sS'x'
F262
sg18
I00
s(dp38
S'y'
F585
sS'x'
F112
sg18
I00
s(dp39
g16
S'curve'
p40
sS'x'
F112
sg18
I01
sS'y'
F771
s(dp41
S'y'
F970
sS'x'
F112
sg18
I00
s(dp42
S'y'
F1051
sS'x'
F318
sg18
I00
s(dp43
g16
S'curve'
p44
sS'x'
F488
sg18
I01
sS'y'
F1051
s(dp45
S'y'
F1051
sS'x'
F715
sg18
I00
s(dp46
S'y'
F991
sS'x'
F792
sg18
I00
s(dp47
g16
S'curve'
p48
sS'x'
F832
sg18
I00
sS'y'
F966
s(dp49
g16
S'line'
p50
sS'x'
F785
sg18
I00
sS'y'
F851
s(dp51
S'y'
F858
sS'x'
F772
sg18
I00
s(dp52
S'y'
F917
sS'x'
F667
sg18
I00
s(dp53
g16
S'curve'
p54
sS'x'
F504
sg18
I01
sS'y'
F917
s(dp55
S'y'
F917
sS'x'
F355
sg18
I00
s(dp56
S'y'
F882
sS'x'
F283
sg18
I00
s(dp57
g16
S'curve'
p58
sS'x'
F283
sg18
I01
sS'y'
F774
s(dp59
S'y'
F660
sS'x'
F283
sg18
I00
s(dp60
S'y'
F629
sS'x'
F433
sg18
I00
s(dp61
g16
S'curve'
p62
sS'x'
F582
sg18
I01
sS'y'
F581
s(dp63
S'y'
F533
sS'x'
F732
sg18
I00
s(dp64
S'y'
F468
sS'x'
F881
sg18
I00
s(dp65
g16
S'curve'
p66
sS'x'
F881
sg18
I01
sS'y'
F284
s(dp67
S'y'
F62
sS'x'
F881
sg18
I00
s(dp68
S'y'
F-23
sS'x'
F685
sg18
I00
stp69
stp70
sS'components'
p71
(tsS'anchors'
p72
(tsss."
AnchorPoint: "top" 232 501 basechar 0
LayerCount: 2
Fore
SplineSet
243 -10 m 256
 146 -10 81 32 61 48 c 257
 82 101 l 257
 105 84 164 47 238 47 c 256
 293 47 354 62 354 132 c 256
 354 182 325 199 254 222 c 257
 182 244 l 257
 109 268 60 298 60 378 c 256
 60 474 141 514 242 514 c 256
 327 514 376 489 400 473 c 257
 380 423 l 257
 361 433 312 457 247 457 c 256
 167 457 128 429 128 381 c 256
 128 336 148 323 211 302 c 256
 215 300 279 280 285 278 c 256
 369 250 420 221 420 138 c 256
 420 31 336 -10 243 -10 c 256
EndSplineSet
EndChar

StartChar: section
Encoding: 167 167 412
Width: 510
VWidth: 0
Flags: HW
PickledData: "(dp1
S'org.robofab.postScriptHintData'
p2
(dp3
sS'com.typemytype.robofont.layerData'
p4
(dp5
S'b'
(dp6
S'name'
p7
S'section'
p8
sS'lib'
p9
(dp10
sS'unicodes'
p11
(tsS'width'
p12
F1071.6500000000001
sS'contours'
p13
(tsS'components'
p14
(tsS'anchors'
p15
(tsss."
LayerCount: 2
Fore
SplineSet
289 246 m 257
 334 268 366 304 366 348 c 256
 366 392 327 407 251 444 c 257
 198 424 156 395 156 353 c 256
 156 303 207 282 289 246 c 257
245 -41 m 256
 200 -41 150 -32 104 -15 c 257
 104 40 l 257
 155 20 202 10 242 10 c 256
 313 10 360 39 360 99 c 256
 360 151 304 171 210 217 c 256
 137 253 95 283 95 349 c 256
 95 406 149 450 207 468 c 257
 140 506 109 534 109 594 c 256
 109 688 196 729 288 729 c 256
 327 729 363 723 397 710 c 257
 397 660 l 257
 366 672 329 679 294 679 c 256
 230 679 173 655 173 595 c 256
 173 554 198 535 287 491 c 256
 376 446 432 421 432 352 c 256
 432 294 382 249 332 222 c 257
 388 194 424 160 424 103 c 256
 424 5 345 -41 245 -41 c 256
EndSplineSet
EndChar

StartChar: semicolon
Encoding: 59 59 413
Width: 266
VWidth: 0
Flags: HW
PickledData: "(dp1
S'org.robofab.postScriptHintData'
p2
(dp3
sS'com.typemytype.robofont.layerData'
p4
(dp5
s."
LayerCount: 2
Fore
SplineSet
76 405 m 257
 76 501 l 257
 178 501 l 257
 178 405 l 257
 76 405 l 257
54 -127 m 257
 105 94 l 257
 186 94 l 257
 108 -127 l 257
 54 -127 l 257
EndSplineSet
EndChar

StartChar: seven
Encoding: 55 55 414
Width: 587
VWidth: 0
Flags: HW
PickledData: "(dp1
S'org.robofab.postScriptHintData'
p2
(dp3
sS'com.typemytype.robofont.layerData'
p4
(dp5
s."
LayerCount: 2
Fore
SplineSet
182 0 m 257
 443 647 l 257
 88 647 l 257
 88 711 l 257
 524 711 l 257
 524 656 l 257
 262 0 l 257
 182 0 l 257
EndSplineSet
EndChar

StartChar: six
Encoding: 54 54 415
Width: 587
VWidth: 0
Flags: HW
PickledData: "(dp1
S'org.robofab.postScriptHintData'
p2
(dp3
sS'com.typemytype.robofont.layerData'
p4
(dp5
s."
LayerCount: 2
Fore
SplineSet
311 49 m 256
 409 49 463 125 463 224 c 256
 463 318 418 393 316 393 c 256
 209 393 147 318 147 258 c 256
 147 148 195 49 311 49 c 256
311 -11 m 256
 139 -11 64 131 64 337 c 256
 64 549 149 724 334 724 c 256
 403 724 459 698 493 671 c 257
 466 619 l 257
 436 643 389 664 335 664 c 256
 186 664 147 501 141 392 c 256
 140 380 140 369 140 359 c 257
 165 402 229 452 322 452 c 256
 445 452 538 364 538 224 c 256
 538 91 452 -11 311 -11 c 256
EndSplineSet
EndChar

StartChar: slash
Encoding: 47 47 416
Width: 400
VWidth: 0
Flags: HW
PickledData: "(dp1
S'org.robofab.postScriptHintData'
p2
(dp3
sS'com.typemytype.robofont.layerData'
p4
(dp5
s."
LayerCount: 2
Fore
SplineSet
65 0 m 257
 299 711 l 257
 361 711 l 257
 125 0 l 257
 65 0 l 257
EndSplineSet
EndChar

StartChar: uni00AD
Encoding: 173 173 418
Width: 310
VWidth: 0
Flags: HW
PickledData: "(dp1
S'org.robofab.postScriptHintData'
p2
(dp3
s."
LayerCount: 2
Fore
SplineSet
31 248 m 257
 31 300 l 257
 279 300 l 257
 279 248 l 257
 31 248 l 257
EndSplineSet
EndChar

StartChar: sterling
Encoding: 163 163 420
Width: 571
VWidth: 0
Flags: HW
PickledData: "(dp1
S'org.robofab.postScriptHintData'
p2
(dp3
sS'com.typemytype.robofont.layerData'
p4
(dp5
S'b'
(dp6
S'name'
p7
S'sterling'
p8
sS'lib'
p9
(dp10
sS'unicodes'
p11
(tsS'width'
p12
F1207.3
sS'contours'
p13
(tsS'components'
p14
(tsS'anchors'
p15
(tsss."
LayerCount: 2
Fore
SplineSet
375 659 m 256
 269 659 234 590 234 490 c 258
 234 393 l 257
 418 393 l 257
 418 344 l 257
 235 344 l 257
 235 278 l 258
 235 154 184 80 162 62 c 257
 495 62 l 257
 495 0 l 257
 73 0 l 257
 73 62 l 257
 136 103 162 202 162 278 c 258
 162 344 l 257
 66 344 l 257
 66 393 l 257
 162 393 l 257
 162 474 l 258
 162 615 210 721 367 721 c 256
 437 721 477 702 493 685 c 257
 472 633 l 257
 461 642 424 659 375 659 c 256
EndSplineSet
EndChar

StartChar: summation
Encoding: 8721 8721 421
Width: 560
VWidth: 0
Flags: HW
PickledData: "(dp1
S'org.robofab.postScriptHintData'
p2
(dp3
sS'com.typemytype.robofont.layerData'
p4
(dp5
S'b'
(dp6
S'name'
p7
S'summation'
p8
sS'lib'
p9
(dp10
sS'unicodes'
p11
(tsS'width'
p12
F1198.3
sS'contours'
p13
(tsS'components'
p14
(tsS'anchors'
p15
(tsss."
LayerCount: 2
Fore
SplineSet
57 -51 m 257
 57 -16 l 257
 303 336 l 257
 66 671 l 257
 66 710 l 257
 506 710 l 257
 506 656 l 257
 154 656 l 257
 376 340 l 257
 138 3 l 257
 526 3 l 257
 526 -51 l 257
 57 -51 l 257
EndSplineSet
EndChar

StartChar: t
Encoding: 116 116 422
Width: 363
VWidth: 0
Flags: HW
PickledData: "(dp1
S'org.robofab.postScriptHintData'
p2
(dp3
sS'com.typemytype.robofont.layerData'
p4
(dp5
S'b'
(dp6
S'name'
p7
S't'
sS'lib'
p8
(dp9
sS'unicodes'
p10
(tsS'width'
p11
F763.89999999999998
sS'contours'
p12
(tsS'components'
p13
(tsS'anchors'
p14
(tsss."
AnchorPoint: "top" 152 649 basechar 0
AnchorPoint: "caron.alt" 136 621 basechar 0
LayerCount: 2
Fore
SplineSet
316 -0 m 257
 311 0 288 0 284 0 c 256
 138 4 122 58 122 166 c 258
 122 455 l 257
 24 455 l 257
 24 501 l 257
 123 501 l 257
 123 637 l 257
 190 657 l 257
 190 501 l 257
 315 501 l 257
 315 455 l 257
 190 455 l 257
 190 163 l 258
 190 71 202 55 316 55 c 257
 316 -0 l 257
EndSplineSet
EndChar

StartChar: thorn
Encoding: 254 254 427
Width: 606
VWidth: 0
Flags: HW
PickledData: "(dp1
S'org.robofab.postScriptHintData'
p2
(dp3
sS'com.typemytype.robofont.layerData'
p4
(dp5
s."
LayerCount: 2
Fore
SplineSet
319 45 m 256
 423 45 482 130 482 252 c 256
 482 373 427 456 321 456 c 256
 194 456 151 353 151 247 c 256
 151 129 209 45 319 45 c 256
80 -212 m 257
 80 710 l 257
 152 710 l 257
 152 417 l 257
 185 478 249 513 326 513 c 256
 474 513 558 409 558 253 c 256
 558 100 473 -11 326 -11 c 256
 252 -11 185 23 152 83 c 257
 152 -212 l 257
 80 -212 l 257
EndSplineSet
EndChar

StartChar: three
Encoding: 51 51 428
Width: 587
VWidth: 0
Flags: HW
PickledData: "(dp1
S'org.robofab.postScriptHintData'
p2
(dp3
sS'com.typemytype.robofont.layerData'
p4
(dp5
S'b'
(dp6
S'name'
p7
S'three'
p8
sS'lib'
p9
(dp10
sS'unicodes'
p11
(tsS'width'
p12
F1234.0999999999999
sS'contours'
p13
((dp14
S'points'
p15
((dp16
S'segmentType'
p17
S'curve'
p18
sS'x'
F344
sS'smooth'
p19
I01
sS'y'
F1010
s(dp20
S'y'
F827
sS'x'
F344
sg19
I00
s(dp21
S'y'
F687
sS'x'
F423
sg19
I00
s(dp22
g17
S'curve'
p23
sS'x'
F634
sg19
I01
sS'y'
F687
s(dp24
S'y'
F687
sS'x'
F814
sg19
I00
s(dp25
S'y'
F803
sS'x'
F938
sg19
I00
s(dp26
g17
S'curve'
p27
sS'x'
F938
sg19
I01
sS'y'
F991
s(dp28
S'y'
F1166
sS'x'
F938
sg19
I00
s(dp29
S'y'
F1334
sS'x'
F845
sg19
I00
s(dp30
g17
S'curve'
p31
sS'x'
F635
sg19
I01
sS'y'
F1334
s(dp32
S'y'
F1334
sS'x'
F449
sg19
I00
s(dp33
S'y'
F1196
sS'x'
F344
sg19
I00
stp34
s(dp35
g15
((dp36
g17
S'curve'
p37
sS'x'
F594
sg19
I01
sS'y'
F-24
s(dp38
S'y'
F-24
sS'x'
F473
sg19
I00
s(dp39
S'y'
F-1
sS'x'
F367
sg19
I00
s(dp40
g17
S'curve'
p41
sS'x'
F238
sg19
I00
sS'y'
F65
s(dp42
g17
S'line'
p43
sS'x'
F287
sg19
I00
sS'y'
F197
s(dp44
S'y'
F138
sS'x'
F401
sg19
I00
s(dp45
S'y'
F124
sS'x'
F489
sg19
I00
s(dp46
g17
S'curve'
p47
sS'x'
F581
sg19
I01
sS'y'
F124
s(dp48
S'y'
F124
sS'x'
F812
sg19
I00
s(dp49
S'y'
F308
sS'x'
F950
sg19
I00
s(dp50
g17
S'curve'
p51
sS'x'
F950
sg19
I01
sS'y'
F657
s(dp52
g17
S'line'
p53
sS'x'
F950
sg19
I00
sS'y'
F722
s(dp54
S'y'
F600
sS'x'
F886
sg19
I00
s(dp55
S'y'
F544
sS'x'
F772
sg19
I00
s(dp56
g17
S'curve'
p57
sS'x'
F607
sg19
I01
sS'y'
F544
s(dp58
S'y'
F544
sS'x'
F328
sg19
I00
s(dp59
S'y'
F735
sS'x'
F168
sg19
I00
s(dp60
g17
S'curve'
p61
sS'x'
F168
sg19
I01
sS'y'
F1004
s(dp62
S'y'
F1275
sS'x'
F168
sg19
I00
s(dp63
S'y'
F1483
sS'x'
F341
sg19
I00
s(dp64
g17
S'curve'
p65
sS'x'
F643
sg19
I01
sS'y'
F1483
s(dp66
S'y'
F1483
sS'x'
F969
sg19
I00
s(dp67
S'y'
F1231
sS'x'
F1125
sg19
I00
s(dp68
g17
S'curve'
p69
sS'x'
F1125
sg19
I01
sS'y'
F774
s(dp70
S'y'
F203
sS'x'
F1125
sg19
I00
s(dp71
S'y'
F-24
sS'x'
F894
sg19
I00
stp72
stp73
sS'components'
p74
(tsS'anchors'
p75
(tsss."
LayerCount: 2
Fore
SplineSet
273 -11 m 256
 187 -11 116 18 91 33 c 257
 109 89 l 257
 147 70 213 49 270 49 c 256
 374 49 441 106 441 196 c 256
 441 290 376 343 257 344 c 257
 213 344 l 257
 212 406 l 257
 256 406 l 258
 370 406 426 452 426 543 c 256
 426 619 359 664 272 664 c 256
 198 664 132 633 95 589 c 257
 60 635 l 257
 106 692 181 724 277 724 c 256
 401 724 496 657 496 544 c 256
 496 469 450 394 361 376 c 257
 456 359 514 284 514 194 c 256
 514 68 414 -11 273 -11 c 256
EndSplineSet
EndChar

StartChar: threequarters
Encoding: 190 190 429
Width: 909
VWidth: 0
Flags: HW
PickledData: "(dp1
S'org.robofab.postScriptHintData'
p2
(dp3
sS'com.typemytype.robofont.layerData'
p4
(dp5
s."
LayerCount: 2
Fore
SplineSet
566 136 m 257
 700 136 l 257
 700 327 l 257
 566 136 l 257
229 0 m 257
 677 711 l 257
 732 711 l 257
 289 0 l 257
 229 0 l 257
701 0 m 257
 701 91 l 257
 513 91 l 257
 513 131 l 257
 694 387 l 257
 754 387 l 257
 754 136 l 257
 801 136 l 257
 801 91 l 257
 752 91 l 257
 752 0 l 257
 701 0 l 257
213 295 m 256
 166 295 118 312 87 340 c 257
 110 378 l 257
 139 353 176 339 211 339 c 256
 259 339 292 371 292 415 c 256
 292 459 259 487 198 487 c 258
 155 487 l 257
 155 532 l 257
 197 532 l 258
 252 532 283 558 283 599 c 256
 283 641 252 668 207 668 c 256
 172 668 139 656 113 629 c 257
 88 661 l 257
 114 692 161 711 210 711 c 256
 283 711 336 671 336 602 c 256
 336 563 313 529 268 514 c 257
 318 500 345 460 345 414 c 256
 345 339 289 295 213 295 c 256
EndSplineSet
EndChar

StartChar: uni00B3
Encoding: 179 179 430
Width: 474
VWidth: 0
Flags: HW
PickledData: "(dp1
S'org.robofab.postScriptHintData'
p2
(dp3
sS'com.typemytype.robofont.layerData'
p4
(dp5
s."
LayerCount: 2
Fore
SplineSet
229 294 m 256
 182 294 134 311 104 339 c 257
 126 378 l 257
 153 354 193 339 228 339 c 256
 276 339 308 369 308 414 c 256
 308 460 274 487 212 487 c 258
 171 487 l 257
 171 532 l 257
 211 532 l 258
 267 532 299 557 299 599 c 256
 299 641 270 666 224 666 c 256
 189 666 155 654 130 627 c 257
 105 660 l 257
 129 691 177 711 226 711 c 256
 299 711 351 670 351 601 c 256
 351 561 329 525 282 512 c 257
 332 499 360 460 360 413 c 256
 360 339 305 294 229 294 c 256
EndSplineSet
EndChar

StartChar: tilde
Encoding: 732 732 431
Width: 302
VWidth: 0
Flags: HW
PickledData: "(dp1
S'org.robofab.postScriptHintData'
p2
(dp3
sS'com.typemytype.robofont.layerData'
p4
(dp5
S'b'
(dp6
S'name'
p7
S'tilde'
p8
sS'lib'
p9
(dp10
sS'unicodes'
p11
(tsS'width'
p12
F672.35000000000002
sS'contours'
p13
(tsS'components'
p14
(tsS'anchors'
p15
(tsss."
AnchorPoint: "top" 153 501 mark 0
LayerCount: 2
Fore
SplineSet
229 588 m 256
 184 588 118 636 83 636 c 256
 62 636 51 622 50 594 c 257
 6 594 l 257
 6 652 34 686 79 686 c 256
 128 686 190 638 226 638 c 256
 245 638 249 652 250 683 c 257
 296 683 l 257
 296 628 277 588 229 588 c 256
EndSplineSet
EndChar

StartChar: trademark
Encoding: 8482 8482 432
Width: 912
VWidth: 0
Flags: HW
PickledData: "(dp1
S'org.robofab.postScriptHintData'
p2
(dp3
sS'com.typemytype.robofont.layerData'
p4
(dp5
S'b'
(dp6
S'name'
p7
S'trademark'
p8
sS'lib'
p9
(dp10
sS'unicodes'
p11
(tsS'width'
p12
F1869
sS'contours'
p13
(tsS'components'
p14
(tsS'anchors'
p15
(tsss."
LayerCount: 2
Fore
SplineSet
163 347 m 257
 163 677 l 257
 34 677 l 257
 34 718 l 257
 346 718 l 257
 346 677 l 257
 215 677 l 257
 215 347 l 257
 163 347 l 257
404 347 m 257
 404 718 l 257
 469 718 l 257
 606 416 l 257
 752 718 l 257
 811 718 l 257
 811 347 l 257
 766 347 l 257
 766 655 l 257
 621 347 l 257
 589 347 l 257
 449 655 l 257
 449 347 l 257
 404 347 l 257
EndSplineSet
EndChar

StartChar: two
Encoding: 50 50 433
Width: 598
VWidth: 0
Flags: HW
PickledData: "(dp1
S'org.robofab.postScriptHintData'
p2
(dp3
sS'com.typemytype.robofont.layerData'
p4
(dp5
S'b'
(dp6
S'name'
p7
S'two'
p8
sS'lib'
p9
(dp10
sS'unicodes'
p11
(tsS'width'
p12
F1244.5
sS'contours'
p13
(tsS'components'
p14
(tsS'anchors'
p15
(tsss."
LayerCount: 2
Fore
SplineSet
289 724 m 256
 440 724 508 628 508 519 c 256
 508 424 457 357 375 267 c 257
 187 60 l 257
 505 60 l 257
 505 0 l 257
 104 0 l 257
 104 59 l 257
 333 310 l 258
 409 393 438 445 438 513 c 256
 438 598 394 663 287 663 c 256
 214 663 142 627 109 608 c 257
 85 664 l 257
 121 685 197 724 289 724 c 256
EndSplineSet
EndChar

StartChar: uni00B2
Encoding: 178 178 434
Width: 501
VWidth: 0
Flags: HW
PickledData: "(dp1
S'org.robofab.postScriptHintData'
p2
(dp3
sS'com.typemytype.robofont.layerData'
p4
(dp5
s."
LayerCount: 2
Fore
SplineSet
122 305 m 257
 122 347 l 257
 261 486 l 258
 315 540 330 571 330 604 c 256
 330 637 308 666 255 666 c 256
 214 666 177 646 166 594 c 257
 128 615 l 257
 141 676 191 711 257 711 c 256
 334 711 381 666 381 605 c 256
 381 551 355 513 292 451 c 258
 188 349 l 257
 382 349 l 257
 382 305 l 257
 122 305 l 257
EndSplineSet
EndChar

StartChar: u
Encoding: 117 117 435
Width: 615
VWidth: 0
Flags: HW
PickledData: "(dp1
S'org.robofab.postScriptHintData'
p2
(dp3
sS'com.typemytype.robofont.layerData'
p4
(dp5
S'b'
(dp6
S'name'
p7
S'u'
sS'lib'
p8
(dp9
sS'unicodes'
p10
(tsS'width'
p11
F1227.2
sS'contours'
p12
(tsS'components'
p13
(tsS'anchors'
p14
(tsss."
AnchorPoint: "top" 308 501 basechar 0
LayerCount: 2
Fore
SplineSet
278 -12 m 256
 149 -12 87 67 87 196 c 258
 87 501 l 257
 156 501 l 257
 156 195 l 258
 156 95 201 45 286 45 c 256
 393 45 450 123 450 185 c 258
 450 501 l 257
 520 501 l 257
 520 117 l 258
 520 71 522 22 523 0 c 257
 455 0 l 257
 452 87 l 257
 420 32 363 -12 278 -12 c 256
EndSplineSet
EndChar

StartChar: underscore
Encoding: 95 95 446
Width: 436
VWidth: 0
Flags: HW
PickledData: "(dp1
S'org.robofab.postScriptHintData'
p2
(dp3
sS'com.typemytype.robofont.layerData'
p4
(dp5
s."
LayerCount: 2
Fore
SplineSet
0 -135 m 257
 0 -80 l 257
 436 -80 l 257
 436 -135 l 257
 0 -135 l 257
EndSplineSet
EndChar

StartChar: uni0307
Encoding: 775 775 459
Width: 255
VWidth: 0
Flags: HW
PickledData: "(dp1
S'org.robofab.postScriptHintData'
p2
(dp3
s."
AnchorPoint: "top" 128 501 mark 0
LayerCount: 2
Fore
SplineSet
87 614 m 257
 86 697 l 257
 169 697 l 257
 170 614 l 257
 87 614 l 257
EndSplineSet
EndChar

StartChar: uni030F
Encoding: 783 783 460
Width: 473
VWidth: 0
Flags: HW
PickledData: "(dp1
S'org.robofab.postScriptHintData'
p2
(dp3
s."
AnchorPoint: "top" 299 501 mark 0
LayerCount: 2
Fore
SplineSet
360 573 m 257
 224 746 l 257
 296 746 l 257
 404 573 l 257
 360 573 l 257
211 573 m 257
 69 746 l 257
 141 746 l 257
 256 573 l 257
 211 573 l 257
EndSplineSet
EndChar

StartChar: uni0311
Encoding: 785 785 461
Width: 307
VWidth: 0
Flags: HW
PickledData: "(dp1
S'org.robofab.postScriptHintData'
p2
(dp3
sS'com.typemytype.robofont.layerData'
p4
(dp5
s."
AnchorPoint: "top" 152 501 mark 0
LayerCount: 2
Fore
SplineSet
23 591 m 257
 27 664 90 702 153 702 c 256
 216 702 280 664 284 591 c 257
 242 591 l 257
 236 634 195 657 153 657 c 256
 112 657 70 635 65 591 c 257
 23 591 l 257
EndSplineSet
EndChar

StartChar: uni0312
Encoding: 786 786 462
Width: 292
VWidth: 0
Flags: HW
PickledData: "(dp1
S'org.robofab.postScriptHintData'
p2
(dp3
s."
AnchorPoint: "top" 139 501 mark 0
LayerCount: 2
Fore
SplineSet
230 821 m 257
 179 596 l 257
 99 596 l 257
 177 821 l 257
 230 821 l 257
EndSplineSet
EndChar

StartChar: uni0326
Encoding: 806 806 463
Width: 263
VWidth: 0
Flags: HW
PickledData: "(dp1
S'org.robofab.postScriptHintData'
p2
(dp3
s."
LayerCount: 2
Fore
SplineSet
66 -284 m 257
 118 -63 l 257
 197 -63 l 257
 120 -284 l 257
 66 -284 l 257
EndSplineSet
EndChar

StartChar: afii00208
Encoding: 8213 8213 464
Width: 2000
VWidth: 0
Flags: HW
PickledData: "(dp1
S'org.robofab.postScriptHintData'
p2
(dp3
s."
LayerCount: 2
Fore
SplineSet
33 243 m 257
 33 304 l 257
 1967 304 l 257
 1967 243 l 257
 33 243 l 257
EndSplineSet
EndChar

StartChar: v
Encoding: 118 118 469
Width: 489
VWidth: 0
Flags: HW
PickledData: "(dp1
S'org.robofab.postScriptHintData'
p2
(dp3
sS'com.typemytype.robofont.layerData'
p4
(dp5
S'b'
(dp6
S'name'
p7
S'v'
sS'lib'
p8
(dp9
sS'unicodes'
p10
(tsS'width'
p11
F1056.8
sS'contours'
p12
(tsS'components'
p13
(tsS'anchors'
p14
(tsss."
LayerCount: 2
Fore
SplineSet
211 0 m 257
 3 501 l 257
 77 501 l 257
 219 144 l 257
 248 65 l 257
 301 214 361 356 417 501 c 257
 489 501 l 257
 281 0 l 257
 211 0 l 257
EndSplineSet
EndChar

StartChar: w
Encoding: 119 119 470
Width: 778
VWidth: 0
Flags: HW
PickledData: "(dp1
S'org.robofab.postScriptHintData'
p2
(dp3
sS'com.typemytype.robofont.layerData'
p4
(dp5
S'b'
(dp6
S'name'
p7
S'w'
sS'lib'
p8
(dp9
sS'unicodes'
p10
(tsS'width'
p11
F1634.0999999999999
sS'contours'
p12
(tsS'components'
p13
(tsS'anchors'
p14
(tsss."
AnchorPoint: "top" 398 501 basechar 0
LayerCount: 2
Fore
SplineSet
174 0 m 257
 19 501 l 257
 92 501 l 257
 133 360 174 219 216 78 c 257
 263 220 312 360 360 501 c 257
 435 501 l 257
 481 360 528 219 574 77 c 257
 613 218 651 360 690 501 c 257
 760 501 l 257
 609 0 l 257
 535 0 l 257
 489 142 442 283 396 425 c 257
 348 282 297 142 248 0 c 257
 174 0 l 257
EndSplineSet
EndChar

StartChar: x
Encoding: 120 120 475
Width: 532
VWidth: 0
Flags: HW
PickledData: "(dp1
S'org.robofab.postScriptHintData'
p2
(dp3
sS'com.fontlab.hintData'
p4
(dp5
S'hhints'
p6
((dp7
S'position'
p8
I0
sS'width'
p9
I21
s(dp10
g8
I1006
sg9
I20
stp11
ssS'com.typemytype.robofont.layerData'
p12
(dp13
S'b'
(dp14
S'name'
p15
S'x'
sS'lib'
p16
(dp17
sS'unicodes'
p18
(tsg9
F1062.8499999999999
sS'contours'
p19
(tsS'components'
p20
(tsS'anchors'
p21
(tsss."
HStem: 0 10<25 25 25 100 431 431 431 506> 491 10<115 115 424 499 499 499>
LayerCount: 2
Fore
SplineSet
25 0 m 257
 229 253 l 257
 39 502 l 257
 115 501 l 257
 266 300 l 257
 424 501 l 257
 499 501 l 257
 305 252 l 257
 506 0 l 257
 431 0 l 257
 267 208 l 257
 100 0 l 257
 25 0 l 257
EndSplineSet
EndChar

StartChar: y
Encoding: 121 121 476
Width: 500
VWidth: 0
Flags: HW
PickledData: "(dp1
S'org.robofab.postScriptHintData'
p2
(dp3
sS'com.typemytype.robofont.layerData'
p4
(dp5
S'b'
(dp6
S'name'
p7
S'y'
sS'lib'
p8
(dp9
sS'unicodes'
p10
(tsS'width'
p11
F1065.05
sS'contours'
p12
(tsS'components'
p13
(tsS'anchors'
p14
(tsss."
AnchorPoint: "top" 261 501 basechar 0
LayerCount: 2
Fore
SplineSet
89 -208 m 257
 63 -159 l 257
 162 -130 198 -76 215 -30 c 257
 225 -3 l 257
 25 501 l 257
 98 501 l 257
 259 74 l 257
 417 501 l 257
 486 501 l 257
 285 -26 l 257
 254 -109 193 -186 89 -208 c 257
EndSplineSet
EndChar

StartChar: yen
Encoding: 165 165 480
Width: 577
VWidth: 0
Flags: HW
PickledData: "(dp1
S'org.robofab.postScriptHintData'
p2
(dp3
sS'com.typemytype.robofont.layerData'
p4
(dp5
S'b'
(dp6
S'name'
p7
S'yen'
p8
sS'lib'
p9
(dp10
sS'unicodes'
p11
(tsS'width'
p12
F1225.45
sS'contours'
p13
(tsS'components'
p14
(tsS'anchors'
p15
(tsss."
LayerCount: 2
Fore
SplineSet
250 0 m 257
 323 0 l 257
 323 154 l 257
 470 154 l 257
 470 198 l 257
 323 198 l 257
 323 266 l 257
 470 266 l 257
 470 312 l 257
 338 312 l 257
 567 711 l 257
 490 711 l 257
 288 348 l 257
 89 711 l 257
 10 711 l 257
 234 312 l 257
 99 312 l 257
 99 266 l 257
 250 266 l 257
 250 198 l 257
 99 198 l 257
 99 154 l 257
 250 154 l 257
 250 0 l 257
EndSplineSet
EndChar

StartChar: z
Encoding: 122 122 484
Width: 464
VWidth: 0
Flags: HW
PickledData: "(dp1
S'org.robofab.postScriptHintData'
p2
(dp3
sS'com.typemytype.robofont.layerData'
p4
(dp5
S'b'
(dp6
S'name'
p7
S'z'
sS'lib'
p8
(dp9
sS'unicodes'
p10
(tsS'width'
p11
F971.85000000000002
sS'contours'
p12
(tsS'components'
p13
(tsS'anchors'
p14
(tsss."
AnchorPoint: "top" 236 501 basechar 0
LayerCount: 2
Fore
SplineSet
47 0 m 257
 47 39 l 257
 334 444 l 257
 57 444 l 257
 57 501 l 257
 423 501 l 257
 423 463 l 257
 137 56 l 257
 424 56 l 257
 424 0 l 257
 47 0 l 257
EndSplineSet
EndChar

StartChar: zero
Encoding: 48 48 488
Width: 587
VWidth: 0
Flags: HW
PickledData: "(dp1
S'org.robofab.postScriptHintData'
p2
(dp3
sS'com.typemytype.robofont.layerData'
p4
(dp5
s."
LayerCount: 2
Fore
SplineSet
297 -11 m 256
 142 -11 61 125 61 355 c 256
 61 592 142 724 298 724 c 256
 450 724 527 590 527 355 c 256
 527 125 450 -11 297 -11 c 256
298 49 m 256
 404 49 452 164 452 355 c 256
 452 545 404 664 298 664 c 256
 187 664 135 545 135 355 c 256
 135 164 187 49 298 49 c 256
EndSplineSet
EndChar

StartChar: mu
Encoding: 181 181 493
Width: 615
VWidth: 0
Flags: HW
LayerCount: 2
Fore
SplineSet
156 -148 m 257
 87 -147 l 257
 87 501 l 257
 156 501 l 257
 156 195 l 258
 156 95 201 45 286 45 c 256
 393 45 450 123 450 185 c 258
 450 501 l 257
 520 501 l 257
 520 117 l 258
 520 71 522 22 523 0 c 257
 455 0 l 257
 452 87 l 257
 420 32 363 -12 278 -12 c 256
 226 -12 185 2 156 28 c 257
 156 -148 l 257
EndSplineSet
EndChar

StartChar: uni0358
Encoding: 856 856 494
Width: 255
VWidth: 0
Flags: HW
AnchorPoint: "top" 128 501 mark 0
LayerCount: 2
Fore
SplineSet
87 614 m 257
 86 697 l 257
 169 697 l 257
 170 614 l 257
 87 614 l 257
EndSplineSet
EndChar

StartChar: Sigma
Encoding: 931 931 495
Width: 560
VWidth: 0
Flags: HW
LayerCount: 2
Fore
SplineSet
57 -51 m 257
 57 -16 l 257
 303 336 l 257
 66 671 l 257
 66 710 l 257
 506 710 l 257
 506 656 l 257
 154 656 l 257
 376 340 l 257
 138 3 l 257
 526 3 l 257
 526 -51 l 257
 57 -51 l 257
EndSplineSet
EndChar

StartChar: emptyset
Encoding: 8709 8709 496
Width: 819
VWidth: 0
Flags: HW
LayerCount: 2
Fore
SplineSet
55 358 m 256
 55 562 224 719 406 719 c 256
 491 719 574 685 637 628 c 257
 723 725 l 257
 741 711 l 257
 653 612 l 257
 716 548 758 459 758 358 c 256
 758 154 588 -3 406 -3 c 256
 323 -3 243 29 180 84 c 257
 86 -21 l 257
 71 -7 l 257
 165 99 l 257
 99 164 55 255 55 358 c 256
194 100 m 257
 253 49 328 18 406 18 c 256
 577 18 737 167 737 358 c 256
 737 452 699 536 639 597 c 257
 194 100 l 257
179 114 m 257
 623 612 l 257
 563 666 486 698 406 698 c 256
 235 698 76 549 76 358 c 256
 76 261 117 175 179 114 c 257
EndSplineSet
EndChar

StartChar: uni03BC
Encoding: 956 956 497
Width: 579
VWidth: 0
Flags: HW
LayerCount: 2
Fore
SplineSet
426 122 m 257
 404 92 360 45 271 45 c 256
 182 45 150 102 150 193 c 258
 150 528 l 257
 77 528 l 257
 77 -146 l 257
 150 -146 l 257
 150 20 l 257
 180 0 219 -10 266 -10 c 256
 345 -10 397 19 432 66 c 257
 436 0 l 257
 499 0 l 257
 499 528 l 257
 426 528 l 257
 426 122 l 257
EndSplineSet
EndChar

StartChar: uni02C9
Encoding: 713 713 498
Width: 292
VWidth: 0
Flags: HW
LayerCount: 2
Fore
SplineSet
3 638 m 257
 288 638 l 257
 288 696 l 257
 3 696 l 257
 3 638 l 257
EndSplineSet
EndChar
